<?xml version="1.0" standalone="no"?>
<!DOCTYPE svg PUBLIC "-//W3C//DTD SVG 1.1//EN" "http://www.w3.org/Graphics/SVG/1.1/DTD/svg11.dtd" >
<svg xmlns="http://www.w3.org/2000/svg" xmlns:xlink="http://www.w3.org/1999/xlink" version="1.1">
<metadata>
Created by FontForge 20170731 at Thu Apr  7 16:21:40 2016
 By Aleksey,,,
Copyright (c) 2016 by Vassil Kateliev, Karandash Type &#38; Graphic foundry. All rights reserved.
</metadata>
<defs>
<font id="SybillaPro-Heavy" horiz-adv-x="580" >
  <font-face 
    font-family="SybillaPro-Heavy"
    font-weight="400"
    font-stretch="normal"
    units-per-em="1000"
    panose-1="2 6 5 3 5 0 0 2 0 3"
    ascent="754"
    descent="-246"
    x-height="477"
    cap-height="674"
    bbox="-90 -239 1347 1008"
    underline-thickness="45"
    underline-position="-144"
    unicode-range="U+000D-F0000"
  />
<missing-glyph horiz-adv-x="573" 
d="M125 436h113v58q17 7 37 7q19 0 32.5 -9t13.5 -29t-12 -33t-26 -28q-23 -24 -43 -60t-20 -91v-15h102q0 24 15 51.5t41 50.5q11 10 25 21.5t26.5 27.5t21 36.5t8.5 49.5q0 35 -14 59.5t-37 39.5t-54 21.5t-65 6.5q-49 0 -93 -11.5t-71 -28.5v-124zM271 181q-27 0 -44 -18
t-17 -44q0 -27 17 -44.5t44 -17.5t44 17.5t17 44.5q0 26 -17 44t-44 18zM537 674v-674h-501v674h501z" />
    <glyph glyph-name=".notdef" horiz-adv-x="573" 
d="M125 436h113v58q17 7 37 7q19 0 32.5 -9t13.5 -29t-12 -33t-26 -28q-23 -24 -43 -60t-20 -91v-15h102q0 24 15 51.5t41 50.5q11 10 25 21.5t26.5 27.5t21 36.5t8.5 49.5q0 35 -14 59.5t-37 39.5t-54 21.5t-65 6.5q-49 0 -93 -11.5t-71 -28.5v-124zM271 181q-27 0 -44 -18
t-17 -44q0 -27 17 -44.5t44 -17.5t44 17.5t17 44.5q0 26 -17 44t-44 18zM537 674v-674h-501v674h501z" />
    <glyph glyph-name=".null" horiz-adv-x="0" 
 />
    <glyph glyph-name="nonmarkingreturn" unicode="&#xd;" horiz-adv-x="260" 
 />
    <glyph glyph-name="space" unicode=" " horiz-adv-x="250" 
 />
    <glyph glyph-name="exclam" unicode="!" horiz-adv-x="324" 
d="M268 701l-43 -480h-126l-24 223l22 257h171zM162 146q37 0 59.5 -22.5t22.5 -57.5t-22.5 -57.5t-59.5 -22.5t-59.5 22.5t-22.5 57.5t22.5 57.5t59.5 22.5z" />
    <glyph glyph-name="quotedbl" unicode="&#x22;" horiz-adv-x="419" 
d="M165 477h-100l-15 180q0 32 17 51.5t48 19.5t48 -19.5t17 -51.5zM354 477h-100l-15 180q0 32 17 51.5t48 19.5t48 -19.5t17 -51.5z" />
    <glyph glyph-name="numbersign" unicode="#" horiz-adv-x="561" 
d="M270 544l-14 -93h93l14 93h109l-14 -93h66v-97h-80l-15 -99h66v-97h-80l-13 -91h-109l13 91h-94l-13 -91h-109l13 91h-66v97h80l16 99h-66v97h80l14 93h109zM226 255h94l15 99h-94z" />
    <glyph glyph-name="dollar" unicode="$" horiz-adv-x="610" 
d="M376 768v-104q42 -4 80 -16t74 -29v-160h-150v80q-32 9 -68 9q-14 0 -27.5 -1.5t-25 -6t-18.5 -13.5t-7 -23q0 -17 10.5 -29t30 -23t47.5 -22t62 -26q40 -18 74 -37t59 -43.5t39 -56.5t14 -74q0 -45 -15.5 -76.5t-41.5 -53t-61.5 -34t-75.5 -18.5v-105h-150v103
q-48 5 -92 18t-84 35v169h150v-89q36 -16 83 -16q42 0 69 12.5t27 38.5q0 16 -11 28.5t-29 23t-41 21t-48 21.5q-44 19 -81 40t-64 46.5t-42 58t-15 76.5t15.5 74.5t40.5 50t57 30t65 16.5v105h150z" />
    <glyph glyph-name="percent" unicode="%" horiz-adv-x="887" 
d="M678 345q78 0 121.5 -48.5t43.5 -129.5q0 -40 -11 -73.5t-32 -57.5t-52 -37t-70 -13t-70 13t-52 37t-32 57.5t-11 73.5q0 81 43.5 129.5t121.5 48.5zM678 263q-24 0 -33 -26.5t-9 -70.5t9 -71t33 -27q25 0 33.5 27t8.5 71t-8.5 70.5t-33.5 26.5zM209 688
q78 0 121.5 -48.5t43.5 -129.5q0 -40 -11 -73.5t-32 -57.5t-52 -37t-70 -13t-70 13t-52 37t-32 57.5t-11 73.5q0 81 43.5 129.5t121.5 48.5zM209 606q-24 0 -33 -26.5t-9 -70.5t9 -71t33 -27q25 0 33.5 27t8.5 71t-8.5 70.5t-33.5 26.5zM700 674l-429 -725l-82 51l429 725z
" />
    <glyph glyph-name="ampersand" unicode="&#x26;" horiz-adv-x="756" 
d="M580 507h-140v95q-20 8 -44.5 11.5t-48.5 3.5q-22 0 -42.5 -3t-36.5 -11.5t-25.5 -22.5t-9.5 -36q0 -32 20 -58.5t50 -58.5l198 -207q8 27 10.5 56.5t2.5 60.5h-74v105h276v-105h-72q0 -21 -1.5 -47.5t-6.5 -55t-14.5 -58t-25.5 -56.5l106 -110l-87 -81l-100 103
q-31 -22 -72.5 -34t-97.5 -12q-68 0 -121 18t-89.5 49t-55.5 73.5t-19 92.5q0 63 28 111.5t71 71.5v6q-25 24 -46.5 62.5t-21.5 84.5q0 37 17 69t48.5 54.5t77.5 35.5t105 13q27 0 58.5 -3t63.5 -9t62.5 -15t56.5 -22v-171zM249 315q-26 -11 -37 -37t-11 -50q0 -23 8.5 -45
t26.5 -39.5t45 -28.5t63 -11q24 0 47.5 5t39.5 15z" />
    <glyph glyph-name="quotesingle" unicode="'" horiz-adv-x="230" 
d="M165 477h-100l-15 180q0 32 17 51.5t48 19.5t48 -19.5t17 -51.5z" />
    <glyph glyph-name="parenleft" unicode="(" horiz-adv-x="350" 
d="M325 652q-14 -20 -32.5 -55.5t-35 -86t-28 -117t-11.5 -148.5t11.5 -148t28 -116.5t35 -86t32.5 -55.5l-91 -63q-17 18 -45 55t-55 95t-46.5 137t-19.5 182t19.5 182.5t46.5 137t55 94.5t45 55z" />
    <glyph glyph-name="parenright" unicode=")" horiz-adv-x="350" 
d="M116 714q17 -18 45 -55t55 -94.5t46.5 -137t19.5 -182.5t-19.5 -182t-46.5 -137t-55 -95t-45 -55l-91 63q14 20 32.5 55.5t35 86t28 116.5t11.5 148t-11.5 148.5t-28 117t-35 86t-32.5 55.5z" />
    <glyph glyph-name="asterisk" unicode="*" horiz-adv-x="444" 
d="M176 598l8 6l-19 110h116l-18 -110l8 -6l99 52l34 -112l-108 -16l-4 -10l81 -77l-96 -67l-50 98h-10l-48 -101l-94 70l79 77l-4 10l-110 16l37 111z" />
    <glyph glyph-name="plus" unicode="+" horiz-adv-x="709" 
d="M414 491v-185h190v-119h-190v-187h-119v187h-190v119h190v185h119z" />
    <glyph glyph-name="comma" unicode="," horiz-adv-x="304" 
d="M68 -121q23 17 35.5 39t12.5 48q0 20 -6.5 31t-15.5 22q-8 10 -16 23.5t-8 33.5q0 32 23.5 51t56.5 19q43 0 64 -30.5t21 -72.5q0 -36 -13.5 -68.5t-34 -58.5t-44.5 -45.5t-45 -29.5z" />
    <glyph glyph-name="hyphen" unicode="-" horiz-adv-x="407" 
d="M351 327v-118h-295v118h295z" />
    <glyph glyph-name="period" unicode="." horiz-adv-x="304" 
d="M152 146q37 0 59.5 -22.5t22.5 -57.5t-22.5 -57.5t-59.5 -22.5t-59.5 22.5t-22.5 57.5t22.5 57.5t59.5 22.5z" />
    <glyph glyph-name="slash" unicode="/" horiz-adv-x="445" 
d="M413 678l-271 -768l-110 35l271 768z" />
    <glyph glyph-name="zero" unicode="0" horiz-adv-x="709" 
d="M355 573q-31 0 -52 -17.5t-34 -49t-18.5 -75t-5.5 -95.5q0 -51 5.5 -94t18.5 -74.5t34 -49t52 -17.5t52 18t33.5 49.5t18 74.5t5.5 93q0 52 -5.5 95.5t-18.5 75t-34 49t-51 17.5zM355 688q76 0 133 -24.5t95 -70t57 -110.5t19 -145q0 -81 -19 -146t-57 -110.5t-95 -70.5
t-133 -25t-133 25t-95.5 70.5t-57.5 110.5t-19 146q0 80 19 145t57.5 110.5t95.5 70t133 24.5z" />
    <glyph glyph-name="one" unicode="1" horiz-adv-x="555" 
d="M251 674h154v-559h100v-115h-384v115h110v371l-96 -73l-85 100z" />
    <glyph glyph-name="two" unicode="2" horiz-adv-x="605" 
d="M209 460h-149v185q52 21 113 32t117 11q52 0 94.5 -10.5t73.5 -33.5t48 -59.5t17 -89.5t-16.5 -103.5t-47 -98t-73.5 -91.5t-95 -82l2 -5l98 15h164v-130h-505v115q49 34 100 78t93 92.5t69 99.5t27 100q0 40 -19 64t-60 24q-11 0 -25.5 -2t-25.5 -7v-104z" />
    <glyph glyph-name="three" unicode="3" horiz-adv-x="586" 
d="M200 480h-150v165q53 20 112.5 31.5t117.5 11.5q52 0 96 -10.5t76.5 -31.5t50.5 -53.5t18 -76.5q0 -51 -22.5 -89t-59.5 -61v-6q48 -23 72.5 -65.5t24.5 -99.5q0 -54 -22 -93.5t-61 -65t-92 -38t-115 -12.5q-54 0 -101.5 9t-94.5 27v123q42 -15 85.5 -25.5t87.5 -10.5
q55 0 89 20.5t34 67.5q0 46 -32.5 66.5t-83.5 20.5h-55v121h63q45 0 71.5 24t26.5 68q0 34 -18.5 55t-61.5 21q-11 0 -25 -2t-31 -7v-84z" />
    <glyph glyph-name="four" unicode="4" horiz-adv-x="655" 
d="M317 674q-5 -42 -15 -99.5t-22.5 -117.5t-26 -116t-25.5 -96l3 -5l50 5h85v204h164v-204h75v-125h-75v-120h-164v120h-316v110q12 45 27 105t28.5 122t24 119.5t13.5 97.5h174z" />
    <glyph glyph-name="five" unicode="5" horiz-adv-x="578" 
d="M482 674v-130h-243l-8 -121h40q119 0 188 -54.5t69 -159.5q0 -110 -74.5 -166.5t-208.5 -56.5q-51 0 -99 8.5t-96 28.5v123q44 -17 83.5 -27t83.5 -10q121 0 121 95q0 52 -36 76t-111 24h-130l19 370h402z" />
    <glyph glyph-name="six" unicode="6" horiz-adv-x="631" 
d="M501 554q-23 8 -47 13.5t-47 5.5q-39 0 -69 -16t-52 -42t-34.5 -60.5t-16.5 -70.5l4 -2q20 21 55 32.5t78 11.5q47 0 85.5 -14t66 -41t42.5 -66t15 -88q0 -56 -19.5 -99t-54 -72.5t-82 -44.5t-102.5 -15q-68 0 -119.5 22.5t-85.5 63.5t-51 100t-17 131q0 85 22.5 155.5
t65 121.5t103 79.5t136.5 28.5q36 0 65.5 -6t58.5 -14v-114zM240 270q0 -75 20.5 -119.5t61.5 -44.5q36 0 52.5 32t16.5 74q0 20 -4 38t-12.5 31.5t-22.5 21.5t-34 8q-46 0 -78 -41z" />
    <glyph glyph-name="seven" unicode="7" horiz-adv-x="629" 
d="M579 674v-119q-31 -53 -59.5 -122t-52 -143t-40.5 -149t-24 -141h-174q5 64 21.5 137.5t40 146.5t52.5 141t59 120l-2 5l-58 -5h-142v-86h-150v215h529z" />
    <glyph glyph-name="eight" unicode="8" horiz-adv-x="640" 
d="M150 370q-40 26 -59 60t-19 82q0 47 19 80.5t53 54.5t80 31t99 10q52 0 96.5 -9t77.5 -29.5t52 -52.5t19 -77q0 -54 -22 -92t-64 -72v-6q51 -31 79.5 -69.5t28.5 -98.5q0 -51 -20.5 -88t-57 -61t-86 -35.5t-107.5 -11.5q-57 0 -106.5 11t-85.5 34.5t-56.5 59.5t-20.5 87
q0 63 24 107t76 79v6zM273 296q-20 -24 -31.5 -51.5t-11.5 -55.5q0 -39 24 -61t66 -22q39 0 59.5 18.5t20.5 53.5q0 24 -10 41.5t-27 31t-40 24.5t-50 21zM364 412q15 20 24.5 42t9.5 46q0 33 -19.5 53t-57.5 20q-32 0 -50.5 -16t-18.5 -46q0 -40 30.5 -61.5t81.5 -37.5z
" />
    <glyph glyph-name="nine" unicode="9" horiz-adv-x="631" 
d="M130 120q23 -8 47 -13.5t47 -5.5q39 0 69 16t52 42t34.5 60.5t16.5 70.5l-4 2q-20 -21 -55 -32.5t-78 -11.5q-47 0 -85.5 14t-66 41t-42.5 66t-15 88q0 56 19.5 99t54 72.5t81.5 44.5t103 15q68 0 119.5 -22.5t85.5 -63.5t51 -100t17 -131q0 -85 -22.5 -155.5t-65 -121.5
t-103 -79.5t-136.5 -28.5q-36 0 -65.5 6t-58.5 14v114zM391 404q0 75 -20.5 119.5t-61.5 44.5q-36 0 -52.5 -32t-16.5 -74q0 -20 4 -38t12.5 -31.5t22.5 -21.5t34 -8q23 0 43 10.5t35 30.5z" />
    <glyph glyph-name="colon" unicode=":" horiz-adv-x="304" 
d="M152 146q37 0 59.5 -22.5t22.5 -57.5t-22.5 -57.5t-59.5 -22.5t-59.5 22.5t-22.5 57.5t22.5 57.5t59.5 22.5zM152 491q37 0 59.5 -22.5t22.5 -57.5t-22.5 -57.5t-59.5 -22.5t-59.5 22.5t-22.5 57.5t22.5 57.5t59.5 22.5z" />
    <glyph glyph-name="semicolon" unicode=";" horiz-adv-x="304" 
d="M68 -121q23 17 35.5 39t12.5 48q0 20 -6.5 31t-15.5 22q-8 10 -16 23.5t-8 33.5q0 32 23.5 51t56.5 19q43 0 64 -30.5t21 -72.5q0 -36 -13.5 -68.5t-34 -58.5t-44.5 -45.5t-45 -29.5zM152 491q37 0 59.5 -22.5t22.5 -57.5t-22.5 -57.5t-59.5 -22.5t-59.5 22.5t-22.5 57.5
t22.5 57.5t59.5 22.5z" />
    <glyph glyph-name="less" unicode="&#x3c;" horiz-adv-x="709" 
d="M565 477l40 -108l-334 -123v-8l334 -123l-43 -115l-458 171v135z" />
    <glyph glyph-name="equal" unicode="=" horiz-adv-x="709" 
d="M604 187v-119h-499v119h499zM604 425v-119h-499v119h499z" />
    <glyph glyph-name="greater" unicode="&#x3e;" horiz-adv-x="709" 
d="M605 306v-135l-461 -171l-40 108l334 123v8l-334 123l43 115z" />
    <glyph glyph-name="question" unicode="?" horiz-adv-x="539" 
d="M186 507h-140v154q93 54 207 54q51 0 95 -11t76 -32.5t50.5 -53.5t18.5 -75q0 -29 -8.5 -53.5t-22.5 -46.5t-33 -42.5t-40 -41.5q-32 -32 -54 -63.5t-22 -74.5h-130v20q0 33 6.5 60.5t17.5 51.5t26.5 46t33.5 44q17 20 30 40.5t13 45.5q0 29 -19.5 45t-52.5 16
q-25 0 -52 -10v-73zM248 146q35 0 58.5 -22.5t23.5 -57.5t-23.5 -57.5t-58.5 -22.5t-58.5 22.5t-23.5 57.5t23.5 57.5t58.5 22.5z" />
    <glyph glyph-name="at" unicode="@" horiz-adv-x="823" 
d="M432 154q-35 0 -56.5 -9.5t-21.5 -36.5q0 -19 11.5 -32t34.5 -13q15 0 29.5 5.5t26.5 16t19.5 26t7.5 34.5v9h-51zM369 251h-95v85q33 20 74 30t78 10q68 0 111 -34t43 -109v-101q0 -32 10.5 -50.5t33.5 -18.5q24 0 37.5 25.5t13.5 89.5q0 54 -11.5 106t-41 93t-80 66
t-128.5 25q-131 0 -198.5 -74t-67.5 -209q0 -88 27 -147.5t69 -95.5t93.5 -51t100.5 -15q40 0 75.5 9.5t75.5 31.5l36 -60q-42 -29 -94 -45t-114 -16q-72 0 -140 23t-120.5 70.5t-84.5 119t-32 167.5q0 90 28.5 159.5t79 116.5t120.5 71.5t153 24.5q89 0 157 -27t113.5 -74
t68.5 -111.5t23 -139.5q0 -59 -13 -99t-34.5 -65t-48.5 -35.5t-55 -10.5q-31 0 -63 14.5t-51 52.5h-6q-20 -29 -53.5 -48t-78.5 -19q-59 0 -92.5 31.5t-33.5 81.5q0 32 14 55.5t38 39t57.5 23t72.5 7.5h44v8q0 40 -21 54.5t-48 14.5q-24 0 -42 -8v-42z" />
    <glyph glyph-name="A" unicode="A" horiz-adv-x="806" 
d="M510 674l226 -559h50v-115h-333v115h80l-26 68h-236l-25 -68h80v-115h-306v115h50l170 444h-80v115h350zM371 460l-61 -169h155l-64 169l-12 45h-6z" />
    <glyph glyph-name="B" unicode="B" horiz-adv-x="705" 
d="M371 674q119 0 187.5 -43t68.5 -128q0 -47 -21.5 -82.5t-61.5 -52.5v-6q21 -7 42.5 -21t39 -35t28.5 -49.5t11 -64.5q0 -45 -18 -80.5t-52 -60t-82.5 -38t-108.5 -13.5h-368v115h60v444h-60v115h335zM284 115h77q61 0 86.5 24t25.5 65t-26 66t-86 25h-77v-180zM284 399
h49q60 0 88 22t28 61q0 77 -116 77h-49v-160z" />
    <glyph glyph-name="C" unicode="C" horiz-adv-x="679" 
d="M639 415h-150v148q-30 10 -63 10q-40 0 -73.5 -15t-57.5 -43.5t-37 -70t-13 -93.5q0 -119 64.5 -182t175.5 -63q81 0 154 31v-113q-30 -14 -79.5 -26t-123.5 -12q-91 0 -164.5 22.5t-125 67.5t-79 111.5t-27.5 154.5q0 85 26 149.5t74.5 108t118 66t156.5 22.5
q56 0 116.5 -10t107.5 -33v-230z" />
    <glyph glyph-name="D" unicode="D" horiz-adv-x="775" 
d="M284 115h53q49 0 85.5 16t61 45t37 70t12.5 92q0 103 -49.5 162t-146.5 59h-53v-444zM347 674q86 0 157.5 -22t122.5 -64.5t79.5 -105.5t28.5 -144t-28.5 -144t-79.5 -106t-122.5 -65.5t-157.5 -22.5h-311v115h60v444h-60v115h311z" />
    <glyph glyph-name="E" unicode="E" horiz-adv-x="647" 
d="M598 674v-215h-150v100h-164v-152h164v-120h-164v-172h169v110h150v-225h-567v115h60v444h-60v115h562z" />
    <glyph glyph-name="F" unicode="F" horiz-adv-x="634" 
d="M598 674v-215h-150v100h-164v-158h154v-120h-154v-166h90v-115h-338v115h60v444h-60v115h562z" />
    <glyph glyph-name="G" unicode="G" horiz-adv-x="742" 
d="M649 431h-150v132q-30 10 -65 10q-40 0 -74.5 -14t-60 -43t-40 -73t-14.5 -103q0 -113 50.5 -173.5t136.5 -60.5q22 0 39 4v113h-75v115h313v-114h-60v-193q-42 -20 -97 -32.5t-127 -12.5q-89 0 -160 22.5t-121 66.5t-77 109.5t-27 151.5t27 152t77 110.5t121 67
t160 22.5q56 0 116.5 -10t107.5 -33v-214z" />
    <glyph glyph-name="H" unicode="H" horiz-adv-x="804" 
d="M354 674v-115h-70v-152h236v152h-70v115h318v-115h-60v-444h60v-115h-318v115h70v172h-236v-172h70v-115h-318v115h60v444h-60v115h318z" />
    <glyph glyph-name="I" unicode="I" horiz-adv-x="380" 
d="M344 674v-115h-60v-444h60v-115h-308v115h60v444h-60v115h308z" />
    <glyph glyph-name="J" unicode="J" horiz-adv-x="398" 
d="M362 674v-115h-60v-449q0 -153 -72.5 -227t-205.5 -81v115q28 11 45.5 26.5t27.5 37t13.5 51t3.5 68.5v459h-80v115h328z" />
    <glyph glyph-name="K" unicode="K" horiz-adv-x="774" 
d="M744 674v-115h-65l-149 -200l95 -159q23 -39 55 -62t64 -23h10v-115q-15 -4 -35 -5.5t-41 -1.5q-38 0 -71.5 5t-63.5 19t-56 39t-49 65l-124 216l134 190l29 27l-2 5h-60v115h329zM339 674v-115h-55v-444h65v-115h-313v115h60v444h-60v115h303z" />
    <glyph glyph-name="L" unicode="L" horiz-adv-x="647" 
d="M364 674v-115h-80v-444h169v130h150v-245h-567v115h60v444h-60v115h328z" />
    <glyph glyph-name="M" unicode="M" horiz-adv-x="1079" 
d="M415 674l107 -395l11 -68h7l11 68l103 395h389v-115h-60v-444h60v-115h-308v115h60v303l7 109h-7l-145 -527h-234l-145 527h-7l7 -109v-303h60v-115h-295v115h60v444h-60v115h379z" />
    <glyph glyph-name="N" unicode="N" horiz-adv-x="796" 
d="M283 674l252 -392l5 2l-10 68v207h-60v115h290v-115h-60v-559h-195l-244 381l-5 -2l10 -68v-196h60v-115h-290v115h60v444h-60v115h247z" />
    <glyph glyph-name="O" unicode="O" horiz-adv-x="816" 
d="M408 573q-46 0 -77.5 -17t-50.5 -48t-27 -74.5t-8 -96.5t8 -96.5t27 -74.5t50 -48t78 -17q46 0 77.5 17t50.5 48t27 74.5t8 96.5t-8 96.5t-27 74.5t-50.5 48t-77.5 17zM408 688q86 0 154.5 -23t116 -67.5t72.5 -110t25 -150.5t-25 -150.5t-72.5 -110t-115.5 -67.5
t-155 -23t-155 23t-115.5 67.5t-72.5 110t-25 150.5t25 150.5t72.5 110t116 67.5t154.5 23z" />
    <glyph glyph-name="P" unicode="P" horiz-adv-x="683" 
d="M348 674q67 0 121.5 -13t93 -39.5t59.5 -67.5t21 -96q0 -56 -21 -98t-59.5 -70t-93 -42.5t-121.5 -14.5h-64v-118h90v-115h-338v115h60v444h-60v115h312zM284 348h48q62 0 90 32.5t28 77.5t-27.5 73t-90.5 28h-48v-211z" />
    <glyph glyph-name="Q" unicode="Q" horiz-adv-x="827" 
d="M787 -69v-115q-20 -8 -37 -11t-40 -3q-91 0 -158.5 41.5t-111.5 142.5h-36q-86 0 -153.5 23.5t-114.5 68.5t-71.5 110.5t-24.5 149.5q0 85 25 150.5t72.5 109.5t116 67t154.5 23t154.5 -23t116 -67.5t72.5 -110.5t25 -152q0 -110 -43 -188.5t-134 -120.5q26 -51 63.5 -73
t94.5 -22h30zM408 573q-46 0 -77.5 -17t-50.5 -48t-27 -74.5t-8 -96.5t8 -96.5t27 -74.5t50 -48t78 -17q46 0 77.5 17t50.5 48t27 74.5t8 96.5t-8 96.5t-27 74.5t-50.5 48t-77.5 17z" />
    <glyph glyph-name="R" unicode="R" horiz-adv-x="722" 
d="M357 674q135 0 210 -54t75 -151q0 -66 -33 -115t-82 -75v-5l49 -80q22 -36 48 -57.5t68 -21.5h10v-115q-38 -7 -81 -7q-39 0 -70.5 6t-57.5 20t-47.5 36.5t-41.5 55.5l-80 132h-40v-128h50v-115h-298v115h60v444h-60v115h321zM284 358h43q34 0 57.5 9t37.5 23.5t20.5 33
t6.5 38.5q0 42 -27.5 69.5t-90.5 27.5h-47v-201z" />
    <glyph glyph-name="S" unicode="S" horiz-adv-x="658" 
d="M573 477h-149v83q-24 8 -45 10.5t-43 2.5q-37 0 -62.5 -9.5t-25.5 -38.5q0 -17 9.5 -30.5t29.5 -26.5t50 -27t71 -33q36 -17 73 -36.5t67.5 -46.5t50 -63.5t19.5 -86.5q0 -52 -21.5 -88t-60 -58.5t-91 -32.5t-113.5 -10q-33 0 -69.5 3t-72.5 9t-70.5 15t-64.5 21v182h149
v-93q51 -21 120 -21q17 0 33.5 2t30 7t22 15t8.5 27q0 18 -11 33.5t-31 29t-47 26.5t-58 28q-42 19 -82 40t-71.5 48t-50.5 62.5t-19 84.5q0 51 21 86t58.5 56.5t88 31t109.5 9.5q67 0 130 -10.5t118 -28.5v-172z" />
    <glyph glyph-name="T" unicode="T" horiz-adv-x="774" 
d="M734 674v-235h-150v120h-103v-444h80v-115h-348v115h80v444h-103v-120h-150v235h694z" />
    <glyph glyph-name="U" unicode="U" horiz-adv-x="792" 
d="M357 674v-115h-75v-256q0 -33 3.5 -67t16.5 -62t38.5 -46t69.5 -18q40 0 64 15.5t36.5 41.5t16 61t3.5 74v257h-75v115h303v-115h-60v-267q0 -156 -70 -231t-229 -75q-156 0 -230.5 73.5t-74.5 233.5v266h-60v115h323z" />
    <glyph glyph-name="V" unicode="V" horiz-adv-x="774" 
d="M350 674v-115h-80l110 -323l13 -64h6l14 64l111 323h-80v115h310v-115h-50l-206 -559h-227l-201 559h-50v115h330z" />
    <glyph glyph-name="W" unicode="W" horiz-adv-x="1047" 
d="M322 674v-115h-66l59 -278l8 -61h7l8 61l82 393h219l84 -393l8 -61h7l7 61l61 278h-68v115h289v-115h-46l-129 -559h-248l-68 350l-8 61h-7l-8 -61l-67 -350h-254l-126 559h-46v115h302z" />
    <glyph glyph-name="X" unicode="X" horiz-adv-x="766" 
d="M365 674v-115h-61l-2 -5l27 -24l69 -81l69 81l27 24l-2 5h-60v115h299v-115h-50l-186 -216l196 -228h55v-115h-340v115h67l2 5l-25 22l-82 96l-83 -96l-25 -22l2 -5h67v-115h-309v115h55l195 228l-185 216h-50v115h330z" />
    <glyph glyph-name="Y" unicode="Y" horiz-adv-x="783" 
d="M350 674v-115h-69l-2 -5l22 -24l97 -142h5l99 142l23 24l-2 5h-69v115h309v-115h-50l-230 -309v-135h80v-115h-348v115h80v135l-225 309h-50v115h330z" />
    <glyph glyph-name="Z" unicode="Z" horiz-adv-x="653" 
d="M616 674v-115l-320 -399l-44 -40l3 -5h212v120h150v-235h-585v115l319 399l44 40l-3 5h-185v-110h-150v225h559z" />
    <glyph glyph-name="bracketleft" unicode="[" horiz-adv-x="350" 
d="M330 714v-104h-88v-730h83v-104h-232v938h237z" />
    <glyph glyph-name="backslash" unicode="\" horiz-adv-x="445" 
d="M142 713l271 -768l-110 -35l-271 768z" />
    <glyph glyph-name="bracketright" unicode="]" horiz-adv-x="350" 
d="M257 714v-938h-232v104h83v730h-88v104h237z" />
    <glyph glyph-name="asciicircum" unicode="^" horiz-adv-x="709" 
d="M406 674l177 -336h-120l-106 203h-5l-106 -203h-120l176 336h104z" />
    <glyph glyph-name="underscore" unicode="_" horiz-adv-x="500" 
d="M500 -70v-110h-500v110h500z" />
    <glyph glyph-name="grave" unicode="`" horiz-adv-x="329" 
d="M295 603l-67 -52l-119 123q-20 20 -26.5 36t-6.5 31q0 30 19.5 48.5t48.5 18.5q23 0 39 -12.5t30 -38.5z" />
    <glyph glyph-name="a" unicode="a" horiz-adv-x="602" 
d="M282 197q-27 0 -45 -12t-18 -35q0 -19 13.5 -31.5t41.5 -12.5q39 0 61.5 25t22.5 61v5h-76zM220 326h-143v126q48 20 108.5 29.5t110.5 9.5q52 0 93 -11t69.5 -34t44 -59t15.5 -86v-149q0 -26 14.5 -37t40.5 -11v-104q-11 -4 -26 -5.5t-29 -1.5q-52 0 -88 21.5t-44 65.5
h-6q-21 -43 -59.5 -68.5t-99.5 -25.5q-34 0 -65.5 9t-55.5 27t-38 45t-14 64q0 43 19.5 73.5t52.5 50t76.5 28.5t92.5 9h64v10q0 45 -22 62t-60 17q-9 0 -23.5 -1t-27.5 -5v-49z" />
    <glyph glyph-name="b" unicode="b" horiz-adv-x="627" 
d="M248 714v-254l-30 -93h8q8 19 22 38.5t34.5 35.5t48 26t62.5 10q41 0 76.5 -14.5t62 -42.5t42 -68t15.5 -91q0 -60 -22 -110.5t-62.5 -87t-98 -57t-128.5 -20.5q-25 0 -52.5 2.5t-54 7.5t-51 12.5t-42.5 17.5v584h-70v104h240zM248 108q8 -3 17.5 -5t23.5 -2
q31 0 55.5 11t41 29.5t25 43t8.5 51.5q0 42 -20 71.5t-59 29.5q-22 0 -39 -10.5t-29 -27.5t-18 -39.5t-6 -47.5v-104z" />
    <glyph glyph-name="c" unicode="c" horiz-adv-x="534" 
d="M496 282h-138v87q-22 7 -44 7q-27 0 -46 -10t-31.5 -26.5t-18 -38t-5.5 -45.5q0 -41 14 -69.5t36.5 -47t52 -27t60.5 -8.5q29 0 63 7t57 21v-118q-26 -14 -65 -21t-86 -7q-72 0 -129 17.5t-96.5 50.5t-60.5 80.5t-21 107.5q0 61 21.5 108t59 78t89 47t111.5 16
q54 0 97.5 -11t79.5 -28v-170z" />
    <glyph glyph-name="d" unicode="d" horiz-adv-x="633" 
d="M549 714v-562q0 -26 14.5 -37t40.5 -11v-104q-11 -4 -26.5 -5.5t-29.5 -1.5q-55 0 -89 22.5t-51 70.5h-6q-8 -17 -22 -35t-35 -32.5t-48.5 -23.5t-62.5 -9q-42 0 -77.5 14t-62 41.5t-41.5 67t-15 90.5q0 62 22 113t62 88t94.5 57t120.5 20q25 0 42 -3v136h-70v104h240z
M379 350q-8 3 -17 5t-23 2q-32 0 -56 -11t-41 -29.5t-25.5 -43t-8.5 -51.5q0 -43 20.5 -72t59.5 -29q22 0 39 9.5t28.5 25.5t17.5 36.5t6 43.5v114z" />
    <glyph glyph-name="e" unicode="e" horiz-adv-x="564" 
d="M216 191q12 -45 54 -66t99 -21q67 0 118 28v-118q-23 -11 -59 -19.5t-91 -8.5q-64 0 -118.5 14t-94.5 44.5t-63 79t-23 118.5q0 117 64.5 183t186.5 66q51 0 94 -12.5t75 -37.5t50 -63.5t18 -90.5q0 -26 -4 -50t-11 -46h-295zM367 280q0 45 -19 73t-61 28t-61 -28
t-19 -73h160z" />
    <glyph glyph-name="f" unicode="f" horiz-adv-x="400" 
d="M416 600q-12 4 -29 6t-33 2q-47 0 -67.5 -20t-20.5 -65v-46h120v-104h-120v-269h75v-104h-310v104h65v269h-70v104h70v56q0 54 18.5 91t48 60t66.5 33.5t75 10.5q28 0 58.5 -5.5t53.5 -18.5v-104z" />
    <glyph glyph-name="g" unicode="g" horiz-adv-x="613" 
d="M549 90q0 -88 -21.5 -150t-60.5 -101.5t-93.5 -58t-121.5 -18.5q-50 0 -85.5 8.5t-61.5 19.5v120q28 -13 61 -20.5t64 -7.5q71 0 112.5 42.5t41.5 123.5v40h-6q-19 -36 -56.5 -57t-88.5 -21q-41 0 -77 14.5t-62 41.5t-41 66.5t-15 89.5q0 60 22 109.5t62 85t97 55
t128 19.5q25 0 53 -2.5t55 -7.5t51.5 -12.5t42.5 -17.5v-361zM379 364q-8 3 -17.5 5t-23.5 2q-31 0 -55.5 -10t-41 -27t-25 -40t-8.5 -50q0 -41 20.5 -70t58.5 -29q22 0 39 10t29 27.5t18 40t6 47.5v94z" />
    <glyph glyph-name="h" unicode="h" horiz-adv-x="663" 
d="M263 714v-244l-29 -103h8q10 22 26.5 44.5t39.5 40t53 28.5t68 11q72 0 111 -43.5t39 -136.5v-207h55v-104h-225v290q0 31 -15.5 48.5t-40.5 17.5q-16 0 -32 -7.5t-29 -21.5t-21 -33.5t-8 -43.5v-146h60v-104h-285v104h55v506h-70v104h240z" />
    <glyph glyph-name="i" unicode="i" horiz-adv-x="363" 
d="M268 477v-373h70v-104h-305v104h65v269h-65v104h235zM177 728q46 0 73.5 -24.5t27.5 -62.5t-27.5 -62.5t-73.5 -24.5q-45 0 -72 24.5t-27 62.5t27 62.5t72 24.5z" />
    <glyph glyph-name="j" unicode="j" horiz-adv-x="340" 
d="M273 477v-432q0 -56 -15.5 -103.5t-47 -83.5t-80 -57.5t-114.5 -24.5v105q44 15 65.5 50t21.5 104v338h-65v104h235zM182 728q46 0 73.5 -24.5t27.5 -62.5t-27.5 -62.5t-73.5 -24.5q-45 0 -72 24.5t-27 62.5t27 62.5t72 24.5z" />
    <glyph glyph-name="k" unicode="k" horiz-adv-x="666" 
d="M265 714v-610h45v-104h-280v104h65v506h-70v104h240zM631 477v-104h-55l-98 -106l70 -110q17 -28 33.5 -40.5t44.5 -12.5h10v-104q-31 -7 -68 -7q-34 0 -60 4t-47.5 13.5t-39 26t-33.5 42.5l-103 163l87 101l33 24l-2 6h-57v104h285z" />
    <glyph glyph-name="l" unicode="l" horiz-adv-x="364" 
d="M269 714v-610h70v-104h-305v104h65v506h-70v104h240z" />
    <glyph glyph-name="m" unicode="m" horiz-adv-x="934" 
d="M254 477v-40l-20 -70h8q9 21 22.5 43t33 40t46.5 29.5t62 11.5q54 0 89.5 -26t45.5 -62h6q19 38 57 63t97 25q74 0 111.5 -44t37.5 -136v-207h55v-104h-225v290q0 31 -13.5 48.5t-37.5 17.5q-29 0 -52 -24.5t-23 -66.5v-161h50v-104h-215v290q0 31 -13.5 48.5t-36.5 17.5
q-15 0 -29 -7.5t-24.5 -20t-16.5 -30t-6 -38.5v-156h50v-104h-275v104h55v269h-60v104h221z" />
    <glyph glyph-name="n" unicode="n" horiz-adv-x="653" 
d="M254 477v-40l-20 -70h8q10 22 25.5 44.5t37.5 40t51.5 28.5t67.5 11q72 0 108.5 -43.5t36.5 -136.5v-207h55v-104h-225v290q0 31 -13 48.5t-38 17.5q-16 0 -31.5 -7.5t-27.5 -21.5t-19 -33.5t-7 -43.5v-146h60v-104h-285v104h55v269h-60v104h221z" />
    <glyph glyph-name="o" unicode="o" horiz-adv-x="616" 
d="M308 491q60 0 109.5 -16.5t85.5 -48t55.5 -78t19.5 -106.5t-19.5 -107.5t-55.5 -80.5t-85.5 -50.5t-109.5 -17.5t-109.5 17.5t-85.5 50.5t-55.5 80.5t-19.5 107.5t19.5 106.5t55.5 78t85.5 48t109.5 16.5zM308 376q-53 0 -74 -38t-21 -98q0 -30 5 -55.5t16 -44t29.5 -29
t44.5 -10.5q52 0 73.5 39.5t21.5 99.5t-21 98t-74 38z" />
    <glyph glyph-name="p" unicode="p" horiz-adv-x="643" 
d="M254 477v-41l-16 -69h8q7 20 22 39.5t36.5 35.5t50 25.5t63.5 9.5q42 0 76.5 -15t59 -43.5t38 -68.5t13.5 -89q0 -62 -21 -112.5t-59 -86.5t-91.5 -56t-117.5 -20q-17 0 -29.5 1.5t-22.5 3.5v-111h80v-104h-315v104h65v493h-65v104h225zM264 108q9 -3 22 -5t25 -2
q27 0 50 11t39.5 30t25.5 45t9 55q0 18 -4 35t-12.5 30.5t-22.5 21.5t-34 8q-42 0 -70 -34.5t-28 -91.5v-103z" />
    <glyph glyph-name="q" unicode="q" horiz-adv-x="626" 
d="M549 -120h65v-104h-315v104h80v137l29 93h-8q-8 -19 -21.5 -38.5t-34 -35.5t-48 -26t-63.5 -10q-41 0 -76.5 14t-62 41.5t-41.5 67.5t-15 91q0 61 22 112t62.5 88t98 57t128.5 20q25 0 52.5 -2.5t54 -7.5t51 -12.5t42.5 -17.5v-571zM379 364q-8 3 -17 5t-23 2
q-32 0 -56 -11t-41 -29.5t-25.5 -43t-8.5 -51.5q0 -43 20.5 -72t58.5 -29q22 0 39 10t29 27.5t18 40t6 47.5v104z" />
    <glyph glyph-name="r" unicode="r" horiz-adv-x="501" 
d="M254 477v-30l-25 -90h8q10 24 25.5 48t37.5 43t52 31t69 12q13 0 26 -1.5t21 -3.5v-144q-18 5 -47 5q-31 0 -59.5 -8t-50.5 -26t-35 -47t-13 -71v-91h65v-104h-290v104h55v269h-60v104h221z" />
    <glyph glyph-name="s" unicode="s" horiz-adv-x="535" 
d="M470 326h-140v54q-14 5 -28 6.5t-28 1.5q-26 0 -42.5 -6t-16.5 -21q0 -14 16 -23.5t41 -18.5l80 -29q28 -10 54 -23t46.5 -31t32.5 -42.5t12 -57.5q0 -39 -18 -67.5t-50.5 -47t-77.5 -27t-98 -8.5q-62 0 -115.5 10t-85.5 24v140h140v-62q15 -5 32 -6.5t28 -1.5
q29 0 49.5 6.5t20.5 27.5q0 14 -14.5 22.5t-51.5 22.5l-80 29q-27 10 -50.5 22.5t-41 30.5t-28 41t-10.5 54q0 37 16 64.5t45 45.5t69.5 26.5t90.5 8.5q60 0 112 -10.5t91 -24.5v-130z" />
    <glyph glyph-name="t" unicode="t" horiz-adv-x="428" 
d="M259 627v-150h140v-104h-140v-167q0 -55 28.5 -78.5t82.5 -23.5h19v-104q-17 -3 -43 -5t-46 -2q-43 0 -81.5 11t-67 35t-45.5 62.5t-17 94.5v177h-70v104h70v150h170z" />
    <glyph glyph-name="u" unicode="u" horiz-adv-x="644" 
d="M254 477v-280q0 -38 16.5 -57t43.5 -19q36 0 56 30t20 81v141h-60v104h230v-325q0 -26 14.5 -37t40.5 -11v-104q-11 -4 -26 -5.5t-29 -1.5q-52 0 -88.5 21.5t-44.5 65.5h-6q-22 -43 -63 -68.5t-98 -25.5q-39 0 -71.5 13.5t-56 38t-36 59.5t-12.5 79v197h-55v104h225z" />
    <glyph glyph-name="v" unicode="v" horiz-adv-x="632" 
d="M205 477l102 -277l13 -60h6l13 60l66 173h-70v104h281v-104h-55l-153 -373h-190l-147 373h-55v104h189z" />
    <glyph glyph-name="w" unicode="w" horiz-adv-x="880" 
d="M202 477l59 -272l9 -65h6l9 65l63 272h174l83 -272l10 -65h6l8 65l38 168h-55v104h252v-104h-50l-97 -373h-200l-70 227l-10 65h-6l-8 -65l-55 -227h-210l-92 373h-50v104h186z" />
    <glyph glyph-name="x" unicode="x" horiz-adv-x="620" 
d="M208 477l125 -148l24 29l24 20l-2 5h-42v94h249v-104h-49l-113 -133l70 -83q21 -25 40 -39t51 -14h5v-104q-14 -5 -28.5 -7t-36.5 -2q-28 0 -51 4t-42.5 12.5t-37.5 22.5t-35 35l-73 87l-28 -33l-23 -20l2 -5h42v-94h-249v104h48l117 138l-112 131h-48v104h173z" />
    <glyph glyph-name="y" unicode="y" horiz-adv-x="624" 
d="M254 477v-266q0 -38 16.5 -57t43.5 -19q36 0 56 30t20 81v127h-60v104h230v-399q0 -81 -21 -140.5t-59 -98.5t-92.5 -58t-121.5 -19q-49 0 -87 8.5t-64 19.5v120q26 -13 61 -20.5t66 -7.5q68 0 110.5 41t42.5 125v20h-6q-20 -37 -51.5 -52.5t-75.5 -15.5
q-41 0 -73.5 13.5t-56 38t-36 59.5t-12.5 79v183h-55v104h225z" />
    <glyph glyph-name="z" unicode="z" horiz-adv-x="552" 
d="M512 477v-99l-227 -239l-45 -35l2 -5h132v81h138v-180h-472v104l223 234l45 35l-2 5h-123v-71h-138v170h467z" />
    <glyph glyph-name="braceleft" unicode="{" horiz-adv-x="400" 
d="M372 714v-104q-32 0 -49.5 -9t-26 -22.5t-10.5 -28.5t-2 -27v-160q0 -57 -29 -83t-77 -30v-10q48 -4 77 -30.5t29 -83.5v-160q0 -12 3 -27t13 -28t27 -22t46 -9v-104h-47q-38 0 -72.5 9t-61 30t-42 55t-15.5 84v132q0 55 -21.5 78.5t-63.5 23.5v114q42 0 63.5 23.5
t21.5 78.5v132q0 50 15.5 84t42 55t61 30t72.5 9h46z" />
    <glyph glyph-name="bar" unicode="|" horiz-adv-x="300" 
d="M210 714v-938h-120v938h120z" />
    <glyph glyph-name="braceright" unicode="}" horiz-adv-x="400" 
d="M73 714q38 0 72.5 -9t61 -30t42 -55t15.5 -84v-132q0 -55 21.5 -78.5t63.5 -23.5v-114q-42 0 -63.5 -23.5t-21.5 -78.5v-132q0 -50 -15.5 -84t-42 -55t-61 -30t-72.5 -9h-47v104q28 0 45.5 9t27.5 22t13 28t3 27v160q0 57 29 83.5t77 30.5v10q-48 4 -77 30t-29 83v160
q0 12 -2 27t-10.5 28.5t-26.5 22.5t-49 9v104h46z" />
    <glyph glyph-name="asciitilde" unicode="~" horiz-adv-x="617" 
d="M104 194l-48 53q7 23 18.5 43t28 35t38.5 23.5t51 8.5q37 0 68 -11.5t64 -24.5l103 -41l86 63l48 -53q-15 -47 -46.5 -79t-89.5 -32q-37 0 -68 12t-64 25l-103 41z" />
    <glyph glyph-name="uni00A0" unicode="&#xa0;" horiz-adv-x="250" 
 />
    <glyph glyph-name="exclamdown" unicode="&#xa1;" horiz-adv-x="324" 
d="M225 256l24 -223l-22 -257h-171l43 480h126zM162 491q37 0 59.5 -22.5t22.5 -57.5t-22.5 -57.5t-59.5 -22.5t-59.5 22.5t-22.5 57.5t22.5 57.5t59.5 22.5z" />
    <glyph glyph-name="cent" unicode="&#xa2;" horiz-adv-x="554" 
d="M379 663v-110q36 -5 69 -14t66 -25v-180h-140v98q-18 7 -41 7q-30 0 -51.5 -12t-35 -32t-20 -45t-6.5 -52q0 -36 10.5 -66t30.5 -51.5t50 -34t68 -12.5q31 0 62 7.5t60 21.5v-118q-57 -23 -122 -28v-110h-140v110q-90 30 -144.5 100t-54.5 171q0 49 14 92.5t39.5 78.5
t62.5 59t83 35v110h140z" />
    <glyph glyph-name="sterling" unicode="&#xa3;" horiz-adv-x="628" 
d="M96 396v34q0 62 21.5 110t62.5 81t100 50t134 17q44 0 84 -7t81 -25v-203h-150v116h-30q-57 0 -86 -35.5t-29 -91.5v-46h145v-115h-145v-166h150v101h150v-216h-548v115h60v166h-59v115h59z" />
    <glyph glyph-name="currency" unicode="&#xa4;" horiz-adv-x="618" 
d="M196 532q48 19 113 19q60 0 112 -19l73 73l84 -84l-61 -61q17 -24 26 -54t9 -66q0 -75 -37 -126l63 -63l-84 -84l-74 73q-48 -19 -111 -19q-64 0 -111 19l-74 -73l-84 84l63 63q-36 53 -36 126q0 71 34 120l-61 61l84 84zM309 447q-46 0 -66 -32t-20 -77q0 -23 5 -43
t15.5 -36t26.5 -25t39 -9q22 0 38.5 9t27.5 25t16 36t5 43q0 45 -21 77t-66 32z" />
    <glyph glyph-name="yen" unicode="&#xa5;" horiz-adv-x="701" 
d="M201 674l134 -244l14 -55h6l15 55l140 244h175l-185 -279h99v-110h-168v-45h168v-110h-168v-130h-168v130h-163v110h163v45h-163v110h95l-179 279h185z" />
    <glyph glyph-name="brokenbar" unicode="&#xa6;" horiz-adv-x="300" 
d="M210 195v-379h-120v379h120zM210 674v-359h-120v359h120z" />
    <glyph glyph-name="section" unicode="&#xa7;" horiz-adv-x="603" 
d="M524 491h-131v82q-18 8 -35 12t-40 4q-38 0 -63.5 -11.5t-25.5 -40.5q0 -17 9 -29.5t23.5 -22.5t32.5 -18.5t37 -17.5l85 -40q28 -13 52.5 -28t43.5 -34t30 -43.5t11 -55.5q0 -54 -29.5 -91t-69.5 -53v-6q35 -17 52.5 -48t17.5 -72q0 -46 -21 -77t-54.5 -50t-76 -27
t-85.5 -8q-60 0 -113.5 13t-94.5 36v148h131v-83q15 -7 33.5 -11.5t46.5 -4.5q36 0 60 10.5t24 38.5q0 16 -8 28.5t-20 22t-27 17l-29 14.5l-118 56q-23 11 -45 25.5t-39 33.5t-27.5 43t-10.5 54q0 50 28 88.5t71 53.5v6q-21 11 -35 26t-21.5 31.5t-10.5 33t-3 31.5
q0 45 20 75.5t53 49.5t75.5 27.5t87.5 8.5q62 0 115 -13t94 -36v-148zM252 338q-29 -8 -42.5 -23t-13.5 -33q0 -22 16 -39t34 -26l104 -52q30 8 43.5 23t13.5 33q0 19 -14 37t-45 33z" />
    <glyph glyph-name="dieresis" unicode="&#xa8;" horiz-adv-x="472" 
d="M120 728q36 0 58.5 -23.5t22.5 -64.5t-23 -63.5t-58 -22.5q-36 0 -58 22.5t-22 63.5t21.5 64.5t58.5 23.5zM351 728q36 0 58.5 -23.5t22.5 -64.5t-22.5 -63.5t-58.5 -22.5t-58 22.5t-22 63.5t22 64.5t58 23.5z" />
    <glyph glyph-name="copyright" unicode="&#xa9;" horiz-adv-x="787" 
d="M543 373h-83v77q-12 3 -22.5 4t-17.5 1q-35 0 -62 -23.5t-27 -76.5q0 -58 38 -96t110 -38q37 0 69.5 11.5t56 34t37 56t13.5 76.5q0 42 -14 80t-44 67t-77.5 46.5t-113.5 17.5q-130 0 -197.5 -67t-67.5 -189q0 -80 27.5 -135t71 -89.5t97 -50t106.5 -15.5q43 0 85 9
t77 24l26 -73q-43 -17 -96.5 -27.5t-107.5 -10.5q-73 0 -142.5 21t-124 65t-87.5 111.5t-33 161.5q0 83 27 147t75.5 107.5t116.5 66t150 22.5q81 0 143.5 -21t106 -58.5t66 -89t22.5 -112.5q0 -63 -23.5 -111.5t-62.5 -81.5t-89.5 -50t-104.5 -17q-50 0 -93.5 14
t-75.5 40.5t-50 63.5t-18 83q0 40 13.5 73t38.5 57t60.5 37.5t78.5 13.5q35 0 65.5 -8t56.5 -22v-126z" />
    <glyph glyph-name="ordfeminine" unicode="&#xaa;" horiz-adv-x="480" 
d="M217 483q-13 0 -23.5 -6t-10.5 -20q0 -11 9 -20t28 -9q26 0 39.5 17t13.5 38h-56zM180 574h-103v87q17 7 37 12t41 8.5t41 5t38 1.5q74 0 115.5 -31t41.5 -102v-95q0 -16 9 -22.5t24 -6.5v-80q-8 -3 -20.5 -4.5t-23.5 -1.5q-74 0 -85 59h-6q-16 -31 -50 -47t-72 -16
q-45 0 -78 24.5t-33 76.5q0 30 11.5 50t32.5 32t49.5 17.5t61.5 5.5h51v10q0 51 -46 51q-8 0 -18.5 -1.5t-17.5 -3.5v-29zM424 291v-80h-368v80h368z" />
    <glyph glyph-name="guillemotleft" unicode="&#xab;" horiz-adv-x="587" 
d="M537 376l-123 -135l122 -134l-83 -75l-160 175v70l161 174zM294 376l-123 -135l122 -134l-83 -75l-160 175v70l161 174z" />
    <glyph glyph-name="logicalnot" unicode="&#xac;" horiz-adv-x="709" 
d="M604 306v-306h-119v187h-380v119h499z" />
    <glyph glyph-name="uni00AD" unicode="&#xad;" horiz-adv-x="407" 
d="M351 327v-118h-295v118h295z" />
    <glyph glyph-name="registered" unicode="&#xae;" horiz-adv-x="791" 
d="M377 352h22q38 0 52.5 15t14.5 36q0 23 -16 37t-51 14h-22v-102zM404 512q75 0 111 -27.5t36 -75.5q0 -33 -15 -54.5t-37 -30.5v-5q11 -42 32 -61t50 -19q35 0 56.5 27t21.5 90q0 45 -13 90t-43 81.5t-80 59.5t-124 23q-125 0 -191.5 -67.5t-66.5 -192.5q0 -81 26.5 -136
t67.5 -88.5t90.5 -47.5t96.5 -14q37 0 69.5 8.5t70.5 27.5l35 -59q-40 -26 -89 -40.5t-107 -14.5q-69 0 -134.5 21.5t-115.5 65.5t-80.5 110.5t-30.5 156.5q0 84 27.5 149t76.5 109.5t116 67t146 22.5q85 0 149.5 -25t108 -68.5t65.5 -102.5t22 -127q0 -58 -14.5 -96.5
t-38.5 -62t-54.5 -33t-61.5 -9.5q-56 0 -99.5 30t-62.5 100h-43v-65h27v-59h-142v59h30v225h-30v58h142z" />
    <glyph glyph-name="macron" unicode="&#xaf;" horiz-adv-x="384" 
d="M334 679v-105h-284v105h284z" />
    <glyph glyph-name="degree" unicode="&#xb0;" horiz-adv-x="360" 
d="M56 567q0 27 9 49t25.5 38t39.5 25t50 9t49.5 -9t39 -25t26 -38t9.5 -49t-9.5 -49t-26 -38t-39 -25t-49.5 -9t-50 9t-39.5 25t-25.5 38t-9 49zM180 614q-19 0 -30.5 -13.5t-11.5 -33.5t11 -34t31 -14t31 14t11 34t-11.5 33.5t-30.5 13.5z" />
    <glyph glyph-name="plusminus" unicode="&#xb1;" horiz-adv-x="709" 
d="M295 341v150h119v-150h190v-119h-190v-150h-119v150h-190v119h190zM604 -14v-119h-499v119h499z" />
    <glyph glyph-name="twosuperior" unicode="&#xb2;" horiz-adv-x="362" 
d="M137 654h-86v112q25 9 55 15.5t59 6.5q63 0 104 -31t41 -90q0 -34 -13.5 -67t-34 -62.5t-45.5 -54.5t-48 -44l2 -6l42 11h109v-74h-282v69q24 19 52 45t52 55.5t40 60.5t16 60q0 26 -12.5 40t-35.5 14h-15v-60z" />
    <glyph glyph-name="threesuperior" unicode="&#xb3;" horiz-adv-x="360" 
d="M134 664h-86v103q61 21 117 21q61 0 100 -24.5t39 -78.5q0 -29 -12.5 -50.5t-34.5 -35.5v-6q29 -11 43.5 -39.5t14.5 -63.5q0 -33 -12 -57t-33.5 -40.5t-51 -24.5t-64.5 -8q-30 0 -56.5 6t-52.5 17v72q26 -8 50.5 -14.5t44.5 -6.5q29 0 47 14t18 40t-17 40t-44 14h-34v72
h34q26 0 40.5 15.5t14.5 40.5q0 44 -50 44h-15v-50z" />
    <glyph glyph-name="acute" unicode="&#xb4;" horiz-adv-x="329" 
d="M109 754q16 30 33.5 42t38.5 12q29 0 48.5 -18.5t19.5 -47.5q0 -16 -7.5 -32t-27.5 -36l-119 -123l-67 52z" />
    <glyph glyph-name="mu" unicode="&#x3bc;" horiz-adv-x="644" 
d="M254 477v-280q0 -38 16.5 -57t43.5 -19q36 0 56 30t20 81v141h-60v104h230v-325q0 -26 14.5 -37t40.5 -11v-104q-11 -4 -26 -5.5t-29 -1.5q-52 0 -88.5 21.5t-44.5 65.5h-6q-8 -24 -23 -40.5t-33.5 -26.5t-38.5 -14t-38 -4q-14 0 -30.5 1.5t-21.5 3.5l-2 -5l20 -33v-82
h65v-104h-291v104h56v493h-55v104h225z" />
    <glyph glyph-name="mu" unicode="&#xb5;" horiz-adv-x="644" 
d="M254 477v-280q0 -38 16.5 -57t43.5 -19q36 0 56 30t20 81v141h-60v104h230v-325q0 -26 14.5 -37t40.5 -11v-104q-11 -4 -26 -5.5t-29 -1.5q-52 0 -88.5 21.5t-44.5 65.5h-6q-8 -24 -23 -40.5t-33.5 -26.5t-38.5 -14t-38 -4q-14 0 -30.5 1.5t-21.5 3.5l-2 -5l20 -33v-82
h65v-104h-291v104h56v493h-55v104h225z" />
    <glyph glyph-name="paragraph" unicode="&#xb6;" horiz-adv-x="739" 
d="M683 477v-104h-70v-493h70v-104h-174v597h-60v-597h-174v104h70v493h-60v-252h-24q-52 0 -90.5 14.5t-64 38.5t-38 56t-12.5 67q0 34 12.5 66.5t37.5 58t63 40.5t89 15h425z" />
    <glyph glyph-name="periodcentered" unicode="&#xb7;" horiz-adv-x="304" 
d="M152 416q37 0 59.5 -22.5t22.5 -57.5t-22.5 -57.5t-59.5 -22.5t-59.5 22.5t-22.5 57.5t22.5 57.5t59.5 22.5z" />
    <glyph glyph-name="cedilla" unicode="&#xb8;" horiz-adv-x="297" 
d="M179 0l-9 -42q31 -3 54.5 -26t23.5 -64q0 -26 -10.5 -45.5t-29 -33t-43.5 -20.5t-55 -7q-34 0 -59 9v65h19q59 0 59 37q0 19 -13.5 29t-45.5 10l19 88h90z" />
    <glyph glyph-name="onesuperior" unicode="&#xb9;" horiz-adv-x="361" 
d="M168 778h95v-336h55v-72h-226v72h65v228l-67 -49l-47 68z" />
    <glyph glyph-name="ordmasculine" unicode="&#xba;" horiz-adv-x="487" 
d="M243 688q40 0 74.5 -11t59.5 -32.5t39 -53.5t14 -74t-14 -75t-39 -55.5t-59.5 -34t-74.5 -11.5q-41 0 -75.5 11.5t-59 34t-38.5 55.5t-14 75t14 74t38.5 53.5t59 32.5t75.5 11zM243 603q-16 0 -26 -7.5t-15.5 -19.5t-7.5 -27.5t-2 -32.5t2 -33.5t7.5 -29t15.5 -20
t26 -7.5q15 0 25 7.5t15.5 20t7.5 29t2 33.5t-2 32.5t-7.5 27.5t-15.5 19.5t-25 7.5zM431 291v-80h-375v80h375z" />
    <glyph glyph-name="guillemotright" unicode="&#xbb;" horiz-adv-x="587" 
d="M133 451l161 -174v-70l-160 -175l-83 75l122 134l-123 135zM376 451l161 -174v-70l-160 -175l-83 75l122 134l-123 135z" />
    <glyph glyph-name="onequarter" unicode="&#xbc;" horiz-adv-x="894" 
d="M634 674l-304 -706l-70 32l304 707zM718 408q-3 -27 -7.5 -61.5t-10.5 -70t-12.5 -69t-13.5 -60.5l3 -4l27 4h28v111h99v-111h34v-71h-34v-76h-99v76h-167v71q7 27 13.5 61t12 69t10 69.5t7.5 61.5h110zM168 674h95v-336h55v-72h-226v72h65v228l-67 -49l-47 68z" />
    <glyph glyph-name="onehalf" unicode="&#xbd;" horiz-adv-x="894" 
d="M634 674l-304 -706l-70 32l304 707zM671 284h-86v112q25 9 55 15.5t59 6.5q63 0 104 -31t41 -90q0 -34 -13.5 -67t-34 -62.5t-45.5 -54.5t-48 -44l2 -6l42 11h109v-74h-282v69q24 19 52 45t52 55.5t40 60.5t16 60q0 26 -12.5 40t-35.5 14h-15v-60zM168 674h95v-336h55
v-72h-226v72h65v228l-67 -49l-47 68z" />
    <glyph glyph-name="threequarters" unicode="&#xbe;" horiz-adv-x="894" 
d="M634 674l-304 -706l-70 32l304 707zM718 408q-3 -27 -7.5 -61.5t-10.5 -70t-12.5 -69t-13.5 -60.5l3 -4l27 4h28v111h99v-111h34v-71h-34v-76h-99v76h-167v71q7 27 13.5 61t12 69t10 69.5t7.5 61.5h110zM134 560h-86v103q61 21 117 21q61 0 100 -24.5t39 -78.5
q0 -29 -12.5 -50.5t-34.5 -35.5v-6q29 -11 43.5 -39.5t14.5 -63.5q0 -33 -12 -57t-33.5 -40.5t-51 -24.5t-64.5 -8q-30 0 -56.5 6t-52.5 17v72q26 -8 50.5 -14.5t44.5 -6.5q29 0 47 14t18 40t-17 40t-44 14h-34v72h34q26 0 40.5 15.5t14.5 40.5q0 44 -50 44h-15v-50z" />
    <glyph glyph-name="questiondown" unicode="&#xbf;" horiz-adv-x="539" 
d="M356 256v-20q0 -65 -24 -112t-60 -90q-17 -20 -30 -40.5t-13 -45.5q0 -29 19.5 -45t52.5 -16q25 0 52 10v73h140v-154q-93 -54 -207 -54q-51 0 -95 11t-76 32.5t-50.5 53.5t-18.5 75q0 29 8.5 53.5t22.5 46.5t33 42.5t40 41.5q16 16 30 31.5t24 32t16 34.5t6 40h130z
M291 491q35 0 58.5 -22.5t23.5 -57.5t-23.5 -57.5t-58.5 -22.5t-58.5 22.5t-23.5 57.5t23.5 57.5t58.5 22.5z" />
    <glyph glyph-name="Agrave" unicode="&#xc0;" horiz-adv-x="806" 
d="M510 674l226 -559h50v-115h-333v115h80l-26 68h-236l-25 -68h80v-115h-306v115h50l170 444h-80v115h350zM371 460l-61 -169h155l-64 169l-12 45h-6zM422 803l-67 -52l-119 123q-20 20 -26.5 36t-6.5 31q0 30 19.5 48.5t48.5 18.5q23 0 39 -12.5t30 -38.5z" />
    <glyph glyph-name="Aacute" unicode="&#xc1;" horiz-adv-x="806" 
d="M510 674l226 -559h50v-115h-333v115h80l-26 68h-236l-25 -68h80v-115h-306v115h50l170 444h-80v115h350zM371 460l-61 -169h155l-64 169l-12 45h-6zM430 954q16 30 33.5 42t38.5 12q29 0 48.5 -18.5t19.5 -47.5q0 -16 -7.5 -32t-27.5 -36l-119 -123l-67 52z" />
    <glyph glyph-name="Acircumflex" unicode="&#xc2;" horiz-adv-x="806" 
d="M510 674l226 -559h50v-115h-333v115h80l-26 68h-236l-25 -68h80v-115h-306v115h50l170 444h-80v115h350zM371 460l-61 -169h155l-64 169l-12 45h-6zM308 961q18 24 36.5 34.5t42.5 10.5q23 0 40 -10.5t37 -34.5l124 -150l-60 -61l-142 112l-132 -112l-60 61z" />
    <glyph glyph-name="Atilde" unicode="&#xc3;" horiz-adv-x="806" 
d="M510 674l226 -559h50v-115h-333v115h80l-26 68h-236l-25 -68h80v-115h-306v115h50l170 444h-80v115h350zM371 460l-61 -169h155l-64 169l-12 45h-6zM262 774l-49 40q7 44 34.5 72t67.5 28q25 0 57 -13l77 -31l52 44l49 -40q-6 -43 -33.5 -72t-66.5 -29q-26 0 -59 14
l-76 31z" />
    <glyph glyph-name="Adieresis" unicode="&#xc4;" horiz-adv-x="806" 
d="M510 674l226 -559h50v-115h-333v115h80l-26 68h-236l-25 -68h80v-115h-306v115h50l170 444h-80v115h350zM371 460l-61 -169h155l-64 169l-12 45h-6zM269 928q36 0 58.5 -23.5t22.5 -64.5t-23 -63.5t-58 -22.5q-36 0 -58 22.5t-22 63.5t21.5 64.5t58.5 23.5zM500 928
q36 0 58.5 -23.5t22.5 -64.5t-22.5 -63.5t-58.5 -22.5t-58 22.5t-22 63.5t22 64.5t58 23.5z" />
    <glyph glyph-name="Aring" unicode="&#xc5;" horiz-adv-x="806" 
d="M510 674l226 -559h50v-115h-333v115h80l-26 68h-236l-25 -68h80v-115h-306v115h50l170 444h-80v115h350zM371 460l-61 -169h155l-64 169l-12 45h-6zM386 960q22 0 42 -8.5t34.5 -22.5t23 -33t8.5 -41t-8.5 -41t-23 -33.5t-34.5 -22.5t-42 -8q-23 0 -42.5 8t-34 22.5
t-23 33.5t-8.5 41t8.5 41t23 33t34 22.5t42.5 8.5zM386 890q-15 0 -24 -9.5t-9 -25.5q0 -17 9 -26.5t24 -9.5q14 0 23.5 9.5t9.5 26.5q0 16 -9.5 25.5t-23.5 9.5z" />
    <glyph glyph-name="AE" unicode="&#xc6;" horiz-adv-x="1099" 
d="M1050 674v-215h-150v100h-164v-152h164v-120h-164v-172h169v110h150v-225h-582v115h75v90h-227l-55 -90h75v-115h-321v115h65l283 444h-85v115h767zM392 325h156v234h-6z" />
    <glyph glyph-name="Ccedilla" unicode="&#xc7;" horiz-adv-x="679" 
d="M639 415h-150v148q-14 5 -30.5 7.5t-33.5 2.5q-39 0 -72 -15t-57 -43.5t-37.5 -70t-13.5 -93.5q0 -57 16 -102t46 -77t73.5 -49t97.5 -17q35 0 77 7.5t84 23.5v-113q-17 -7 -43 -14t-57 -12t-66 -8.5t-70 -3.5l-6 -28q31 -3 54.5 -26t23.5 -64q0 -26 -10.5 -45.5t-29 -33
t-43.5 -20.5t-55 -7q-34 0 -59 9v65h19q59 0 59 36q0 40 -59 40l19 85q-129 25 -202.5 110.5t-73.5 231.5q0 85 26 150.5t74.5 109.5t118 66.5t156.5 22.5q55 0 116 -10t108 -33v-230z" />
    <glyph glyph-name="Egrave" unicode="&#xc8;" horiz-adv-x="647" 
d="M598 674v-215h-150v100h-164v-152h164v-120h-164v-172h169v110h150v-225h-567v115h60v444h-60v115h562zM384 803l-67 -52l-119 123q-20 20 -26.5 36t-6.5 31q0 30 19.5 48.5t48.5 18.5q23 0 39 -12.5t30 -38.5z" />
    <glyph glyph-name="Eacute" unicode="&#xc9;" horiz-adv-x="647" 
d="M598 674v-215h-150v100h-164v-152h164v-120h-164v-172h169v110h150v-225h-567v115h60v444h-60v115h562zM335 954q16 30 33.5 42t38.5 12q29 0 48.5 -18.5t19.5 -47.5q0 -16 -7.5 -32t-27.5 -36l-119 -123l-67 52z" />
    <glyph glyph-name="Ecircumflex" unicode="&#xca;" horiz-adv-x="647" 
d="M598 674v-215h-150v100h-164v-152h164v-120h-164v-172h169v110h150v-225h-567v115h60v444h-60v115h562zM240 961q18 24 36.5 34.5t42.5 10.5q23 0 40 -10.5t37 -34.5l124 -150l-60 -61l-142 112l-132 -112l-60 61z" />
    <glyph glyph-name="Edieresis" unicode="&#xcb;" horiz-adv-x="647" 
d="M598 674v-215h-150v100h-164v-152h164v-120h-164v-172h169v110h150v-225h-567v115h60v444h-60v115h562zM207 928q36 0 58.5 -23.5t22.5 -64.5t-23 -63.5t-58 -22.5q-36 0 -58 22.5t-22 63.5t21.5 64.5t58.5 23.5zM438 928q36 0 58.5 -23.5t22.5 -64.5t-22.5 -63.5
t-58.5 -22.5t-58 22.5t-22 63.5t22 64.5t58 23.5z" />
    <glyph glyph-name="Igrave" unicode="&#xcc;" horiz-adv-x="380" 
d="M344 674v-115h-60v-444h60v-115h-308v115h60v444h-60v115h308zM228 803l-67 -52l-119 123q-20 20 -26.5 36t-6.5 31q0 30 19.5 48.5t48.5 18.5q23 0 39 -12.5t30 -38.5z" />
    <glyph glyph-name="Iacute" unicode="&#xcd;" horiz-adv-x="380" 
d="M344 674v-115h-60v-444h60v-115h-308v115h60v444h-60v115h308zM236 954q16 30 33.5 42t38.5 12q29 0 48.5 -18.5t19.5 -47.5q0 -16 -7.5 -32t-27.5 -36l-119 -123l-67 52z" />
    <glyph glyph-name="Icircumflex" unicode="&#xce;" horiz-adv-x="380" 
d="M344 674v-115h-60v-444h60v-115h-308v115h60v444h-60v115h308zM112 961q18 24 36.5 34.5t42.5 10.5q23 0 40 -10.5t37 -34.5l124 -150l-60 -61l-142 112l-132 -112l-60 61z" />
    <glyph glyph-name="Idieresis" unicode="&#xcf;" horiz-adv-x="380" 
d="M344 674v-115h-60v-444h60v-115h-308v115h60v444h-60v115h308zM74 928q36 0 58.5 -23.5t22.5 -64.5t-23 -63.5t-58 -22.5q-36 0 -58 22.5t-22 63.5t21.5 64.5t58.5 23.5zM305 928q36 0 58.5 -23.5t22.5 -64.5t-22.5 -63.5t-58.5 -22.5t-58 22.5t-22 63.5t22 64.5t58 23.5
z" />
    <glyph glyph-name="Eth" unicode="&#xd0;" horiz-adv-x="775" 
d="M347 674q86 0 157.5 -22t122.5 -64.5t79.5 -105.5t28.5 -144t-28.5 -144t-79.5 -106t-122.5 -65.5t-157.5 -22.5h-311v115h60v172h-60v110h60v162h-60v115h311zM284 397h110v-110h-110v-172h53q49 0 85.5 16t61 45t37 70t12.5 92q0 103 -49.5 162t-146.5 59h-53v-162z
" />
    <glyph glyph-name="Ntilde" unicode="&#xd1;" horiz-adv-x="796" 
d="M283 674l252 -392l5 2l-10 68v207h-60v115h290v-115h-60v-559h-195l-244 381l-5 -2l10 -68v-196h60v-115h-290v115h60v444h-60v115h247zM251 774l-49 40q7 44 34.5 72t67.5 28q25 0 57 -13l77 -31l52 44l49 -40q-6 -43 -33.5 -72t-66.5 -29q-26 0 -59 14l-76 31z" />
    <glyph glyph-name="Ograve" unicode="&#xd2;" horiz-adv-x="816" 
d="M408 573q-46 0 -77.5 -17t-50.5 -48t-27 -74.5t-8 -96.5t8 -96.5t27 -74.5t50 -48t78 -17q46 0 77.5 17t50.5 48t27 74.5t8 96.5t-8 96.5t-27 74.5t-50.5 48t-77.5 17zM408 688q86 0 154.5 -23t116 -67.5t72.5 -110t25 -150.5t-25 -150.5t-72.5 -110t-115.5 -67.5
t-155 -23t-155 23t-115.5 67.5t-72.5 110t-25 150.5t25 150.5t72.5 110t116 67.5t154.5 23zM443 803l-67 -52l-119 123q-20 20 -26.5 36t-6.5 31q0 30 19.5 48.5t48.5 18.5q23 0 39 -12.5t30 -38.5z" />
    <glyph glyph-name="Oacute" unicode="&#xd3;" horiz-adv-x="816" 
d="M408 573q-46 0 -77.5 -17t-50.5 -48t-27 -74.5t-8 -96.5t8 -96.5t27 -74.5t50 -48t78 -17q46 0 77.5 17t50.5 48t27 74.5t8 96.5t-8 96.5t-27 74.5t-50.5 48t-77.5 17zM408 688q86 0 154.5 -23t116 -67.5t72.5 -110t25 -150.5t-25 -150.5t-72.5 -110t-115.5 -67.5
t-155 -23t-155 23t-115.5 67.5t-72.5 110t-25 150.5t25 150.5t72.5 110t116 67.5t154.5 23zM451 954q16 30 33.5 42t38.5 12q29 0 48.5 -18.5t19.5 -47.5q0 -16 -7.5 -32t-27.5 -36l-119 -123l-67 52z" />
    <glyph glyph-name="Ocircumflex" unicode="&#xd4;" horiz-adv-x="816" 
d="M408 573q-46 0 -77.5 -17t-50.5 -48t-27 -74.5t-8 -96.5t8 -96.5t27 -74.5t50 -48t78 -17q46 0 77.5 17t50.5 48t27 74.5t8 96.5t-8 96.5t-27 74.5t-50.5 48t-77.5 17zM408 688q86 0 154.5 -23t116 -67.5t72.5 -110t25 -150.5t-25 -150.5t-72.5 -110t-115.5 -67.5
t-155 -23t-155 23t-115.5 67.5t-72.5 110t-25 150.5t25 150.5t72.5 110t116 67.5t154.5 23zM325 961q18 24 36.5 34.5t42.5 10.5q23 0 40 -10.5t37 -34.5l124 -150l-60 -61l-142 112l-132 -112l-60 61z" />
    <glyph glyph-name="Otilde" unicode="&#xd5;" horiz-adv-x="816" 
d="M408 573q-46 0 -77.5 -17t-50.5 -48t-27 -74.5t-8 -96.5t8 -96.5t27 -74.5t50 -48t78 -17q46 0 77.5 17t50.5 48t27 74.5t8 96.5t-8 96.5t-27 74.5t-50.5 48t-77.5 17zM408 688q86 0 154.5 -23t116 -67.5t72.5 -110t25 -150.5t-25 -150.5t-72.5 -110t-115.5 -67.5
t-155 -23t-155 23t-115.5 67.5t-72.5 110t-25 150.5t25 150.5t72.5 110t116 67.5t154.5 23zM283 774l-49 40q7 44 34.5 72t67.5 28q25 0 57 -13l77 -31l52 44l49 -40q-6 -43 -33.5 -72t-66.5 -29q-26 0 -59 14l-76 31z" />
    <glyph glyph-name="Odieresis" unicode="&#xd6;" horiz-adv-x="816" 
d="M408 573q-46 0 -77.5 -17t-50.5 -48t-27 -74.5t-8 -96.5t8 -96.5t27 -74.5t50 -48t78 -17q46 0 77.5 17t50.5 48t27 74.5t8 96.5t-8 96.5t-27 74.5t-50.5 48t-77.5 17zM408 688q86 0 154.5 -23t116 -67.5t72.5 -110t25 -150.5t-25 -150.5t-72.5 -110t-115.5 -67.5
t-155 -23t-155 23t-115.5 67.5t-72.5 110t-25 150.5t25 150.5t72.5 110t116 67.5t154.5 23zM278 928q36 0 58.5 -23.5t22.5 -64.5t-23 -63.5t-58 -22.5q-36 0 -58 22.5t-22 63.5t21.5 64.5t58.5 23.5zM509 928q36 0 58.5 -23.5t22.5 -64.5t-22.5 -63.5t-58.5 -22.5t-58 22.5
t-22 63.5t22 64.5t58 23.5z" />
    <glyph glyph-name="multiply" unicode="&#xd7;" horiz-adv-x="709" 
d="M354 324l134 134l78 -78l-134 -134l134 -134l-78 -78l-134 134l-134 -134l-78 78l134 134l-134 134l78 78z" />
    <glyph glyph-name="Oslash" unicode="&#xd8;" horiz-adv-x="816" 
d="M620 743l-36 -88q91 -39 141.5 -120t50.5 -197q0 -82 -25.5 -147t-73 -110.5t-115.5 -70t-152 -24.5q-26 0 -48 2t-42 6l-39 -98l-89 35l36 90q-91 40 -139.5 121t-48.5 196q0 82 25.5 147t73.5 110t116 69t154 24q21 0 42 -1.5t41 -5.5l39 97zM447 569q-9 2 -18.5 3
t-23.5 1q-48 0 -79 -17.5t-49 -49t-25 -74t-7 -92.5q0 -60 8.5 -106t28.5 -78zM364 105q10 -2 21 -3t22 -1q50 0 82 17.5t50 48.5t25 73.5t7 92.5q0 63 -9.5 109.5t-30.5 78.5z" />
    <glyph glyph-name="Ugrave" unicode="&#xd9;" horiz-adv-x="792" 
d="M357 674v-115h-75v-256q0 -33 3.5 -67t16.5 -62t38.5 -46t69.5 -18q40 0 64 15.5t36.5 41.5t16 61t3.5 74v257h-75v115h303v-115h-60v-267q0 -156 -70 -231t-229 -75q-156 0 -230.5 73.5t-74.5 233.5v266h-60v115h323zM435 803l-67 -52l-119 123q-20 20 -26.5 36t-6.5 31
q0 30 19.5 48.5t48.5 18.5q23 0 39 -12.5t30 -38.5z" />
    <glyph glyph-name="Uacute" unicode="&#xda;" horiz-adv-x="792" 
d="M357 674v-115h-75v-256q0 -33 3.5 -67t16.5 -62t38.5 -46t69.5 -18q40 0 64 15.5t36.5 41.5t16 61t3.5 74v257h-75v115h303v-115h-60v-267q0 -156 -70 -231t-229 -75q-156 0 -230.5 73.5t-74.5 233.5v266h-60v115h323zM443 954q16 30 33.5 42t38.5 12q29 0 48.5 -18.5
t19.5 -47.5q0 -16 -7.5 -32t-27.5 -36l-119 -123l-67 52z" />
    <glyph glyph-name="Ucircumflex" unicode="&#xdb;" horiz-adv-x="792" 
d="M357 674v-115h-75v-256q0 -33 3.5 -67t16.5 -62t38.5 -46t69.5 -18q40 0 64 15.5t36.5 41.5t16 61t3.5 74v257h-75v115h303v-115h-60v-267q0 -156 -70 -231t-229 -75q-156 0 -230.5 73.5t-74.5 233.5v266h-60v115h323zM318 961q18 24 36.5 34.5t42.5 10.5q23 0 40 -10.5
t37 -34.5l124 -150l-60 -61l-142 112l-132 -112l-60 61z" />
    <glyph glyph-name="Udieresis" unicode="&#xdc;" horiz-adv-x="792" 
d="M357 674v-115h-75v-256q0 -33 3.5 -67t16.5 -62t38.5 -46t69.5 -18q40 0 64 15.5t36.5 41.5t16 61t3.5 74v257h-75v115h303v-115h-60v-267q0 -156 -70 -231t-229 -75q-156 0 -230.5 73.5t-74.5 233.5v266h-60v115h323zM288 928q36 0 58.5 -23.5t22.5 -64.5t-23 -63.5
t-58 -22.5q-36 0 -58 22.5t-22 63.5t21.5 64.5t58.5 23.5zM519 928q36 0 58.5 -23.5t22.5 -64.5t-22.5 -63.5t-58.5 -22.5t-58 22.5t-22 63.5t22 64.5t58 23.5z" />
    <glyph glyph-name="Yacute" unicode="&#xdd;" horiz-adv-x="783" 
d="M350 674v-115h-69l-2 -5l22 -24l97 -142h5l99 142l23 24l-2 5h-69v115h309v-115h-50l-230 -309v-135h80v-115h-348v115h80v135l-225 309h-50v115h330zM445 954q16 30 33.5 42t38.5 12q29 0 48.5 -18.5t19.5 -47.5q0 -16 -7.5 -32t-27.5 -36l-119 -123l-67 52z" />
    <glyph glyph-name="Thorn" unicode="&#xde;" horiz-adv-x="673" 
d="M284 674v-70h74q60 0 110.5 -12t87 -36t57 -61t20.5 -87t-20.5 -88t-57 -63t-87 -37.5t-110.5 -12.5h-74v-92h90v-115h-338v115h60v444h-60v115h248zM284 320h58q54 0 78.5 25.5t24.5 61.5q0 38 -25 61t-78 23h-58v-171z" />
    <glyph glyph-name="germandbls" unicode="&#xdf;" horiz-adv-x="666" 
d="M276 0h-245v104h75v223h-80v110h80v39q0 63 18 110.5t50.5 79t79 47t103.5 15.5q109 0 168.5 -51.5t59.5 -138.5q0 -51 -17.5 -89t-39.5 -56v-6q52 -26 76 -69.5t24 -99.5q0 -45 -15.5 -85t-45.5 -69.5t-75 -46.5t-105 -17h-60v104h20q50 0 80 32t30 83q0 52 -31 80
t-79 28h-20v110h82q11 16 18.5 41t7.5 49q0 42 -22.5 64t-54.5 22q-34 0 -58 -27t-24 -87v-499z" />
    <glyph glyph-name="agrave" unicode="&#xe0;" horiz-adv-x="602" 
d="M282 197q-27 0 -45 -12t-18 -35q0 -19 13.5 -31.5t41.5 -12.5q39 0 61.5 25t22.5 61v5h-76zM220 326h-143v126q48 20 108.5 29.5t110.5 9.5q52 0 93 -11t69.5 -34t44 -59t15.5 -86v-149q0 -26 14.5 -37t40.5 -11v-104q-11 -4 -26 -5.5t-29 -1.5q-52 0 -88 21.5t-44 65.5
h-6q-21 -43 -59.5 -68.5t-99.5 -25.5q-34 0 -65.5 9t-55.5 27t-38 45t-14 64q0 43 19.5 73.5t52.5 50t76.5 28.5t92.5 9h64v10q0 45 -22 62t-60 17q-9 0 -23.5 -1t-27.5 -5v-49zM337 603l-67 -52l-119 123q-20 20 -26.5 36t-6.5 31q0 30 19.5 48.5t48.5 18.5q23 0 39 -12.5
t30 -38.5z" />
    <glyph glyph-name="aacute" unicode="&#xe1;" horiz-adv-x="602" 
d="M282 197q-27 0 -45 -12t-18 -35q0 -19 13.5 -31.5t41.5 -12.5q39 0 61.5 25t22.5 61v5h-76zM220 326h-143v126q48 20 108.5 29.5t110.5 9.5q52 0 93 -11t69.5 -34t44 -59t15.5 -86v-149q0 -26 14.5 -37t40.5 -11v-104q-11 -4 -26 -5.5t-29 -1.5q-52 0 -88 21.5t-44 65.5
h-6q-21 -43 -59.5 -68.5t-99.5 -25.5q-34 0 -65.5 9t-55.5 27t-38 45t-14 64q0 43 19.5 73.5t52.5 50t76.5 28.5t92.5 9h64v10q0 45 -22 62t-60 17q-9 0 -23.5 -1t-27.5 -5v-49zM325 754q16 30 33.5 42t38.5 12q29 0 48.5 -18.5t19.5 -47.5q0 -16 -7.5 -32t-27.5 -36
l-119 -123l-67 52z" />
    <glyph glyph-name="acircumflex" unicode="&#xe2;" horiz-adv-x="602" 
d="M282 197q-27 0 -45 -12t-18 -35q0 -19 13.5 -31.5t41.5 -12.5q39 0 61.5 25t22.5 61v5h-76zM220 326h-143v126q48 20 108.5 29.5t110.5 9.5q52 0 93 -11t69.5 -34t44 -59t15.5 -86v-149q0 -26 14.5 -37t40.5 -11v-104q-11 -4 -26 -5.5t-29 -1.5q-52 0 -88 21.5t-44 65.5
h-6q-21 -43 -59.5 -68.5t-99.5 -25.5q-34 0 -65.5 9t-55.5 27t-38 45t-14 64q0 43 19.5 73.5t52.5 50t76.5 28.5t92.5 9h64v10q0 45 -22 62t-60 17q-9 0 -23.5 -1t-27.5 -5v-49zM205 761q18 24 36.5 34.5t42.5 10.5q23 0 40 -10.5t37 -34.5l124 -150l-60 -61l-142 112
l-132 -112l-60 61z" />
    <glyph glyph-name="atilde" unicode="&#xe3;" horiz-adv-x="602" 
d="M282 197q-27 0 -45 -12t-18 -35q0 -19 13.5 -31.5t41.5 -12.5q39 0 61.5 25t22.5 61v5h-76zM220 326h-143v126q48 20 108.5 29.5t110.5 9.5q52 0 93 -11t69.5 -34t44 -59t15.5 -86v-149q0 -26 14.5 -37t40.5 -11v-104q-11 -4 -26 -5.5t-29 -1.5q-52 0 -88 21.5t-44 65.5
h-6q-21 -43 -59.5 -68.5t-99.5 -25.5q-34 0 -65.5 9t-55.5 27t-38 45t-14 64q0 43 19.5 73.5t52.5 50t76.5 28.5t92.5 9h64v10q0 45 -22 62t-60 17q-9 0 -23.5 -1t-27.5 -5v-49zM172 574l-49 40q7 44 34.5 72t67.5 28q25 0 57 -13l77 -31l52 44l49 -40q-6 -43 -33.5 -72
t-66.5 -29q-26 0 -59 14l-76 31z" />
    <glyph glyph-name="adieresis" unicode="&#xe4;" horiz-adv-x="602" 
d="M282 197q-27 0 -45 -12t-18 -35q0 -19 13.5 -31.5t41.5 -12.5q39 0 61.5 25t22.5 61v5h-76zM220 326h-143v126q48 20 108.5 29.5t110.5 9.5q52 0 93 -11t69.5 -34t44 -59t15.5 -86v-149q0 -26 14.5 -37t40.5 -11v-104q-11 -4 -26 -5.5t-29 -1.5q-52 0 -88 21.5t-44 65.5
h-6q-21 -43 -59.5 -68.5t-99.5 -25.5q-34 0 -65.5 9t-55.5 27t-38 45t-14 64q0 43 19.5 73.5t52.5 50t76.5 28.5t92.5 9h64v10q0 45 -22 62t-60 17q-9 0 -23.5 -1t-27.5 -5v-49zM175 728q36 0 58.5 -23.5t22.5 -64.5t-23 -63.5t-58 -22.5q-36 0 -58 22.5t-22 63.5t21.5 64.5
t58.5 23.5zM406 728q36 0 58.5 -23.5t22.5 -64.5t-22.5 -63.5t-58.5 -22.5t-58 22.5t-22 63.5t22 64.5t58 23.5z" />
    <glyph glyph-name="aring" unicode="&#xe5;" horiz-adv-x="602" 
d="M282 197q-27 0 -45 -12t-18 -35q0 -19 13.5 -31.5t41.5 -12.5q39 0 61.5 25t22.5 61v5h-76zM220 326h-143v126q48 20 108.5 29.5t110.5 9.5q52 0 93 -11t69.5 -34t44 -59t15.5 -86v-149q0 -26 14.5 -37t40.5 -11v-104q-11 -4 -26 -5.5t-29 -1.5q-52 0 -88 21.5t-44 65.5
h-6q-21 -43 -59.5 -68.5t-99.5 -25.5q-34 0 -65.5 9t-55.5 27t-38 45t-14 64q0 43 19.5 73.5t52.5 50t76.5 28.5t92.5 9h64v10q0 45 -22 62t-60 17q-9 0 -23.5 -1t-27.5 -5v-49zM276 760q22 0 42 -8.5t34.5 -22.5t23 -33t8.5 -41t-8.5 -41t-23 -33.5t-34.5 -22.5t-42 -8
q-23 0 -42.5 8t-34 22.5t-23 33.5t-8.5 41t8.5 41t23 33t34 22.5t42.5 8.5zM276 690q-15 0 -24 -9.5t-9 -25.5q0 -17 9 -26.5t24 -9.5q14 0 23.5 9.5t9.5 26.5q0 16 -9.5 25.5t-23.5 9.5z" />
    <glyph glyph-name="ae" unicode="&#xe6;" horiz-adv-x="886" 
d="M219 326h-143v126q47 20 98.5 29.5t96.5 9.5q62 0 110 -19t75 -60h6q15 20 35.5 35t44.5 24.5t50 14.5t51 5q37 0 73.5 -11t65.5 -35t47.5 -63t18.5 -96q0 -24 -3.5 -48.5t-11.5 -46.5h-290q7 -24 22.5 -42t36.5 -30t46.5 -17.5t52.5 -5.5q36 0 68 8.5t51 19.5v-110
q-24 -11 -60.5 -19.5t-87.5 -8.5q-69 0 -129.5 20t-93.5 63h-6q-29 -37 -85 -60t-122 -23q-39 0 -73.5 9t-60 26.5t-40 44.5t-14.5 63q0 38 16.5 66.5t45 47t68 28t85.5 9.5h106q0 49 -26 75t-74 26q-11 0 -25.5 -1.5t-24.5 -4.5v-49zM708 280q0 49 -19.5 75t-61.5 26
q-79 0 -79 -101h160zM268 191q-32 0 -51 -11t-19 -36q0 -22 16 -35t48 -13q45 0 76 25t31 70h-101z" />
    <glyph glyph-name="ccedilla" unicode="&#xe7;" horiz-adv-x="534" 
d="M496 282h-138v87q-22 7 -44 7q-27 0 -46 -9.5t-31.5 -26t-18 -38.5t-5.5 -46q0 -39 13 -67.5t34.5 -47.5t49.5 -28t58 -9q31 0 65 7t63 21v-118q-14 -5 -34 -10t-42.5 -9t-45.5 -6.5t-43 -2.5l-6 -27q32 -3 52 -28t20 -63q0 -51 -36.5 -78.5t-96.5 -27.5q-34 0 -59 9v65
h19q59 0 59 36q0 40 -59 40l19 84q-45 10 -83 30.5t-65 51t-42 70.5t-15 89q0 64 21.5 112t59 79.5t88.5 47t111 15.5q54 0 98 -11t80 -28v-170z" />
    <glyph glyph-name="egrave" unicode="&#xe8;" horiz-adv-x="564" 
d="M216 191q12 -45 54 -66t99 -21q67 0 118 28v-118q-23 -11 -59 -19.5t-91 -8.5q-64 0 -118.5 14t-94.5 44.5t-63 79t-23 118.5q0 117 64.5 183t186.5 66q51 0 94 -12.5t75 -37.5t50 -63.5t18 -90.5q0 -26 -4 -50t-11 -46h-295zM367 280q0 45 -19 73t-61 28t-61 -28
t-19 -73h160zM349 603l-67 -52l-119 123q-20 20 -26.5 36t-6.5 31q0 30 19.5 48.5t48.5 18.5q23 0 39 -12.5t30 -38.5z" />
    <glyph glyph-name="eacute" unicode="&#xe9;" horiz-adv-x="564" 
d="M216 191q12 -45 54 -66t99 -21q67 0 118 28v-118q-23 -11 -59 -19.5t-91 -8.5q-64 0 -118.5 14t-94.5 44.5t-63 79t-23 118.5q0 117 64.5 183t186.5 66q51 0 94 -12.5t75 -37.5t50 -63.5t18 -90.5q0 -26 -4 -50t-11 -46h-295zM367 280q0 45 -19 73t-61 28t-61 -28
t-19 -73h160zM296 754q16 30 33.5 42t38.5 12q29 0 48.5 -18.5t19.5 -47.5q0 -16 -7.5 -32t-27.5 -36l-119 -123l-67 52z" />
    <glyph glyph-name="ecircumflex" unicode="&#xea;" horiz-adv-x="564" 
d="M216 191q12 -45 54 -66t99 -21q67 0 118 28v-118q-23 -11 -59 -19.5t-91 -8.5q-64 0 -118.5 14t-94.5 44.5t-63 79t-23 118.5q0 117 64.5 183t186.5 66q51 0 94 -12.5t75 -37.5t50 -63.5t18 -90.5q0 -26 -4 -50t-11 -46h-295zM367 280q0 45 -19 73t-61 28t-61 -28
t-19 -73h160zM204 761q18 24 36.5 34.5t42.5 10.5q23 0 40 -10.5t37 -34.5l124 -150l-60 -61l-142 112l-132 -112l-60 61z" />
    <glyph glyph-name="edieresis" unicode="&#xeb;" horiz-adv-x="564" 
d="M216 191q12 -45 54 -66t99 -21q67 0 118 28v-118q-23 -11 -59 -19.5t-91 -8.5q-64 0 -118.5 14t-94.5 44.5t-63 79t-23 118.5q0 117 64.5 183t186.5 66q51 0 94 -12.5t75 -37.5t50 -63.5t18 -90.5q0 -26 -4 -50t-11 -46h-295zM367 280q0 45 -19 73t-61 28t-61 -28
t-19 -73h160zM166 728q36 0 58.5 -23.5t22.5 -64.5t-23 -63.5t-58 -22.5q-36 0 -58 22.5t-22 63.5t21.5 64.5t58.5 23.5zM397 728q36 0 58.5 -23.5t22.5 -64.5t-22.5 -63.5t-58.5 -22.5t-58 22.5t-22 63.5t22 64.5t58 23.5z" />
    <glyph glyph-name="igrave" unicode="&#xec;" horiz-adv-x="363" 
d="M268 477v-373h70v-104h-305v104h65v269h-65v104h235zM242 603l-67 -52l-119 123q-20 20 -26.5 36t-6.5 31q0 30 19.5 48.5t48.5 18.5q23 0 39 -12.5t30 -38.5z" />
    <glyph glyph-name="iacute" unicode="&#xed;" horiz-adv-x="363" 
d="M268 477v-373h70v-104h-305v104h65v269h-65v104h235zM208 754q16 30 33.5 42t38.5 12q29 0 48.5 -18.5t19.5 -47.5q0 -16 -7.5 -32t-27.5 -36l-119 -123l-67 52z" />
    <glyph glyph-name="icircumflex" unicode="&#xee;" horiz-adv-x="363" 
d="M268 477v-373h70v-104h-305v104h65v269h-65v104h235zM98 761q18 24 36.5 34.5t42.5 10.5q23 0 40 -10.5t37 -34.5l124 -150l-60 -61l-142 112l-132 -112l-60 61z" />
    <glyph glyph-name="idieresis" unicode="&#xef;" horiz-adv-x="363" 
d="M268 477v-373h70v-104h-305v104h65v269h-65v104h235zM55 728q36 0 58.5 -23.5t22.5 -64.5t-23 -63.5t-58 -22.5q-36 0 -58 22.5t-22 63.5t21.5 64.5t58.5 23.5zM286 728q36 0 58.5 -23.5t22.5 -64.5t-22.5 -63.5t-58.5 -22.5t-58 22.5t-22 63.5t22 64.5t58 23.5z" />
    <glyph glyph-name="eth" unicode="&#xf0;" horiz-adv-x="574" 
d="M112 688q39 -3 71 -7.5t64 -13.5l27 74l97 -35l-28 -77q54 -28 91 -67.5t59.5 -86t32.5 -97.5t10 -103q0 -145 -66.5 -217t-185.5 -72q-53 0 -98 14.5t-78 42.5t-51.5 69t-18.5 95q0 53 17.5 90.5t46.5 61.5t66 35.5t76 11.5q49 0 91.5 -16.5t62.5 -45.5h6
q0 24 -8.5 49.5t-23 48.5t-33.5 41.5t-39 27.5l-24 -66l-97 35l27 75q-22 6 -48 10t-56 6zM288 291q-37 0 -58.5 -23.5t-21.5 -69.5q0 -48 23 -72.5t61 -24.5q37 0 58 23.5t21 69.5q0 48 -22.5 72.5t-60.5 24.5z" />
    <glyph glyph-name="ntilde" unicode="&#xf1;" horiz-adv-x="653" 
d="M254 477v-40l-20 -70h8q10 22 25.5 44.5t37.5 40t51.5 28.5t67.5 11q72 0 108.5 -43.5t36.5 -136.5v-207h55v-104h-225v290q0 31 -13 48.5t-38 17.5q-16 0 -31.5 -7.5t-27.5 -21.5t-19 -33.5t-7 -43.5v-146h60v-104h-285v104h55v269h-60v104h221zM207 574l-49 40
q7 44 34.5 72t67.5 28q25 0 57 -13l77 -31l52 44l49 -40q-6 -43 -33.5 -72t-66.5 -29q-26 0 -59 14l-76 31z" />
    <glyph glyph-name="ograve" unicode="&#xf2;" horiz-adv-x="616" 
d="M308 491q60 0 109.5 -16.5t85.5 -48t55.5 -78t19.5 -106.5t-19.5 -107.5t-55.5 -80.5t-85.5 -50.5t-109.5 -17.5t-109.5 17.5t-85.5 50.5t-55.5 80.5t-19.5 107.5t19.5 106.5t55.5 78t85.5 48t109.5 16.5zM308 376q-53 0 -74 -38t-21 -98q0 -30 5 -55.5t16 -44t29.5 -29
t44.5 -10.5q52 0 73.5 39.5t21.5 99.5t-21 98t-74 38zM344 603l-67 -52l-119 123q-20 20 -26.5 36t-6.5 31q0 30 19.5 48.5t48.5 18.5q23 0 39 -12.5t30 -38.5z" />
    <glyph glyph-name="oacute" unicode="&#xf3;" horiz-adv-x="616" 
d="M308 491q60 0 109.5 -16.5t85.5 -48t55.5 -78t19.5 -106.5t-19.5 -107.5t-55.5 -80.5t-85.5 -50.5t-109.5 -17.5t-109.5 17.5t-85.5 50.5t-55.5 80.5t-19.5 107.5t19.5 106.5t55.5 78t85.5 48t109.5 16.5zM308 376q-53 0 -74 -38t-21 -98q0 -30 5 -55.5t16 -44t29.5 -29
t44.5 -10.5q52 0 73.5 39.5t21.5 99.5t-21 98t-74 38zM352 754q16 30 33.5 42t38.5 12q29 0 48.5 -18.5t19.5 -47.5q0 -16 -7.5 -32t-27.5 -36l-119 -123l-67 52z" />
    <glyph glyph-name="ocircumflex" unicode="&#xf4;" horiz-adv-x="616" 
d="M308 491q60 0 109.5 -16.5t85.5 -48t55.5 -78t19.5 -106.5t-19.5 -107.5t-55.5 -80.5t-85.5 -50.5t-109.5 -17.5t-109.5 17.5t-85.5 50.5t-55.5 80.5t-19.5 107.5t19.5 106.5t55.5 78t85.5 48t109.5 16.5zM308 376q-53 0 -74 -38t-21 -98q0 -30 5 -55.5t16 -44t29.5 -29
t44.5 -10.5q52 0 73.5 39.5t21.5 99.5t-21 98t-74 38zM230 761q18 24 36.5 34.5t42.5 10.5q23 0 40 -10.5t37 -34.5l124 -150l-60 -61l-142 112l-132 -112l-60 61z" />
    <glyph glyph-name="otilde" unicode="&#xf5;" horiz-adv-x="616" 
d="M308 491q60 0 109.5 -16.5t85.5 -48t55.5 -78t19.5 -106.5t-19.5 -107.5t-55.5 -80.5t-85.5 -50.5t-109.5 -17.5t-109.5 17.5t-85.5 50.5t-55.5 80.5t-19.5 107.5t19.5 106.5t55.5 78t85.5 48t109.5 16.5zM308 376q-53 0 -74 -38t-21 -98q0 -30 5 -55.5t16 -44t29.5 -29
t44.5 -10.5q52 0 73.5 39.5t21.5 99.5t-21 98t-74 38zM189 574l-49 40q7 44 34.5 72t67.5 28q25 0 57 -13l77 -31l52 44l49 -40q-6 -43 -33.5 -72t-66.5 -29q-26 0 -59 14l-76 31z" />
    <glyph glyph-name="odieresis" unicode="&#xf6;" horiz-adv-x="616" 
d="M308 491q60 0 109.5 -16.5t85.5 -48t55.5 -78t19.5 -106.5t-19.5 -107.5t-55.5 -80.5t-85.5 -50.5t-109.5 -17.5t-109.5 17.5t-85.5 50.5t-55.5 80.5t-19.5 107.5t19.5 106.5t55.5 78t85.5 48t109.5 16.5zM308 376q-53 0 -74 -38t-21 -98q0 -30 5 -55.5t16 -44t29.5 -29
t44.5 -10.5q52 0 73.5 39.5t21.5 99.5t-21 98t-74 38zM192 728q36 0 58.5 -23.5t22.5 -64.5t-23 -63.5t-58 -22.5q-36 0 -58 22.5t-22 63.5t21.5 64.5t58.5 23.5zM423 728q36 0 58.5 -23.5t22.5 -64.5t-22.5 -63.5t-58.5 -22.5t-58 22.5t-22 63.5t22 64.5t58 23.5z" />
    <glyph glyph-name="divide" unicode="&#xf7;" horiz-adv-x="709" 
d="M354 116q33 0 53.5 -18.5t20.5 -46.5t-20.5 -46.5t-53.5 -18.5t-53.5 18.5t-20.5 46.5t20.5 46.5t53.5 18.5zM354 491q33 0 53.5 -18.5t20.5 -46.5t-20.5 -46.5t-53.5 -18.5t-53.5 18.5t-20.5 46.5t20.5 46.5t53.5 18.5zM604 306v-119h-499v119h499z" />
    <glyph glyph-name="oslash" unicode="&#xf8;" horiz-adv-x="616" 
d="M472 530l-27 -66q62 -29 97.5 -85t35.5 -137q0 -60 -20 -107.5t-55 -80.5t-84.5 -50.5t-107.5 -17.5q-17 0 -31 1t-27 3l-30 -74l-76 30l27 67q-63 29 -99.5 87.5t-36.5 141.5q0 60 20 106.5t55.5 78t84.5 48t108 16.5q17 0 31 -1t28 -3l30 74zM320 376h-20
q-53 0 -75 -38t-22 -102q0 -22 4 -49t19 -46zM298 101h20q26 0 44 10.5t29.5 29t16.5 44.5t5 57q0 22 -3.5 47t-17.5 44z" />
    <glyph glyph-name="ugrave" unicode="&#xf9;" horiz-adv-x="644" 
d="M254 477v-280q0 -38 16.5 -57t43.5 -19q36 0 56 30t20 81v141h-60v104h230v-325q0 -26 14.5 -37t40.5 -11v-104q-11 -4 -26 -5.5t-29 -1.5q-52 0 -88.5 21.5t-44.5 65.5h-6q-22 -43 -63 -68.5t-98 -25.5q-39 0 -71.5 13.5t-56 38t-36 59.5t-12.5 79v197h-55v104h225z
M336 603l-67 -52l-119 123q-20 20 -26.5 36t-6.5 31q0 30 19.5 48.5t48.5 18.5q23 0 39 -12.5t30 -38.5z" />
    <glyph glyph-name="uacute" unicode="&#xfa;" horiz-adv-x="644" 
d="M254 477v-280q0 -38 16.5 -57t43.5 -19q36 0 56 30t20 81v141h-60v104h230v-325q0 -26 14.5 -37t40.5 -11v-104q-11 -4 -26 -5.5t-29 -1.5q-52 0 -88.5 21.5t-44.5 65.5h-6q-22 -43 -63 -68.5t-98 -25.5q-39 0 -71.5 13.5t-56 38t-36 59.5t-12.5 79v197h-55v104h225z
M344 754q16 30 33.5 42t38.5 12q29 0 48.5 -18.5t19.5 -47.5q0 -16 -7.5 -32t-27.5 -36l-119 -123l-67 52z" />
    <glyph glyph-name="ucircumflex" unicode="&#xfb;" horiz-adv-x="644" 
d="M254 477v-280q0 -38 16.5 -57t43.5 -19q36 0 56 30t20 81v141h-60v104h230v-325q0 -26 14.5 -37t40.5 -11v-104q-11 -4 -26 -5.5t-29 -1.5q-52 0 -88.5 21.5t-44.5 65.5h-6q-22 -43 -63 -68.5t-98 -25.5q-39 0 -71.5 13.5t-56 38t-36 59.5t-12.5 79v197h-55v104h225z
M234 761q18 24 36.5 34.5t42.5 10.5q23 0 40 -10.5t37 -34.5l124 -150l-60 -61l-142 112l-132 -112l-60 61z" />
    <glyph glyph-name="udieresis" unicode="&#xfc;" horiz-adv-x="644" 
d="M254 477v-280q0 -38 16.5 -57t43.5 -19q36 0 56 30t20 81v141h-60v104h230v-325q0 -26 14.5 -37t40.5 -11v-104q-11 -4 -26 -5.5t-29 -1.5q-52 0 -88.5 21.5t-44.5 65.5h-6q-22 -43 -63 -68.5t-98 -25.5q-39 0 -71.5 13.5t-56 38t-36 59.5t-12.5 79v197h-55v104h225z
M196 728q36 0 58.5 -23.5t22.5 -64.5t-23 -63.5t-58 -22.5q-36 0 -58 22.5t-22 63.5t21.5 64.5t58.5 23.5zM427 728q36 0 58.5 -23.5t22.5 -64.5t-22.5 -63.5t-58.5 -22.5t-58 22.5t-22 63.5t22 64.5t58 23.5z" />
    <glyph glyph-name="yacute" unicode="&#xfd;" horiz-adv-x="624" 
d="M254 477v-266q0 -38 16.5 -57t43.5 -19q36 0 56 30t20 81v127h-60v104h230v-399q0 -81 -21 -140.5t-59 -98.5t-92.5 -58t-121.5 -19q-49 0 -87 8.5t-64 19.5v120q26 -13 61 -20.5t66 -7.5q68 0 110.5 41t42.5 125v20h-6q-20 -37 -51.5 -52.5t-75.5 -15.5
q-41 0 -73.5 13.5t-56 38t-36 59.5t-12.5 79v183h-55v104h225zM330 754q16 30 33.5 42t38.5 12q29 0 48.5 -18.5t19.5 -47.5q0 -16 -7.5 -32t-27.5 -36l-119 -123l-67 52z" />
    <glyph glyph-name="thorn" unicode="&#xfe;" horiz-adv-x="637" 
d="M258 108q9 -3 22 -5t25 -2q27 0 50 11t39.5 30t25.5 45t9 55q0 18 -4 35t-12.5 30.5t-22.5 21.5t-34 8q-42 0 -70 -34.5t-28 -91.5v-103zM258 714v-244l-29 -103h8q7 20 21 39.5t35 35.5t48.5 25.5t62.5 9.5q42 0 77.5 -15t62 -43.5t41 -68.5t14.5 -91q0 -60 -21 -110.5
t-59 -86.5t-91.5 -56t-117.5 -20q-17 0 -29.5 1.5t-22.5 3.5v-111h80v-104h-315v104h65v730h-70v104h240z" />
    <glyph glyph-name="ydieresis" unicode="&#xff;" horiz-adv-x="624" 
d="M254 477v-266q0 -38 16.5 -57t43.5 -19q36 0 56 30t20 81v127h-60v104h230v-399q0 -81 -21 -140.5t-59 -98.5t-92.5 -58t-121.5 -19q-49 0 -87 8.5t-64 19.5v120q26 -13 61 -20.5t66 -7.5q68 0 110.5 41t42.5 125v20h-6q-20 -37 -51.5 -52.5t-75.5 -15.5
q-41 0 -73.5 13.5t-56 38t-36 59.5t-12.5 79v183h-55v104h225zM186 728q36 0 58.5 -23.5t22.5 -64.5t-23 -63.5t-58 -22.5q-36 0 -58 22.5t-22 63.5t21.5 64.5t58.5 23.5zM417 728q36 0 58.5 -23.5t22.5 -64.5t-22.5 -63.5t-58.5 -22.5t-58 22.5t-22 63.5t22 64.5t58 23.5z
" />
    <glyph glyph-name="Amacron" unicode="&#x100;" horiz-adv-x="806" 
d="M510 674l226 -559h50v-115h-333v115h80l-26 68h-236l-25 -68h80v-115h-306v115h50l170 444h-80v115h350zM371 460l-61 -169h155l-64 169l-12 45h-6zM528 879v-105h-284v105h284z" />
    <glyph glyph-name="amacron" unicode="&#x101;" horiz-adv-x="602" 
d="M282 197q-27 0 -45 -12t-18 -35q0 -19 13.5 -31.5t41.5 -12.5q39 0 61.5 25t22.5 61v5h-76zM220 326h-143v126q48 20 108.5 29.5t110.5 9.5q52 0 93 -11t69.5 -34t44 -59t15.5 -86v-149q0 -26 14.5 -37t40.5 -11v-104q-11 -4 -26 -5.5t-29 -1.5q-52 0 -88 21.5t-44 65.5
h-6q-21 -43 -59.5 -68.5t-99.5 -25.5q-34 0 -65.5 9t-55.5 27t-38 45t-14 64q0 43 19.5 73.5t52.5 50t76.5 28.5t92.5 9h64v10q0 45 -22 62t-60 17q-9 0 -23.5 -1t-27.5 -5v-49zM428 679v-105h-284v105h284z" />
    <glyph glyph-name="Abreve" unicode="&#x102;" horiz-adv-x="806" 
d="M510 674l226 -559h50v-115h-333v115h80l-26 68h-236l-25 -68h80v-115h-306v115h50l170 444h-80v115h350zM371 460l-61 -169h155l-64 169l-12 45h-6zM305 968q4 -40 25.5 -62t56.5 -22t56.5 22t25.5 62l105 -20q-4 -81 -55.5 -127.5t-132.5 -46.5t-131.5 46.5t-54.5 127.5
z" />
    <glyph glyph-name="abreve" unicode="&#x103;" horiz-adv-x="602" 
d="M282 197q-27 0 -45 -12t-18 -35q0 -19 13.5 -31.5t41.5 -12.5q39 0 61.5 25t22.5 61v5h-76zM220 326h-143v126q48 20 108.5 29.5t110.5 9.5q52 0 93 -11t69.5 -34t44 -59t15.5 -86v-149q0 -26 14.5 -37t40.5 -11v-104q-11 -4 -26 -5.5t-29 -1.5q-52 0 -88 21.5t-44 65.5
h-6q-21 -43 -59.5 -68.5t-99.5 -25.5q-34 0 -65.5 9t-55.5 27t-38 45t-14 64q0 43 19.5 73.5t52.5 50t76.5 28.5t92.5 9h64v10q0 45 -22 62t-60 17q-9 0 -23.5 -1t-27.5 -5v-49zM200 768q4 -40 25.5 -62t56.5 -22t56.5 22t25.5 62l105 -20q-4 -81 -55.5 -127.5t-132.5 -46.5
t-131.5 46.5t-54.5 127.5z" />
    <glyph glyph-name="Aogonek" unicode="&#x104;" horiz-adv-x="806" 
d="M510 674l226 -559h50v-115h-97q-17 -9 -27 -24t-10 -35q0 -21 12 -34.5t35 -13.5q13 0 24 4v-85q-18 -8 -37.5 -11.5t-38.5 -3.5q-27 0 -51.5 6.5t-43 19.5t-29.5 32.5t-11 46.5q0 29 12.5 53.5t36.5 39.5l-2 5h-106v115h80l-26 68h-236l-25 -68h80v-115h-306v115h50
l170 444h-80v115h350zM371 460l-61 -169h155l-64 169l-12 45h-6z" />
    <glyph glyph-name="aogonek" unicode="&#x105;" horiz-adv-x="602" 
d="M282 197q-27 0 -45 -12t-18 -35q0 -19 13.5 -31.5t41.5 -12.5q39 0 61.5 25t22.5 61v5h-76zM220 326h-143v126q48 20 108.5 29.5t110.5 9.5q52 0 93 -11t69.5 -34t44 -59t15.5 -86v-149q0 -26 14.5 -37t40.5 -11v-104q-27 0 -49 -16t-22 -47q0 -22 13 -33t34 -11
q13 0 24 4v-85q-18 -8 -37.5 -11.5t-37.5 -3.5q-27 0 -51.5 7t-43.5 20.5t-30 34.5t-11 50q0 35 16 66t42 50v6q-12 5 -22.5 19t-11.5 30h-6q-21 -43 -59.5 -68.5t-99.5 -25.5q-34 0 -65.5 9t-55.5 27t-38 45t-14 64q0 43 19.5 73.5t52.5 50t76.5 28.5t92.5 9h64v10
q0 45 -22 62t-60 17q-9 0 -23.5 -1t-27.5 -5v-49z" />
    <glyph glyph-name="Cacute" unicode="&#x106;" horiz-adv-x="679" 
d="M639 415h-150v148q-30 10 -63 10q-40 0 -73.5 -15t-57.5 -43.5t-37 -70t-13 -93.5q0 -119 64.5 -182t175.5 -63q81 0 154 31v-113q-30 -14 -79.5 -26t-123.5 -12q-91 0 -164.5 22.5t-125 67.5t-79 111.5t-27.5 154.5q0 85 26 149.5t74.5 108t118 66t156.5 22.5
q56 0 116.5 -10t107.5 -33v-230zM421 954q16 30 33.5 42t38.5 12q29 0 48.5 -18.5t19.5 -47.5q0 -16 -7.5 -32t-27.5 -36l-119 -123l-67 52z" />
    <glyph glyph-name="cacute" unicode="&#x107;" horiz-adv-x="534" 
d="M496 282h-138v87q-22 7 -44 7q-27 0 -46 -10t-31.5 -26.5t-18 -38t-5.5 -45.5q0 -41 14 -69.5t36.5 -47t52 -27t60.5 -8.5q29 0 63 7t57 21v-118q-26 -14 -65 -21t-86 -7q-72 0 -129 17.5t-96.5 50.5t-60.5 80.5t-21 107.5q0 61 21.5 108t59 78t89 47t111.5 16
q54 0 97.5 -11t79.5 -28v-170zM316 754q16 30 33.5 42t38.5 12q29 0 48.5 -18.5t19.5 -47.5q0 -16 -7.5 -32t-27.5 -36l-119 -123l-67 52z" />
    <glyph glyph-name="Ccircumflex" unicode="&#x108;" horiz-adv-x="679" 
d="M639 415h-150v148q-30 10 -63 10q-40 0 -73.5 -15t-57.5 -43.5t-37 -70t-13 -93.5q0 -119 64.5 -182t175.5 -63q81 0 154 31v-113q-30 -14 -79.5 -26t-123.5 -12q-91 0 -164.5 22.5t-125 67.5t-79 111.5t-27.5 154.5q0 85 26 149.5t74.5 108t118 66t156.5 22.5
q56 0 116.5 -10t107.5 -33v-230zM309 961q18 24 36.5 34.5t42.5 10.5q23 0 40 -10.5t37 -34.5l124 -150l-60 -61l-142 112l-132 -112l-60 61z" />
    <glyph glyph-name="ccircumflex" unicode="&#x109;" horiz-adv-x="534" 
d="M496 282h-138v87q-22 7 -44 7q-27 0 -46 -10t-31.5 -26.5t-18 -38t-5.5 -45.5q0 -41 14 -69.5t36.5 -47t52 -27t60.5 -8.5q29 0 63 7t57 21v-118q-26 -14 -65 -21t-86 -7q-72 0 -129 17.5t-96.5 50.5t-60.5 80.5t-21 107.5q0 61 21.5 108t59 78t89 47t111.5 16
q54 0 97.5 -11t79.5 -28v-170zM212 761q18 24 36.5 34.5t42.5 10.5q23 0 40 -10.5t37 -34.5l124 -150l-60 -61l-142 112l-132 -112l-60 61z" />
    <glyph glyph-name="Cdotaccent" unicode="&#x10a;" horiz-adv-x="679" 
d="M639 415h-150v148q-30 10 -63 10q-40 0 -73.5 -15t-57.5 -43.5t-37 -70t-13 -93.5q0 -119 64.5 -182t175.5 -63q81 0 154 31v-113q-30 -14 -79.5 -26t-123.5 -12q-91 0 -164.5 22.5t-125 67.5t-79 111.5t-27.5 154.5q0 85 26 149.5t74.5 108t118 66t156.5 22.5
q56 0 116.5 -10t107.5 -33v-230zM377 928q46 0 73.5 -24.5t27.5 -62.5t-27.5 -62.5t-73.5 -24.5q-45 0 -72 24.5t-27 62.5t27 62.5t72 24.5z" />
    <glyph glyph-name="cdotaccent" unicode="&#x10b;" horiz-adv-x="534" 
d="M496 282h-138v87q-22 7 -44 7q-27 0 -46 -10t-31.5 -26.5t-18 -38t-5.5 -45.5q0 -41 14 -69.5t36.5 -47t52 -27t60.5 -8.5q29 0 63 7t57 21v-118q-26 -14 -65 -21t-86 -7q-72 0 -129 17.5t-96.5 50.5t-60.5 80.5t-21 107.5q0 61 21.5 108t59 78t89 47t111.5 16
q54 0 97.5 -11t79.5 -28v-170zM291 728q46 0 73.5 -24.5t27.5 -62.5t-27.5 -62.5t-73.5 -24.5q-45 0 -72 24.5t-27 62.5t27 62.5t72 24.5z" />
    <glyph glyph-name="Ccaron" unicode="&#x10c;" horiz-adv-x="679" 
d="M639 415h-150v148q-30 10 -63 10q-40 0 -73.5 -15t-57.5 -43.5t-37 -70t-13 -93.5q0 -119 64.5 -182t175.5 -63q81 0 154 31v-113q-30 -14 -79.5 -26t-123.5 -12q-91 0 -164.5 22.5t-125 67.5t-79 111.5t-27.5 154.5q0 85 26 149.5t74.5 108t118 66t156.5 22.5
q56 0 116.5 -10t107.5 -33v-230zM251 1006l132 -112l142 112l60 -61l-124 -150q-20 -24 -37 -34.5t-40 -10.5q-24 0 -42.5 10.5t-36.5 34.5l-114 150z" />
    <glyph glyph-name="ccaron" unicode="&#x10d;" horiz-adv-x="534" 
d="M496 282h-138v87q-22 7 -44 7q-27 0 -46 -10t-31.5 -26.5t-18 -38t-5.5 -45.5q0 -41 14 -69.5t36.5 -47t52 -27t60.5 -8.5q29 0 63 7t57 21v-118q-26 -14 -65 -21t-86 -7q-72 0 -129 17.5t-96.5 50.5t-60.5 80.5t-21 107.5q0 61 21.5 108t59 78t89 47t111.5 16
q54 0 97.5 -11t79.5 -28v-170zM162 806l132 -112l142 112l60 -61l-124 -150q-20 -24 -37 -34.5t-40 -10.5q-24 0 -42.5 10.5t-36.5 34.5l-114 150z" />
    <glyph glyph-name="Dcaron" unicode="&#x10e;" horiz-adv-x="775" 
d="M284 115h53q49 0 85.5 16t61 45t37 70t12.5 92q0 103 -49.5 162t-146.5 59h-53v-444zM347 674q86 0 157.5 -22t122.5 -64.5t79.5 -105.5t28.5 -144t-28.5 -144t-79.5 -106t-122.5 -65.5t-157.5 -22.5h-311v115h60v444h-60v115h311zM162 1006l132 -112l142 112l60 -61
l-124 -150q-20 -24 -37 -34.5t-40 -10.5q-24 0 -42.5 10.5t-36.5 34.5l-114 150z" />
    <glyph glyph-name="dcaron" unicode="&#x10f;" horiz-adv-x="771" 
d="M549 714v-562q0 -26 14.5 -37t40.5 -11v-104q-11 -4 -26.5 -5.5t-29.5 -1.5q-55 0 -89 22.5t-51 70.5h-6q-8 -17 -22 -35t-35 -32.5t-48.5 -23.5t-62.5 -9q-42 0 -77.5 14t-62 41.5t-41.5 67t-15 90.5q0 62 22 113t62 88t94.5 57t120.5 20q25 0 42 -3v136h-70v104h240z
M379 350q-8 3 -17 5t-23 2q-32 0 -56 -11t-41 -29.5t-25.5 -43t-8.5 -51.5q0 -43 20.5 -72t59.5 -29q22 0 39 9.5t28.5 25.5t17.5 36.5t6 43.5v114zM599 561q17 10 23 20.5t6 21.5q0 10 -4 17t-9.5 13.5t-9.5 14t-4 19.5q0 22 15.5 34.5t38.5 12.5q28 0 47 -19t19 -52
q0 -23 -9.5 -42t-24 -34t-32.5 -25t-35 -15z" />
    <glyph glyph-name="Dcroat" unicode="&#x110;" horiz-adv-x="775" 
d="M347 674q86 0 157.5 -22t122.5 -64.5t79.5 -105.5t28.5 -144t-28.5 -144t-79.5 -106t-122.5 -65.5t-157.5 -22.5h-311v115h60v172h-60v110h60v162h-60v115h311zM284 397h110v-110h-110v-172h53q49 0 85.5 16t61 45t37 70t12.5 92q0 103 -49.5 162t-146.5 59h-53v-162z
" />
    <glyph glyph-name="dcroat" unicode="&#x111;" horiz-adv-x="633" 
d="M549 714v-72h55v-104h-55v-386q0 -26 14.5 -37t40.5 -11v-104q-11 -4 -26.5 -5.5t-29.5 -1.5q-55 0 -89 22.5t-51 70.5h-6q-8 -17 -22 -35t-35 -32.5t-48.5 -23.5t-62.5 -9q-42 0 -77.5 14t-62 41.5t-41.5 67t-15 90.5q0 62 22 113t62 88t94.5 57t120.5 20q25 0 42 -3v64
h-90v104h90v72h170zM379 344q-8 3 -17 5t-23 2q-32 0 -56 -11t-41 -29.5t-25.5 -43t-8.5 -51.5q0 -43 20.5 -72t59.5 -29q22 0 39 9.5t28.5 25.5t17.5 36.5t6 43.5v114z" />
    <glyph glyph-name="Emacron" unicode="&#x112;" horiz-adv-x="647" 
d="M598 674v-215h-150v100h-164v-152h164v-120h-164v-172h169v110h150v-225h-567v115h60v444h-60v115h562zM465 879v-105h-284v105h284z" />
    <glyph glyph-name="emacron" unicode="&#x113;" horiz-adv-x="564" 
d="M216 191q12 -45 54 -66t99 -21q67 0 118 28v-118q-23 -11 -59 -19.5t-91 -8.5q-64 0 -118.5 14t-94.5 44.5t-63 79t-23 118.5q0 117 64.5 183t186.5 66q51 0 94 -12.5t75 -37.5t50 -63.5t18 -90.5q0 -26 -4 -50t-11 -46h-295zM367 280q0 45 -19 73t-61 28t-61 -28
t-19 -73h160zM424 679v-105h-284v105h284z" />
    <glyph glyph-name="Ebreve" unicode="&#x114;" horiz-adv-x="647" 
d="M598 674v-215h-150v100h-164v-152h164v-120h-164v-172h169v110h150v-225h-567v115h60v444h-60v115h562zM241 968q4 -40 25.5 -62t56.5 -22t56.5 22t25.5 62l105 -20q-4 -81 -55.5 -127.5t-132.5 -46.5t-131.5 46.5t-54.5 127.5z" />
    <glyph glyph-name="ebreve" unicode="&#x115;" horiz-adv-x="564" 
d="M216 191q12 -45 54 -66t99 -21q67 0 118 28v-118q-23 -11 -59 -19.5t-91 -8.5q-64 0 -118.5 14t-94.5 44.5t-63 79t-23 118.5q0 117 64.5 183t186.5 66q51 0 94 -12.5t75 -37.5t50 -63.5t18 -90.5q0 -26 -4 -50t-11 -46h-295zM367 280q0 45 -19 73t-61 28t-61 -28
t-19 -73h160zM200 768q4 -40 25.5 -62t56.5 -22t56.5 22t25.5 62l105 -20q-4 -81 -55.5 -127.5t-132.5 -46.5t-131.5 46.5t-54.5 127.5z" />
    <glyph glyph-name="Edotaccent" unicode="&#x116;" horiz-adv-x="647" 
d="M598 674v-215h-150v100h-164v-152h164v-120h-164v-172h169v110h150v-225h-567v115h60v444h-60v115h562zM322 928q46 0 73.5 -24.5t27.5 -62.5t-27.5 -62.5t-73.5 -24.5q-45 0 -72 24.5t-27 62.5t27 62.5t72 24.5z" />
    <glyph glyph-name="edotaccent" unicode="&#x117;" horiz-adv-x="564" 
d="M216 191q12 -45 54 -66t99 -21q67 0 118 28v-118q-23 -11 -59 -19.5t-91 -8.5q-64 0 -118.5 14t-94.5 44.5t-63 79t-23 118.5q0 117 64.5 183t186.5 66q51 0 94 -12.5t75 -37.5t50 -63.5t18 -90.5q0 -26 -4 -50t-11 -46h-295zM367 280q0 45 -19 73t-61 28t-61 -28
t-19 -73h160zM281 728q46 0 73.5 -24.5t27.5 -62.5t-27.5 -62.5t-73.5 -24.5q-45 0 -72 24.5t-27 62.5t27 62.5t72 24.5z" />
    <glyph glyph-name="Eogonek" unicode="&#x118;" horiz-adv-x="647" 
d="M598 674v-215h-150v100h-164v-152h164v-120h-164v-172h169v110h150v-225h-10q-26 0 -43.5 -16.5t-17.5 -42.5q0 -21 12 -34.5t35 -13.5q13 0 24 4v-85q-18 -8 -37.5 -11.5t-38.5 -3.5q-27 0 -51.5 6.5t-43 19.5t-29.5 32.5t-11 46.5q0 29 12.5 53.5t36.5 39.5l-2 5h-403
v115h60v444h-60v115h562z" />
    <glyph glyph-name="eogonek" unicode="&#x119;" horiz-adv-x="564" 
d="M216 191q12 -45 54 -66t99 -21q67 0 118 28v-117q-23 -2 -44.5 -8t-38.5 -15.5t-27.5 -23t-10.5 -31.5q0 -22 13 -33t35 -11q6 0 14.5 1t18.5 3v-85q-20 -8 -42.5 -11.5t-40.5 -3.5q-28 0 -53 7t-44 20.5t-30 33.5t-11 46q0 25 9.5 46.5t24.5 35.5v5q-44 6 -84.5 23.5
t-71 47.5t-48.5 75t-18 107q0 115 64.5 181t186.5 66q51 0 94 -12.5t75 -37.5t50 -63.5t18 -90.5q0 -26 -4 -50t-11 -46h-295zM367 280q0 45 -19 73t-61 28t-61 -28t-19 -73h160z" />
    <glyph glyph-name="Ecaron" unicode="&#x11a;" horiz-adv-x="647" 
d="M598 674v-215h-150v100h-164v-152h164v-120h-164v-172h169v110h150v-225h-567v115h60v444h-60v115h562zM186 1006l132 -112l142 112l60 -61l-124 -150q-20 -24 -37 -34.5t-40 -10.5q-24 0 -42.5 10.5t-36.5 34.5l-114 150z" />
    <glyph glyph-name="ecaron" unicode="&#x11b;" horiz-adv-x="564" 
d="M216 191q12 -45 54 -66t99 -21q67 0 118 28v-118q-23 -11 -59 -19.5t-91 -8.5q-64 0 -118.5 14t-94.5 44.5t-63 79t-23 118.5q0 117 64.5 183t186.5 66q51 0 94 -12.5t75 -37.5t50 -63.5t18 -90.5q0 -26 -4 -50t-11 -46h-295zM367 280q0 45 -19 73t-61 28t-61 -28
t-19 -73h160zM150 806l132 -112l142 112l60 -61l-124 -150q-20 -24 -37 -34.5t-40 -10.5q-24 0 -42.5 10.5t-36.5 34.5l-114 150z" />
    <glyph glyph-name="Gcircumflex" unicode="&#x11c;" horiz-adv-x="742" 
d="M649 431h-150v132q-30 10 -65 10q-40 0 -74.5 -14t-60 -43t-40 -73t-14.5 -103q0 -113 50.5 -173.5t136.5 -60.5q22 0 39 4v113h-75v115h313v-114h-60v-193q-42 -20 -97 -32.5t-127 -12.5q-89 0 -160 22.5t-121 66.5t-77 109.5t-27 151.5t27 152t77 110.5t121 67
t160 22.5q56 0 116.5 -10t107.5 -33v-214zM312 961q18 24 36.5 34.5t42.5 10.5q23 0 40 -10.5t37 -34.5l124 -150l-60 -61l-142 112l-132 -112l-60 61z" />
    <glyph glyph-name="gcircumflex" unicode="&#x11d;" horiz-adv-x="613" 
d="M549 90q0 -88 -21.5 -150t-60.5 -101.5t-93.5 -58t-121.5 -18.5q-50 0 -85.5 8.5t-61.5 19.5v120q28 -13 61 -20.5t64 -7.5q71 0 112.5 42.5t41.5 123.5v40h-6q-19 -36 -56.5 -57t-88.5 -21q-41 0 -77 14.5t-62 41.5t-41 66.5t-15 89.5q0 60 22 109.5t62 85t97 55
t128 19.5q25 0 53 -2.5t55 -7.5t51.5 -12.5t42.5 -17.5v-361zM379 364q-8 3 -17.5 5t-23.5 2q-31 0 -55.5 -10t-41 -27t-25 -40t-8.5 -50q0 -41 20.5 -70t58.5 -29q22 0 39 10t29 27.5t18 40t6 47.5v94zM242 761q18 24 36.5 34.5t42.5 10.5q23 0 40 -10.5t37 -34.5l124 -150
l-60 -61l-142 112l-132 -112l-60 61z" />
    <glyph glyph-name="Gbreve" unicode="&#x11e;" horiz-adv-x="742" 
d="M649 431h-150v132q-30 10 -65 10q-40 0 -74.5 -14t-60 -43t-40 -73t-14.5 -103q0 -113 50.5 -173.5t136.5 -60.5q22 0 39 4v113h-75v115h313v-114h-60v-193q-42 -20 -97 -32.5t-127 -12.5q-89 0 -160 22.5t-121 66.5t-77 109.5t-27 151.5t27 152t77 110.5t121 67
t160 22.5q56 0 116.5 -10t107.5 -33v-214zM309 968q4 -40 25.5 -62t56.5 -22t56.5 22t25.5 62l105 -20q-4 -81 -55.5 -127.5t-132.5 -46.5t-131.5 46.5t-54.5 127.5z" />
    <glyph glyph-name="gbreve" unicode="&#x11f;" horiz-adv-x="613" 
d="M549 90q0 -88 -21.5 -150t-60.5 -101.5t-93.5 -58t-121.5 -18.5q-50 0 -85.5 8.5t-61.5 19.5v120q28 -13 61 -20.5t64 -7.5q71 0 112.5 42.5t41.5 123.5v40h-6q-19 -36 -56.5 -57t-88.5 -21q-41 0 -77 14.5t-62 41.5t-41 66.5t-15 89.5q0 60 22 109.5t62 85t97 55
t128 19.5q25 0 53 -2.5t55 -7.5t51.5 -12.5t42.5 -17.5v-361zM379 364q-8 3 -17.5 5t-23.5 2q-31 0 -55.5 -10t-41 -27t-25 -40t-8.5 -50q0 -41 20.5 -70t58.5 -29q22 0 39 10t29 27.5t18 40t6 47.5v94zM244 768q4 -40 25.5 -62t56.5 -22t56.5 22t25.5 62l105 -20
q-4 -81 -55.5 -127.5t-132.5 -46.5t-131.5 46.5t-54.5 127.5z" />
    <glyph glyph-name="Gdotaccent" unicode="&#x120;" horiz-adv-x="742" 
d="M649 431h-150v132q-30 10 -65 10q-40 0 -74.5 -14t-60 -43t-40 -73t-14.5 -103q0 -113 50.5 -173.5t136.5 -60.5q22 0 39 4v113h-75v115h313v-114h-60v-193q-42 -20 -97 -32.5t-127 -12.5q-89 0 -160 22.5t-121 66.5t-77 109.5t-27 151.5t27 152t77 110.5t121 67
t160 22.5q56 0 116.5 -10t107.5 -33v-214zM390 928q46 0 73.5 -24.5t27.5 -62.5t-27.5 -62.5t-73.5 -24.5q-45 0 -72 24.5t-27 62.5t27 62.5t72 24.5z" />
    <glyph glyph-name="gdotaccent" unicode="&#x121;" horiz-adv-x="613" 
d="M549 90q0 -88 -21.5 -150t-60.5 -101.5t-93.5 -58t-121.5 -18.5q-50 0 -85.5 8.5t-61.5 19.5v120q28 -13 61 -20.5t64 -7.5q71 0 112.5 42.5t41.5 123.5v40h-6q-19 -36 -56.5 -57t-88.5 -21q-41 0 -77 14.5t-62 41.5t-41 66.5t-15 89.5q0 60 22 109.5t62 85t97 55
t128 19.5q25 0 53 -2.5t55 -7.5t51.5 -12.5t42.5 -17.5v-361zM379 364q-8 3 -17.5 5t-23.5 2q-31 0 -55.5 -10t-41 -27t-25 -40t-8.5 -50q0 -41 20.5 -70t58.5 -29q22 0 39 10t29 27.5t18 40t6 47.5v94zM317 728q46 0 73.5 -24.5t27.5 -62.5t-27.5 -62.5t-73.5 -24.5
q-45 0 -72 24.5t-27 62.5t27 62.5t72 24.5z" />
    <glyph glyph-name="Gcommaaccent" unicode="&#x122;" horiz-adv-x="742" 
d="M649 431h-150v132q-30 10 -65 10q-40 0 -74.5 -14t-60 -43t-40 -73t-14.5 -103q0 -113 50.5 -173.5t136.5 -60.5q22 0 39 4v113h-75v115h313v-114h-60v-193q-42 -20 -97 -32.5t-127 -12.5q-89 0 -160 22.5t-121 66.5t-77 109.5t-27 151.5t27 152t77 110.5t121 67
t160 22.5q56 0 116.5 -10t107.5 -33v-214zM353 -205q17 10 23 20.5t6 21.5q0 10 -4 17t-9.5 13.5t-9.5 14t-4 19.5q0 21 14.5 39t43.5 18t45.5 -19t16.5 -51q0 -24 -9.5 -45t-24 -37.5t-32.5 -28t-35 -16.5z" />
    <glyph glyph-name="gcommaaccent" unicode="&#x123;" horiz-adv-x="613" 
d="M549 90q0 -88 -21.5 -150t-60.5 -101.5t-93.5 -58t-121.5 -18.5q-50 0 -85.5 8.5t-61.5 19.5v120q28 -13 61 -20.5t64 -7.5q71 0 112.5 42.5t41.5 123.5v40h-6q-19 -36 -56.5 -57t-88.5 -21q-41 0 -77 14.5t-62 41.5t-41 66.5t-15 89.5q0 60 22 109.5t62 85t97 55
t128 19.5q25 0 53 -2.5t55 -7.5t51.5 -12.5t42.5 -17.5v-361zM379 364q-8 3 -17.5 5t-23.5 2q-31 0 -55.5 -10t-41 -27t-25 -40t-8.5 -50q0 -41 20.5 -70t58.5 -29q22 0 39 10t29 27.5t18 40t6 47.5v94zM364.002 727.987q-16.998 -9.99902 -22.998 -20.499
q-6 -10.499 -6 -21.498q0 -10 4 -16.999q4 -7 9.49902 -13.499q5.5 -6.5 9.5 -13.999q4 -7.5 4 -19.499q0 -20.999 -14.499 -38.998q-14.5 -17.999 -43.498 -17.999t-45.4971 18.999t-16.499 50.9971q0 23.999 9.5 44.9971q9.49902 20.999 23.998 37.498t32.498 27.998
t34.998 16.499z" />
    <glyph glyph-name="Hcircumflex" unicode="&#x124;" horiz-adv-x="804" 
d="M354 674v-115h-70v-152h236v152h-70v115h318v-115h-60v-444h60v-115h-318v115h70v172h-236v-172h70v-115h-318v115h60v444h-60v115h318zM324 958q18 24 36.5 34.5t42.5 10.5q23 0 40 -10.5t37 -34.5l124 -150l-60 -61l-142 112l-132 -112l-60 61z" />
    <glyph glyph-name="hcircumflex" unicode="&#x125;" horiz-adv-x="663" 
d="M263 714v-244l-29 -103h8q10 22 26.5 44.5t39.5 40t53 28.5t68 11q72 0 111 -43.5t39 -136.5v-207h55v-104h-225v290q0 31 -15.5 48.5t-40.5 17.5q-16 0 -32 -7.5t-29 -21.5t-21 -33.5t-8 -43.5v-146h60v-104h-285v104h55v506h-70v104h240zM268 961q18 24 36.5 34.5
t42.5 10.5q23 0 40 -10.5t37 -34.5l124 -150l-60 -61l-142 112l-132 -112l-60 61z" />
    <glyph glyph-name="Hbar" unicode="&#x126;" horiz-adv-x="804" 
d="M354 674v-115h-70v-82h236v82h-70v115h318v-115h-60v-82h60v-104h-60v-258h60v-115h-318v115h70v82h-236v-82h70v-115h-318v115h60v258h-60v104h60v82h-60v115h318zM284 301h236v72h-236v-72z" />
    <glyph glyph-name="hbar" unicode="&#x127;" horiz-adv-x="663" 
d="M263 714v-72h90v-104h-90v-68l-29 -103h8q10 22 26.5 44.5t39.5 40t53 28.5t68 11q72 0 111 -43.5t39 -136.5v-207h55v-104h-225v290q0 31 -15.5 48.5t-40.5 17.5q-16 0 -32 -7.5t-29 -21.5t-21 -33.5t-8 -43.5v-146h60v-104h-285v104h55v434h-55v104h55v72h170z" />
    <glyph glyph-name="Itilde" unicode="&#x128;" horiz-adv-x="380" 
d="M344 674v-115h-60v-444h60v-115h-308v115h60v444h-60v115h308zM71 774l-49 40q7 44 34.5 72t67.5 28q25 0 57 -13l77 -31l52 44l49 -40q-6 -43 -33.5 -72t-66.5 -29q-26 0 -59 14l-76 31z" />
    <glyph glyph-name="itilde" unicode="&#x129;" horiz-adv-x="363" 
d="M268 477v-373h70v-104h-305v104h65v269h-65v104h235zM50 574l-49 40q7 44 34.5 72t67.5 28q25 0 57 -13l77 -31l52 44l49 -40q-6 -43 -33.5 -72t-66.5 -29q-26 0 -59 14l-76 31z" />
    <glyph glyph-name="Imacron" unicode="&#x12a;" horiz-adv-x="380" 
d="M344 674v-115h-60v-444h60v-115h-308v115h60v444h-60v115h308zM334 879v-105h-284v105h284z" />
    <glyph glyph-name="imacron" unicode="&#x12b;" horiz-adv-x="363" 
d="M268 477v-373h70v-104h-305v104h65v269h-65v104h235zM316 679v-105h-284v105h284z" />
    <glyph glyph-name="Ibreve" unicode="&#x12c;" horiz-adv-x="380" 
d="M344 674v-115h-60v-444h60v-115h-308v115h60v444h-60v115h308zM108 968q4 -40 25.5 -62t56.5 -22t56.5 22t25.5 62l105 -20q-4 -81 -55.5 -127.5t-132.5 -46.5t-131.5 46.5t-54.5 127.5z" />
    <glyph glyph-name="ibreve" unicode="&#x12d;" horiz-adv-x="363" 
d="M268 477v-373h70v-104h-305v104h65v269h-65v104h235zM99 768q4 -40 25.5 -62t56.5 -22t56.5 22t25.5 62l105 -20q-4 -81 -55.5 -127.5t-132.5 -46.5t-131.5 46.5t-54.5 127.5z" />
    <glyph glyph-name="Iogonek" unicode="&#x12e;" horiz-adv-x="380" 
d="M344 674v-115h-60v-444h60v-115h-88q-17 -9 -27 -24t-10 -35q0 -21 12 -34.5t35 -13.5q13 0 24 4v-85q-18 -8 -37.5 -11.5t-38.5 -3.5q-27 0 -51.5 6.5t-43 19.5t-29.5 32.5t-11 46.5q0 29 12.5 53.5t36.5 39.5l-2 5h-90v115h60v444h-60v115h308z" />
    <glyph glyph-name="iogonek" unicode="&#x12f;" horiz-adv-x="363" 
d="M268 477v-373h70v-104h-82q-17 -9 -27 -24t-10 -35q0 -21 12 -34.5t35 -13.5q13 0 24 4v-85q-18 -8 -37.5 -11.5t-38.5 -3.5q-27 0 -51.5 6.5t-43 19.5t-29.5 32.5t-11 46.5q0 29 12 53.5t32 39.5l-2 5h-88v104h65v269h-65v104h235zM177 728q46 0 73.5 -24.5t27.5 -62.5
t-27.5 -62.5t-73.5 -24.5q-45 0 -72 24.5t-27 62.5t27 62.5t72 24.5z" />
    <glyph glyph-name="Idotaccent" unicode="&#x130;" horiz-adv-x="380" 
d="M344 674v-115h-60v-444h60v-115h-308v115h60v444h-60v115h308zM188 928q46 0 73.5 -24.5t27.5 -62.5t-27.5 -62.5t-73.5 -24.5q-45 0 -72 24.5t-27 62.5t27 62.5t72 24.5z" />
    <glyph glyph-name="dotlessi" unicode="&#x131;" horiz-adv-x="363" 
d="M268 477v-373h70v-104h-305v104h65v269h-65v104h235z" />
    <glyph glyph-name="IJ" unicode="&#x132;" horiz-adv-x="779" 
d="M344 674v-115h-60v-444h60v-115h-308v115h60v444h-60v115h308zM743 674v-115h-60v-449q0 -153 -72.5 -227t-205.5 -81v115q28 11 45.5 26.5t27.5 37t13.5 51t3.5 68.5v459h-80v115h328z" />
    <glyph glyph-name="ij" unicode="&#x133;" horiz-adv-x="681" 
d="M268 477v-373h70v-104h-305v104h65v269h-65v104h235zM177 728q46 0 73.5 -24.5t27.5 -62.5t-27.5 -62.5t-73.5 -24.5q-45 0 -72 24.5t-27 62.5t27 62.5t72 24.5zM614 477v-432q0 -56 -15.5 -103.5t-47 -83.5t-80 -57.5t-114.5 -24.5v105q44 15 65.5 50t21.5 104v338h-65
v104h235zM523 728q46 0 73.5 -24.5t27.5 -62.5t-27.5 -62.5t-73.5 -24.5q-45 0 -72 24.5t-27 62.5t27 62.5t72 24.5z" />
    <glyph glyph-name="Jcircumflex" unicode="&#x134;" horiz-adv-x="398" 
d="M362 674v-115h-60v-449q0 -153 -72.5 -227t-205.5 -81v115q28 11 45.5 26.5t27.5 37t13.5 51t3.5 68.5v459h-80v115h328zM125 961q18 24 36.5 34.5t42.5 10.5q23 0 40 -10.5t37 -34.5l124 -150l-60 -61l-142 112l-132 -112l-60 61z" />
    <glyph glyph-name="jcircumflex" unicode="&#x135;" horiz-adv-x="340" 
d="M273 477v-432q0 -56 -15.5 -103.5t-47 -83.5t-80 -57.5t-114.5 -24.5v105q44 15 65.5 50t21.5 104v338h-65v104h235zM90 761q18 24 36.5 34.5t42.5 10.5q23 0 40 -10.5t37 -34.5l124 -150l-60 -61l-142 112l-132 -112l-60 61z" />
    <glyph glyph-name="Kcommaaccent" unicode="&#x136;" horiz-adv-x="774" 
d="M744 674v-115h-65l-149 -200l95 -159q23 -39 55 -62t64 -23h10v-115q-15 -4 -35 -5.5t-41 -1.5q-38 0 -71.5 5t-63.5 19t-56 39t-49 65l-124 216l134 190l29 27l-2 5h-60v115h329zM339 674v-115h-55v-444h65v-115h-313v115h60v444h-60v115h303zM357 -205q17 10 23 20.5
t6 21.5q0 10 -4 17t-9.5 13.5t-9.5 14t-4 19.5q0 21 14.5 39t43.5 18t45.5 -19t16.5 -51q0 -24 -9.5 -45t-24 -37.5t-32.5 -28t-35 -16.5z" />
    <glyph glyph-name="kcommaaccent" unicode="&#x137;" horiz-adv-x="666" 
d="M265 714v-610h45v-104h-280v104h65v506h-70v104h240zM631 477v-104h-55l-98 -106l70 -110q17 -28 33.5 -40.5t44.5 -12.5h10v-104q-31 -7 -68 -7q-34 0 -60 4t-47.5 13.5t-39 26t-33.5 42.5l-103 163l87 101l33 24l-2 6h-57v104h285zM302 -205q17 10 23 20.5t6 21.5
q0 10 -4 17t-9.5 13.5t-9.5 14t-4 19.5q0 21 14.5 39t43.5 18t45.5 -19t16.5 -51q0 -24 -9.5 -45t-24 -37.5t-32.5 -28t-35 -16.5z" />
    <glyph glyph-name="kgreenlandic" unicode="&#x138;" horiz-adv-x="666" 
d="M265 477v-373h45v-104h-280v104h65v269h-70v104h240zM631 477v-104h-55l-98 -112l70 -104q17 -26 36 -39.5t42 -13.5h10v-104q-17 -4 -36.5 -5.5t-38.5 -1.5q-37 0 -64 6.5t-47 17.5t-35 27t-27 35l-103 162l90 107l30 19l-2 6h-57v104h285z" />
    <glyph glyph-name="Lacute" unicode="&#x139;" horiz-adv-x="647" 
d="M364 674v-115h-80v-444h169v130h150v-245h-567v115h60v444h-60v115h328zM240 954q16 30 33.5 42t38.5 12q29 0 48.5 -18.5t19.5 -47.5q0 -16 -7.5 -32t-27.5 -36l-119 -123l-67 52z" />
    <glyph glyph-name="lacute" unicode="&#x13a;" horiz-adv-x="364" 
d="M269 714v-610h70v-104h-305v104h65v506h-70v104h240zM227 954q16 30 33.5 42t38.5 12q29 0 48.5 -18.5t19.5 -47.5q0 -16 -7.5 -32t-27.5 -36l-119 -123l-67 52z" />
    <glyph glyph-name="Lcommaaccent" unicode="&#x13b;" horiz-adv-x="647" 
d="M364 674v-115h-80v-444h169v130h150v-245h-567v115h60v444h-60v115h328zM269 -205q17 10 23 20.5t6 21.5q0 10 -4 17t-9.5 13.5t-9.5 14t-4 19.5q0 21 14.5 39t43.5 18t45.5 -19t16.5 -51q0 -24 -9.5 -45t-24 -37.5t-32.5 -28t-35 -16.5z" />
    <glyph glyph-name="lcommaaccent" unicode="&#x13c;" horiz-adv-x="364" 
d="M269 714v-610h70v-104h-305v104h65v506h-70v104h240zM127 -205q17 10 23 20.5t6 21.5q0 10 -4 17t-9.5 13.5t-9.5 14t-4 19.5q0 21 14.5 39t43.5 18t45.5 -19t16.5 -51q0 -24 -9.5 -45t-24 -37.5t-32.5 -28t-35 -16.5z" />
    <glyph glyph-name="Lcaron" unicode="&#x13d;" horiz-adv-x="647" 
d="M364 674v-115h-80v-444h169v130h150v-245h-567v115h60v444h-60v115h328zM64 1006l132 -112l142 112l60 -61l-124 -150q-20 -24 -37 -34.5t-40 -10.5q-24 0 -42.5 10.5t-36.5 34.5l-114 150z" />
    <glyph glyph-name="lcaron" unicode="&#x13e;" horiz-adv-x="491" 
d="M269 714v-610h70v-104h-305v104h65v506h-70v104h240zM319 575q17 10 23 20.5t6 21.5q0 10 -4 17t-9.5 13.5t-9.5 14t-4 19.5q0 22 15.5 34.5t38.5 12.5q28 0 47 -19t19 -52q0 -23 -9.5 -42t-24 -34t-32.5 -25t-35 -15z" />
    <glyph glyph-name="Ldot" unicode="&#x13f;" horiz-adv-x="647" 
d="M364 674v-115h-80v-444h169v130h150v-245h-567v115h60v444h-60v115h328zM474.104 474.218q41.4014 0 66.1514 -22.0508q24.751 -22.0508 24.751 -56.251q0 -34.2012 -24.751 -56.252q-24.75 -22.0508 -66.1514 -22.0508q-40.501 0 -64.8018 22.0508t-24.3008 56.252
q0 34.2002 24.3008 56.251t64.8018 22.0508z" />
    <glyph glyph-name="ldot" unicode="&#x140;" horiz-adv-x="519" 
d="M269 714v-610h70v-104h-305v104h65v506h-70v104h240zM438.198 374.391q36.7998 0 58.7988 -19.5996q22 -19.5996 22 -49.999t-22 -49.999q-21.999 -19.5996 -58.7988 -19.5996q-35.999 0 -57.5986 19.5996t-21.5996 49.999t21.5996 49.999t57.5986 19.5996z" />
    <glyph glyph-name="Lslash" unicode="&#x141;" horiz-adv-x="647" 
d="M354 674v-115h-70v-124l159 93v-124l-159 -93v-196h169v130h150v-245h-567v115h60v87l-60 -35v124l60 35v233h-60v115h318z" />
    <glyph glyph-name="lslash" unicode="&#x142;" horiz-adv-x="374" 
d="M269 714v-240l80 47v-124l-80 -47v-246h70v-104h-305v104h65v148l-65 -38v124l65 38v234h-70v104h240z" />
    <glyph glyph-name="Nacute" unicode="&#x143;" horiz-adv-x="796" 
d="M283 674l252 -392l5 2l-10 68v207h-60v115h290v-115h-60v-559h-195l-244 381l-5 -2l10 -68v-196h60v-115h-290v115h60v444h-60v115h247zM414 954q16 30 33.5 42t38.5 12q29 0 48.5 -18.5t19.5 -47.5q0 -16 -7.5 -32t-27.5 -36l-119 -123l-67 52z" />
    <glyph glyph-name="nacute" unicode="&#x144;" horiz-adv-x="653" 
d="M254 477v-40l-20 -70h8q10 22 25.5 44.5t37.5 40t51.5 28.5t67.5 11q72 0 108.5 -43.5t36.5 -136.5v-207h55v-104h-225v290q0 31 -13 48.5t-38 17.5q-16 0 -31.5 -7.5t-27.5 -21.5t-19 -33.5t-7 -43.5v-146h60v-104h-285v104h55v269h-60v104h221zM349 754q16 30 33.5 42
t38.5 12q29 0 48.5 -18.5t19.5 -47.5q0 -16 -7.5 -32t-27.5 -36l-119 -123l-67 52z" />
    <glyph glyph-name="Ncommaaccent" unicode="&#x145;" horiz-adv-x="796" 
d="M283 674l252 -392l5 2l-10 68v207h-60v115h290v-115h-60v-559h-195l-244 381l-5 -2l10 -68v-196h60v-115h-290v115h60v444h-60v115h247zM335 -205q17 10 23 20.5t6 21.5q0 10 -4 17t-9.5 13.5t-9.5 14t-4 19.5q0 21 14.5 39t43.5 18t45.5 -19t16.5 -51q0 -24 -9.5 -45
t-24 -37.5t-32.5 -28t-35 -16.5z" />
    <glyph glyph-name="ncommaaccent" unicode="&#x146;" horiz-adv-x="653" 
d="M254 477v-40l-20 -70h8q10 22 25.5 44.5t37.5 40t51.5 28.5t67.5 11q72 0 108.5 -43.5t36.5 -136.5v-207h55v-104h-225v290q0 31 -13 48.5t-38 17.5q-16 0 -31.5 -7.5t-27.5 -21.5t-19 -33.5t-7 -43.5v-146h60v-104h-285v104h55v269h-60v104h221zM261 -205q17 10 23 20.5
t6 21.5q0 10 -4 17t-9.5 13.5t-9.5 14t-4 19.5q0 21 14.5 39t43.5 18t45.5 -19t16.5 -51q0 -24 -9.5 -45t-24 -37.5t-32.5 -28t-35 -16.5z" />
    <glyph glyph-name="Ncaron" unicode="&#x147;" horiz-adv-x="796" 
d="M283 674l252 -392l5 2l-10 68v207h-60v115h290v-115h-60v-559h-195l-244 381l-5 -2l10 -68v-196h60v-115h-290v115h60v444h-60v115h247zM241 1006l132 -112l142 112l60 -61l-124 -150q-20 -24 -37 -34.5t-40 -10.5q-24 0 -42.5 10.5t-36.5 34.5l-114 150z" />
    <glyph glyph-name="ncaron" unicode="&#x148;" horiz-adv-x="653" 
d="M254 477v-40l-20 -70h8q10 22 25.5 44.5t37.5 40t51.5 28.5t67.5 11q72 0 108.5 -43.5t36.5 -136.5v-207h55v-104h-225v290q0 31 -13 48.5t-38 17.5q-16 0 -31.5 -7.5t-27.5 -21.5t-19 -33.5t-7 -43.5v-146h60v-104h-285v104h55v269h-60v104h221zM194 806l132 -112
l142 112l60 -61l-124 -150q-20 -24 -37 -34.5t-40 -10.5q-24 0 -42.5 10.5t-36.5 34.5l-114 150z" />
    <glyph glyph-name="napostrophe" unicode="&#x149;" horiz-adv-x="794" 
d="M395 477v-40l-20 -70h8q10 22 25.5 44.5t37.5 40t51.5 28.5t67.5 11q72 0 108.5 -43.5t36.5 -136.5v-207h55v-104h-225v290q0 31 -13 48.5t-38 17.5q-16 0 -31.5 -7.5t-27.5 -21.5t-19 -33.5t-7 -43.5v-146h60v-104h-285v104h55v269h-60v104h221zM19 482q17 12 28.5 27
t11.5 36q0 14 -5.5 24.5t-15.5 22.5q-8 11 -13 21t-5 24q0 16 6 27t15.5 18t20.5 9.5t21 2.5q35 0 56.5 -28t21.5 -68q0 -51 -33 -91.5t-79 -63.5z" />
    <glyph glyph-name="Eng" unicode="&#x14a;" horiz-adv-x="796" 
d="M283 674l252 -392l5 2l-10 68v207h-60v115h290v-115h-60v-419q0 -160 -76.5 -241.5t-215.5 -96.5v115q32 11 59 32.5t38 50.5l-244 381l-5 -2l10 -68v-196h60v-115h-290v115h60v444h-60v115h247z" />
    <glyph glyph-name="eng" unicode="&#x14b;" horiz-adv-x="636" 
d="M254 477v-40l-20 -70h8q10 22 25.5 44.5t37.5 40t51.5 28.5t67.5 11q72 0 108.5 -43.5t36.5 -136.5v-265q0 -52 -14 -99.5t-45 -84t-79.5 -59.5t-118.5 -27v104q37 6 62 34.5t25 91.5v285q0 31 -13 48.5t-38 17.5q-16 0 -31.5 -7.5t-27.5 -21.5t-19 -33.5t-7 -43.5v-147
h49v-104h-274v104h55v269h-60v104h221z" />
    <glyph glyph-name="Omacron" unicode="&#x14c;" horiz-adv-x="816" 
d="M408 573q-46 0 -77.5 -17t-50.5 -48t-27 -74.5t-8 -96.5t8 -96.5t27 -74.5t50 -48t78 -17q46 0 77.5 17t50.5 48t27 74.5t8 96.5t-8 96.5t-27 74.5t-50.5 48t-77.5 17zM408 688q86 0 154.5 -23t116 -67.5t72.5 -110t25 -150.5t-25 -150.5t-72.5 -110t-115.5 -67.5
t-155 -23t-155 23t-115.5 67.5t-72.5 110t-25 150.5t25 150.5t72.5 110t116 67.5t154.5 23zM549 879v-105h-284v105h284z" />
    <glyph glyph-name="omacron" unicode="&#x14d;" horiz-adv-x="616" 
d="M308 491q60 0 109.5 -16.5t85.5 -48t55.5 -78t19.5 -106.5t-19.5 -107.5t-55.5 -80.5t-85.5 -50.5t-109.5 -17.5t-109.5 17.5t-85.5 50.5t-55.5 80.5t-19.5 107.5t19.5 106.5t55.5 78t85.5 48t109.5 16.5zM308 376q-53 0 -74 -38t-21 -98q0 -30 5 -55.5t16 -44t29.5 -29
t44.5 -10.5q52 0 73.5 39.5t21.5 99.5t-21 98t-74 38zM450 679v-105h-284v105h284z" />
    <glyph glyph-name="Obreve" unicode="&#x14e;" horiz-adv-x="816" 
d="M408 573q-46 0 -77.5 -17t-50.5 -48t-27 -74.5t-8 -96.5t8 -96.5t27 -74.5t50 -48t78 -17q46 0 77.5 17t50.5 48t27 74.5t8 96.5t-8 96.5t-27 74.5t-50.5 48t-77.5 17zM408 688q86 0 154.5 -23t116 -67.5t72.5 -110t25 -150.5t-25 -150.5t-72.5 -110t-115.5 -67.5
t-155 -23t-155 23t-115.5 67.5t-72.5 110t-25 150.5t25 150.5t72.5 110t116 67.5t154.5 23zM326 968q4 -40 25.5 -62t56.5 -22t56.5 22t25.5 62l105 -20q-4 -81 -55.5 -127.5t-132.5 -46.5t-131.5 46.5t-54.5 127.5z" />
    <glyph glyph-name="obreve" unicode="&#x14f;" horiz-adv-x="616" 
d="M308 491q60 0 109.5 -16.5t85.5 -48t55.5 -78t19.5 -106.5t-19.5 -107.5t-55.5 -80.5t-85.5 -50.5t-109.5 -17.5t-109.5 17.5t-85.5 50.5t-55.5 80.5t-19.5 107.5t19.5 106.5t55.5 78t85.5 48t109.5 16.5zM308 376q-53 0 -74 -38t-21 -98q0 -30 5 -55.5t16 -44t29.5 -29
t44.5 -10.5q52 0 73.5 39.5t21.5 99.5t-21 98t-74 38zM226 768q4 -40 25.5 -62t56.5 -22t56.5 22t25.5 62l105 -20q-4 -81 -55.5 -127.5t-132.5 -46.5t-131.5 46.5t-54.5 127.5z" />
    <glyph glyph-name="Ohungarumlaut" unicode="&#x150;" horiz-adv-x="816" 
d="M408 573q-46 0 -77.5 -17t-50.5 -48t-27 -74.5t-8 -96.5t8 -96.5t27 -74.5t50 -48t78 -17q46 0 77.5 17t50.5 48t27 74.5t8 96.5t-8 96.5t-27 74.5t-50.5 48t-77.5 17zM408 688q86 0 154.5 -23t116 -67.5t72.5 -110t25 -150.5t-25 -150.5t-72.5 -110t-115.5 -67.5
t-155 -23t-155 23t-115.5 67.5t-72.5 110t-25 150.5t25 150.5t72.5 110t116 67.5t154.5 23zM313 962q10 20 27.5 32t40.5 12q29 0 46.5 -18t17.5 -46q0 -31 -25 -59l-118 -133l-70 49zM521 965q11 19 27 30t39 11q29 0 48 -16.5t19 -48.5q0 -15 -5.5 -29.5t-19.5 -28.5
l-133 -133l-68 49z" />
    <glyph glyph-name="ohungarumlaut" unicode="&#x151;" horiz-adv-x="616" 
d="M308 491q60 0 109.5 -16.5t85.5 -48t55.5 -78t19.5 -106.5t-19.5 -107.5t-55.5 -80.5t-85.5 -50.5t-109.5 -17.5t-109.5 17.5t-85.5 50.5t-55.5 80.5t-19.5 107.5t19.5 106.5t55.5 78t85.5 48t109.5 16.5zM308 376q-53 0 -74 -38t-21 -98q0 -30 5 -55.5t16 -44t29.5 -29
t44.5 -10.5q52 0 73.5 39.5t21.5 99.5t-21 98t-74 38zM237 762q10 20 27.5 32t40.5 12q29 0 46.5 -18t17.5 -46q0 -31 -25 -59l-118 -133l-70 49zM445 765q11 19 27 30t39 11q29 0 48 -16.5t19 -48.5q0 -15 -5.5 -29.5t-19.5 -28.5l-133 -133l-68 49z" />
    <glyph glyph-name="OE" unicode="&#x152;" horiz-adv-x="1012" 
d="M963 674v-215h-150v100h-159v-152h159v-120h-159v-172h164v110h150v-225h-540q-77 0 -147.5 19t-124 60.5t-85 105.5t-31.5 154t31.5 153.5t85 104t124 59t147.5 18.5h535zM438 559q-53 0 -90 -16t-60.5 -45t-34.5 -69.5t-11 -89.5t11 -90t34.5 -71t60.5 -46.5t90 -16.5
h28v444h-28z" />
    <glyph glyph-name="oe" unicode="&#x153;" horiz-adv-x="929" 
d="M488 411q11 15 30 29.5t44 25.5t54.5 18t61.5 7q37 0 75 -11t68.5 -35t50 -63.5t19.5 -96.5q0 -23 -3.5 -47.5t-11.5 -46.5h-285q11 -42 43 -66t98 -24q36 0 70 7t60 21v-115q-24 -11 -67.5 -19.5t-97.5 -8.5q-63 0 -118.5 16t-90.5 58h-6q-38 -43 -89 -58.5t-102 -15.5
q-60 0 -107 17.5t-79.5 50.5t-49.5 79.5t-17 104.5q0 62 19 109t53 79t80.5 48.5t100.5 16.5q66 0 115.5 -22t75.5 -58h6zM298 376q-26 0 -44.5 -10t-29.5 -28t-16 -43.5t-5 -55.5t5 -55t16 -43.5t29 -29t44 -10.5q52 0 74 39.5t22 100.5q0 30 -5 54.5t-16.5 42.5t-29.5 28
t-44 10zM743 280q0 45 -18.5 70.5t-56.5 25.5t-59.5 -25.5t-21.5 -70.5h156z" />
    <glyph glyph-name="Racute" unicode="&#x154;" horiz-adv-x="722" 
d="M357 674q135 0 210 -54t75 -151q0 -66 -33 -115t-82 -75v-5l49 -80q22 -36 48 -57.5t68 -21.5h10v-115q-38 -7 -81 -7q-39 0 -70.5 6t-57.5 20t-47.5 36.5t-41.5 55.5l-80 132h-40v-128h50v-115h-298v115h60v444h-60v115h321zM284 358h43q34 0 57.5 9t37.5 23.5t20.5 33
t6.5 38.5q0 42 -27.5 69.5t-90.5 27.5h-47v-201zM339 954q16 30 33.5 42t38.5 12q29 0 48.5 -18.5t19.5 -47.5q0 -16 -7.5 -32t-27.5 -36l-119 -123l-67 52z" />
    <glyph glyph-name="racute" unicode="&#x155;" horiz-adv-x="501" 
d="M254 477v-30l-25 -90h8q10 24 25.5 48t37.5 43t52 31t69 12q13 0 26 -1.5t21 -3.5v-144q-18 5 -47 5q-31 0 -59.5 -8t-50.5 -26t-35 -47t-13 -71v-91h65v-104h-290v104h55v269h-60v104h221zM247 754q16 30 33.5 42t38.5 12q29 0 48.5 -18.5t19.5 -47.5q0 -16 -7.5 -32
t-27.5 -36l-119 -123l-67 52z" />
    <glyph glyph-name="Rcommaaccent" unicode="&#x156;" horiz-adv-x="722" 
d="M357 674q135 0 210 -54t75 -151q0 -66 -33 -115t-82 -75v-5l49 -80q22 -36 48 -57.5t68 -21.5h10v-115q-38 -7 -81 -7q-39 0 -70.5 6t-57.5 20t-47.5 36.5t-41.5 55.5l-80 132h-40v-128h50v-115h-298v115h60v444h-60v115h321zM284 358h43q34 0 57.5 9t37.5 23.5t20.5 33
t6.5 38.5q0 42 -27.5 69.5t-90.5 27.5h-47v-201zM308 -205q17 10 23 20.5t6 21.5q0 10 -4 17t-9.5 13.5t-9.5 14t-4 19.5q0 21 14.5 39t43.5 18t45.5 -19t16.5 -51q0 -24 -9.5 -45t-24 -37.5t-32.5 -28t-35 -16.5z" />
    <glyph glyph-name="rcommaaccent" unicode="&#x157;" horiz-adv-x="501" 
d="M254 477v-30l-25 -90h8q10 24 25.5 48t37.5 43t52 31t69 12q13 0 26 -1.5t21 -3.5v-144q-18 5 -47 5q-31 0 -59.5 -8t-50.5 -26t-35 -47t-13 -71v-91h65v-104h-290v104h55v269h-60v104h221zM122 -205q17 10 23 20.5t6 21.5q0 10 -4 17t-9.5 13.5t-9.5 14t-4 19.5
q0 21 14.5 39t43.5 18t45.5 -19t16.5 -51q0 -24 -9.5 -45t-24 -37.5t-32.5 -28t-35 -16.5z" />
    <glyph glyph-name="Rcaron" unicode="&#x158;" horiz-adv-x="722" 
d="M357 674q135 0 210 -54t75 -151q0 -66 -33 -115t-82 -75v-5l49 -80q22 -36 48 -57.5t68 -21.5h10v-115q-38 -7 -81 -7q-39 0 -70.5 6t-57.5 20t-47.5 36.5t-41.5 55.5l-80 132h-40v-128h50v-115h-298v115h60v444h-60v115h321zM284 358h43q34 0 57.5 9t37.5 23.5t20.5 33
t6.5 38.5q0 42 -27.5 69.5t-90.5 27.5h-47v-201zM156 1006l132 -112l142 112l60 -61l-124 -150q-20 -24 -37 -34.5t-40 -10.5q-24 0 -42.5 10.5t-36.5 34.5l-114 150z" />
    <glyph glyph-name="rcaron" unicode="&#x159;" horiz-adv-x="501" 
d="M254 477v-30l-25 -90h8q10 24 25.5 48t37.5 43t52 31t69 12q13 0 26 -1.5t21 -3.5v-144q-18 5 -47 5q-31 0 -59.5 -8t-50.5 -26t-35 -47t-13 -71v-91h65v-104h-290v104h55v269h-60v104h221zM118 806l132 -112l142 112l60 -61l-124 -150q-20 -24 -37 -34.5t-40 -10.5
q-24 0 -42.5 10.5t-36.5 34.5l-114 150z" />
    <glyph glyph-name="Sacute" unicode="&#x15a;" horiz-adv-x="658" 
d="M573 477h-149v83q-24 8 -45 10.5t-43 2.5q-37 0 -62.5 -9.5t-25.5 -38.5q0 -17 9.5 -30.5t29.5 -26.5t50 -27t71 -33q36 -17 73 -36.5t67.5 -46.5t50 -63.5t19.5 -86.5q0 -52 -21.5 -88t-60 -58.5t-91 -32.5t-113.5 -10q-33 0 -69.5 3t-72.5 9t-70.5 15t-64.5 21v182h149
v-93q51 -21 120 -21q17 0 33.5 2t30 7t22 15t8.5 27q0 18 -11 33.5t-31 29t-47 26.5t-58 28q-42 19 -82 40t-71.5 48t-50.5 62.5t-19 84.5q0 51 21 86t58.5 56.5t88 31t109.5 9.5q67 0 130 -10.5t118 -28.5v-172zM352 954q16 30 33.5 42t38.5 12q29 0 48.5 -18.5t19.5 -47.5
q0 -16 -7.5 -32t-27.5 -36l-119 -123l-67 52z" />
    <glyph glyph-name="sacute" unicode="&#x15b;" horiz-adv-x="535" 
d="M470 326h-140v54q-14 5 -28 6.5t-28 1.5q-26 0 -42.5 -6t-16.5 -21q0 -14 16 -23.5t41 -18.5l80 -29q28 -10 54 -23t46.5 -31t32.5 -42.5t12 -57.5q0 -39 -18 -67.5t-50.5 -47t-77.5 -27t-98 -8.5q-62 0 -115.5 10t-85.5 24v140h140v-62q15 -5 32 -6.5t28 -1.5
q29 0 49.5 6.5t20.5 27.5q0 14 -14.5 22.5t-51.5 22.5l-80 29q-27 10 -50.5 22.5t-41 30.5t-28 41t-10.5 54q0 37 16 64.5t45 45.5t69.5 26.5t90.5 8.5q60 0 112 -10.5t91 -24.5v-130zM268 754q16 30 33.5 42t38.5 12q29 0 48.5 -18.5t19.5 -47.5q0 -16 -7.5 -32t-27.5 -36
l-119 -123l-67 52z" />
    <glyph glyph-name="Scircumflex" unicode="&#x15c;" horiz-adv-x="658" 
d="M573 477h-149v83q-24 8 -45 10.5t-43 2.5q-37 0 -62.5 -9.5t-25.5 -38.5q0 -17 9.5 -30.5t29.5 -26.5t50 -27t71 -33q36 -17 73 -36.5t67.5 -46.5t50 -63.5t19.5 -86.5q0 -52 -21.5 -88t-60 -58.5t-91 -32.5t-113.5 -10q-33 0 -69.5 3t-72.5 9t-70.5 15t-64.5 21v182h149
v-93q51 -21 120 -21q17 0 33.5 2t30 7t22 15t8.5 27q0 18 -11 33.5t-31 29t-47 26.5t-58 28q-42 19 -82 40t-71.5 48t-50.5 62.5t-19 84.5q0 51 21 86t58.5 56.5t88 31t109.5 9.5q67 0 130 -10.5t118 -28.5v-172zM236 961q18 24 36.5 34.5t42.5 10.5q23 0 40 -10.5t37 -34.5
l124 -150l-60 -61l-142 112l-132 -112l-60 61z" />
    <glyph glyph-name="scircumflex" unicode="&#x15d;" horiz-adv-x="535" 
d="M470 326h-140v54q-14 5 -28 6.5t-28 1.5q-26 0 -42.5 -6t-16.5 -21q0 -14 16 -23.5t41 -18.5l80 -29q28 -10 54 -23t46.5 -31t32.5 -42.5t12 -57.5q0 -39 -18 -67.5t-50.5 -47t-77.5 -27t-98 -8.5q-62 0 -115.5 10t-85.5 24v140h140v-62q15 -5 32 -6.5t28 -1.5
q29 0 49.5 6.5t20.5 27.5q0 14 -14.5 22.5t-51.5 22.5l-80 29q-27 10 -50.5 22.5t-41 30.5t-28 41t-10.5 54q0 37 16 64.5t45 45.5t69.5 26.5t90.5 8.5q60 0 112 -10.5t91 -24.5v-130zM194 761q18 24 36.5 34.5t42.5 10.5q23 0 40 -10.5t37 -34.5l124 -150l-60 -61l-142 112
l-132 -112l-60 61z" />
    <glyph glyph-name="Scedilla" unicode="&#x15e;" horiz-adv-x="658" 
d="M573 477h-149v83q-24 8 -45 10.5t-43 2.5q-37 0 -62.5 -9.5t-25.5 -38.5q0 -17 10 -30.5t30 -26.5t50 -27.5t70 -32.5q36 -17 73 -36.5t67.5 -46t50 -62t19.5 -82.5t-20 -82t-54.5 -59t-82 -37t-102.5 -16l-7 -29q31 -3 54.5 -26t23.5 -64q0 -26 -10.5 -45.5t-29 -33
t-43.5 -20.5t-55 -7q-34 0 -59 9v65h19q59 0 59 37q0 19 -13.5 29t-45.5 10l17 77q-54 4 -110.5 14.5t-103.5 30.5v182h149v-93q51 -21 120 -21q17 0 33.5 2t30 7t22 15t8.5 27q0 18 -11 33.5t-31 29t-47 26.5t-58 28q-42 19 -82 40t-71.5 48t-50.5 62.5t-19 84.5
q0 51 21 86t58.5 56.5t88 31t109.5 9.5q67 0 130 -10.5t118 -28.5v-172z" />
    <glyph glyph-name="scedilla" unicode="&#x15f;" horiz-adv-x="535" 
d="M470 326h-140v54q-27 8 -58 8q-25 0 -41 -6t-16 -21q0 -14 16 -23.5t41 -18.5l85 -31q23 -9 48 -21t45.5 -29.5t33.5 -42.5t13 -59q0 -35 -14 -61t-39.5 -44t-61.5 -28.5t-79 -14.5l-6 -29q32 -3 52 -28t20 -63q0 -51 -36.5 -78.5t-96.5 -27.5q-34 0 -59 9v65h19
q59 0 59 36q0 40 -59 40l17 75q-50 3 -92 12t-69 21v140h140v-62q11 -5 31 -6.5t34 -1.5q26 0 45.5 7t19.5 27q0 14 -13.5 22.5t-52.5 22.5l-64 23q-30 11 -57 24t-46.5 31t-31 42t-11.5 56q0 74 60 110t161 36q60 0 112 -10.5t91 -24.5v-130z" />
    <glyph glyph-name="Scaron" unicode="&#x160;" horiz-adv-x="658" 
d="M573 477h-149v83q-24 8 -45 10.5t-43 2.5q-37 0 -62.5 -9.5t-25.5 -38.5q0 -17 9.5 -30.5t29.5 -26.5t50 -27t71 -33q36 -17 73 -36.5t67.5 -46.5t50 -63.5t19.5 -86.5q0 -52 -21.5 -88t-60 -58.5t-91 -32.5t-113.5 -10q-33 0 -69.5 3t-72.5 9t-70.5 15t-64.5 21v182h149
v-93q51 -21 120 -21q17 0 33.5 2t30 7t22 15t8.5 27q0 18 -11 33.5t-31 29t-47 26.5t-58 28q-42 19 -82 40t-71.5 48t-50.5 62.5t-19 84.5q0 51 21 86t58.5 56.5t88 31t109.5 9.5q67 0 130 -10.5t118 -28.5v-172zM178 1006l132 -112l142 112l60 -61l-124 -150
q-20 -24 -37 -34.5t-40 -10.5q-24 0 -42.5 10.5t-36.5 34.5l-114 150z" />
    <glyph glyph-name="scaron" unicode="&#x161;" horiz-adv-x="535" 
d="M470 326h-140v54q-14 5 -28 6.5t-28 1.5q-26 0 -42.5 -6t-16.5 -21q0 -14 16 -23.5t41 -18.5l80 -29q28 -10 54 -23t46.5 -31t32.5 -42.5t12 -57.5q0 -39 -18 -67.5t-50.5 -47t-77.5 -27t-98 -8.5q-62 0 -115.5 10t-85.5 24v140h140v-62q15 -5 32 -6.5t28 -1.5
q29 0 49.5 6.5t20.5 27.5q0 14 -14.5 22.5t-51.5 22.5l-80 29q-27 10 -50.5 22.5t-41 30.5t-28 41t-10.5 54q0 37 16 64.5t45 45.5t69.5 26.5t90.5 8.5q60 0 112 -10.5t91 -24.5v-130zM140 806l132 -112l142 112l60 -61l-124 -150q-20 -24 -37 -34.5t-40 -10.5
q-24 0 -42.5 10.5t-36.5 34.5l-114 150z" />
    <glyph glyph-name="uni0162" unicode="&#x162;" horiz-adv-x="774" 
d="M734 674v-235h-150v120h-103v-444h80v-115h-130l-9 -42q31 -3 54.5 -26t23.5 -64q0 -26 -10.5 -45.5t-29 -33t-43.5 -20.5t-55 -7q-34 0 -59 9v65h19q59 0 59 37q0 19 -13.5 29t-45.5 10l19 88h-128v115h80v444h-103v-120h-150v235h694z" />
    <glyph glyph-name="uni0163" unicode="&#x163;" horiz-adv-x="428" 
d="M259 627v-150h140v-104h-140v-167q0 -55 28.5 -78.5t82.5 -23.5h19v-104q-30 -5 -59.5 -6.5t-58.5 3.5l-12 -37q32 -4 53 -28t21 -66q0 -49 -36.5 -76.5t-96.5 -27.5q-34 0 -59 9v65h19q59 0 59 36q0 40 -59 40l32 104q-45 20 -74 63t-29 117v177h-70v104h75v150h165z
" />
    <glyph glyph-name="Tcaron" unicode="&#x164;" horiz-adv-x="774" 
d="M734 674v-235h-150v120h-103v-444h80v-115h-348v115h80v444h-103v-120h-150v235h694zM255 1006l132 -112l142 112l60 -61l-124 -150q-20 -24 -37 -34.5t-40 -10.5q-24 0 -42.5 10.5t-36.5 34.5l-114 150z" />
    <glyph glyph-name="tcaron" unicode="&#x165;" horiz-adv-x="428" 
d="M259 627v-150h140v-104h-140v-167q0 -55 28.5 -78.5t82.5 -23.5h19v-104q-17 -3 -43 -5t-46 -2q-43 0 -81.5 11t-67 35t-45.5 62.5t-17 94.5v177h-70v104h70v150h170zM299 561q17 10 23 20.5t6 21.5q0 10 -4 17t-9.5 13.5t-9.5 14t-4 19.5q0 22 15.5 34.5t38.5 12.5
q28 0 47 -19t19 -52q0 -23 -9.5 -42t-24 -34t-32.5 -25t-35 -15z" />
    <glyph glyph-name="Tbar" unicode="&#x166;" horiz-adv-x="774" 
d="M734 674v-225h-150v110h-103v-176h90v-105h-90v-163h80v-115h-348v115h80v163h-90v105h90v176h-103v-110h-150v225h694z" />
    <glyph glyph-name="tbar" unicode="&#x167;" horiz-adv-x="428" 
d="M259 627v-150h140v-99h-140v-50h140v-99h-140v-23q0 -55 28.5 -78.5t82.5 -23.5h19v-104q-17 -3 -43 -5t-46 -2q-43 0 -81.5 11t-67 35t-45.5 62.5t-17 94.5v33h-70v99h70v50h-70v99h70v150h170z" />
    <glyph glyph-name="Utilde" unicode="&#x168;" horiz-adv-x="792" 
d="M357 674v-115h-75v-256q0 -33 3.5 -67t16.5 -62t38.5 -46t69.5 -18q40 0 64 15.5t36.5 41.5t16 61t3.5 74v257h-75v115h303v-115h-60v-267q0 -156 -70 -231t-229 -75q-156 0 -230.5 73.5t-74.5 233.5v266h-60v115h323zM277 774l-49 40q7 44 34.5 72t67.5 28q25 0 57 -13
l77 -31l52 44l49 -40q-6 -43 -33.5 -72t-66.5 -29q-26 0 -59 14l-76 31z" />
    <glyph glyph-name="utilde" unicode="&#x169;" horiz-adv-x="644" 
d="M254 477v-280q0 -38 16.5 -57t43.5 -19q36 0 56 30t20 81v141h-60v104h230v-325q0 -26 14.5 -37t40.5 -11v-104q-11 -4 -26 -5.5t-29 -1.5q-52 0 -88.5 21.5t-44.5 65.5h-6q-22 -43 -63 -68.5t-98 -25.5q-39 0 -71.5 13.5t-56 38t-36 59.5t-12.5 79v197h-55v104h225z
M193 574l-49 40q7 44 34.5 72t67.5 28q25 0 57 -13l77 -31l52 44l49 -40q-6 -43 -33.5 -72t-66.5 -29q-26 0 -59 14l-76 31z" />
    <glyph glyph-name="Umacron" unicode="&#x16a;" horiz-adv-x="792" 
d="M357 674v-115h-75v-256q0 -33 3.5 -67t16.5 -62t38.5 -46t69.5 -18q40 0 64 15.5t36.5 41.5t16 61t3.5 74v257h-75v115h303v-115h-60v-267q0 -156 -70 -231t-229 -75q-156 0 -230.5 73.5t-74.5 233.5v266h-60v115h323zM541 879v-105h-284v105h284z" />
    <glyph glyph-name="umacron" unicode="&#x16b;" horiz-adv-x="644" 
d="M254 477v-280q0 -38 16.5 -57t43.5 -19q36 0 56 30t20 81v141h-60v104h230v-325q0 -26 14.5 -37t40.5 -11v-104q-11 -4 -26 -5.5t-29 -1.5q-52 0 -88.5 21.5t-44.5 65.5h-6q-22 -43 -63 -68.5t-98 -25.5q-39 0 -71.5 13.5t-56 38t-36 59.5t-12.5 79v197h-55v104h225z
M449 679v-105h-284v105h284z" />
    <glyph glyph-name="Ubreve" unicode="&#x16c;" horiz-adv-x="792" 
d="M357 674v-115h-75v-256q0 -33 3.5 -67t16.5 -62t38.5 -46t69.5 -18q40 0 64 15.5t36.5 41.5t16 61t3.5 74v257h-75v115h303v-115h-60v-267q0 -156 -70 -231t-229 -75q-156 0 -230.5 73.5t-74.5 233.5v266h-60v115h323zM314 968q4 -40 25.5 -62t56.5 -22t56.5 22t25.5 62
l105 -20q-4 -81 -55.5 -127.5t-132.5 -46.5t-131.5 46.5t-54.5 127.5z" />
    <glyph glyph-name="ubreve" unicode="&#x16d;" horiz-adv-x="644" 
d="M254 477v-280q0 -38 16.5 -57t43.5 -19q36 0 56 30t20 81v141h-60v104h230v-325q0 -26 14.5 -37t40.5 -11v-104q-11 -4 -26 -5.5t-29 -1.5q-52 0 -88.5 21.5t-44.5 65.5h-6q-22 -43 -63 -68.5t-98 -25.5q-39 0 -71.5 13.5t-56 38t-36 59.5t-12.5 79v197h-55v104h225z
M211 768q4 -40 25.5 -62t56.5 -22t56.5 22t25.5 62l105 -20q-4 -81 -55.5 -127.5t-132.5 -46.5t-131.5 46.5t-54.5 127.5z" />
    <glyph glyph-name="Uring" unicode="&#x16e;" horiz-adv-x="792" 
d="M357 674v-115h-75v-256q0 -33 3.5 -67t16.5 -62t38.5 -46t69.5 -18q40 0 64 15.5t36.5 41.5t16 61t3.5 74v257h-75v115h303v-115h-60v-267q0 -156 -70 -231t-229 -75q-156 0 -230.5 73.5t-74.5 233.5v266h-60v115h323zM396 960q22 0 42 -8.5t34.5 -22.5t23 -33t8.5 -41
t-8.5 -41t-23 -33.5t-34.5 -22.5t-42 -8q-23 0 -42.5 8t-34 22.5t-23 33.5t-8.5 41t8.5 41t23 33t34 22.5t42.5 8.5zM396 890q-15 0 -24 -9.5t-9 -25.5q0 -17 9 -26.5t24 -9.5q14 0 23.5 9.5t9.5 26.5q0 16 -9.5 25.5t-23.5 9.5z" />
    <glyph glyph-name="uring" unicode="&#x16f;" horiz-adv-x="644" 
d="M254 477v-280q0 -38 16.5 -57t43.5 -19q36 0 56 30t20 81v141h-60v104h230v-325q0 -26 14.5 -37t40.5 -11v-104q-11 -4 -26 -5.5t-29 -1.5q-52 0 -88.5 21.5t-44.5 65.5h-6q-22 -43 -63 -68.5t-98 -25.5q-39 0 -71.5 13.5t-56 38t-36 59.5t-12.5 79v197h-55v104h225z
M305 760q22 0 42 -8.5t34.5 -22.5t23 -33t8.5 -41t-8.5 -41t-23 -33.5t-34.5 -22.5t-42 -8q-23 0 -42.5 8t-34 22.5t-23 33.5t-8.5 41t8.5 41t23 33t34 22.5t42.5 8.5zM305 690q-15 0 -24 -9.5t-9 -25.5q0 -17 9 -26.5t24 -9.5q14 0 23.5 9.5t9.5 26.5q0 16 -9.5 25.5
t-23.5 9.5z" />
    <glyph glyph-name="Uhungarumlaut" unicode="&#x170;" horiz-adv-x="792" 
d="M357 674v-115h-75v-256q0 -33 3.5 -67t16.5 -62t38.5 -46t69.5 -18q40 0 64 15.5t36.5 41.5t16 61t3.5 74v257h-75v115h303v-115h-60v-267q0 -156 -70 -231t-229 -75q-156 0 -230.5 73.5t-74.5 233.5v266h-60v115h323zM326 962q10 20 27.5 32t40.5 12q29 0 46.5 -18
t17.5 -46q0 -31 -25 -59l-118 -133l-70 49zM534 965q11 19 27 30t39 11q29 0 48 -16.5t19 -48.5q0 -15 -5.5 -29.5t-19.5 -28.5l-133 -133l-68 49z" />
    <glyph glyph-name="uhungarumlaut" unicode="&#x171;" horiz-adv-x="644" 
d="M254 477v-280q0 -38 16.5 -57t43.5 -19q36 0 56 30t20 81v141h-60v104h230v-325q0 -26 14.5 -37t40.5 -11v-104q-11 -4 -26 -5.5t-29 -1.5q-52 0 -88.5 21.5t-44.5 65.5h-6q-22 -43 -63 -68.5t-98 -25.5q-39 0 -71.5 13.5t-56 38t-36 59.5t-12.5 79v197h-55v104h225z
M229 762q10 20 27.5 32t40.5 12q29 0 46.5 -18t17.5 -46q0 -31 -25 -59l-118 -133l-70 49zM437 765q11 19 27 30t39 11q29 0 48 -16.5t19 -48.5q0 -15 -5.5 -29.5t-19.5 -28.5l-133 -133l-68 49z" />
    <glyph glyph-name="Uogonek" unicode="&#x172;" horiz-adv-x="792" 
d="M357 674v-115h-75v-256q0 -33 3.5 -67t16.5 -62t38.5 -46t69.5 -18q40 0 64 15.5t36.5 41.5t16 61t3.5 74v257h-75v115h303v-115h-60v-267q0 -134 -54.5 -209t-173.5 -92q-17 -5 -26 -19t-9 -32q0 -20 12 -33.5t35 -13.5q13 0 24 4v-85q-18 -8 -37.5 -11.5t-38.5 -3.5
q-28 0 -52.5 6.5t-43 19.5t-29 33t-10.5 47q0 24 8.5 45.5t25.5 34.5l-2 5q-54 7 -97.5 27t-73.5 56.5t-46 91t-16 130.5v266h-60v115h323z" />
    <glyph glyph-name="uogonek" unicode="&#x173;" horiz-adv-x="644" 
d="M254 477v-280q0 -38 16.5 -57t43.5 -19q36 0 56 30t20 81v141h-60v104h230v-325q0 -26 14.5 -37t40.5 -11v-104q-27 0 -49 -16t-22 -47q0 -22 13 -33t34 -11q13 0 24 4v-85q-18 -8 -37.5 -11.5t-37.5 -3.5q-27 0 -51.5 7t-43.5 20.5t-30 34.5t-11 50q0 35 16 66t42 50v6
q-12 5 -22.5 19t-11.5 30h-7q-22 -43 -62.5 -68.5t-97.5 -25.5q-40 0 -72.5 13.5t-56 38t-36 59.5t-12.5 79v197h-55v104h225z" />
    <glyph glyph-name="Wcircumflex" unicode="&#x174;" horiz-adv-x="1047" 
d="M322 674v-115h-66l59 -278l8 -61h7l8 61l82 393h219l84 -393l8 -61h7l7 61l61 278h-68v115h289v-115h-46l-129 -559h-248l-68 350l-8 61h-7l-8 -61l-67 -350h-254l-126 559h-46v115h302zM446 961q18 24 36.5 34.5t42.5 10.5q23 0 40 -10.5t37 -34.5l124 -150l-60 -61
l-142 112l-132 -112l-60 61z" />
    <glyph glyph-name="wcircumflex" unicode="&#x175;" horiz-adv-x="880" 
d="M202 477l59 -272l9 -65h6l9 65l63 272h174l83 -272l10 -65h6l8 65l38 168h-55v104h252v-104h-50l-97 -373h-200l-70 227l-10 65h-6l-8 -65l-55 -227h-210l-92 373h-50v104h186zM358 761q18 24 36.5 34.5t42.5 10.5q23 0 40 -10.5t37 -34.5l124 -150l-60 -61l-142 112
l-132 -112l-60 61z" />
    <glyph glyph-name="Ycircumflex" unicode="&#x176;" horiz-adv-x="783" 
d="M350 674v-115h-69l-2 -5l22 -24l97 -142h5l99 142l23 24l-2 5h-69v115h309v-115h-50l-230 -309v-135h80v-115h-348v115h80v135l-225 309h-50v115h330zM323 961q18 24 36.5 34.5t42.5 10.5q23 0 40 -10.5t37 -34.5l124 -150l-60 -61l-142 112l-132 -112l-60 61z" />
    <glyph glyph-name="ycircumflex" unicode="&#x177;" horiz-adv-x="624" 
d="M254 477v-266q0 -38 16.5 -57t43.5 -19q36 0 56 30t20 81v127h-60v104h230v-399q0 -81 -21 -140.5t-59 -98.5t-92.5 -58t-121.5 -19q-49 0 -87 8.5t-64 19.5v120q26 -13 61 -20.5t66 -7.5q68 0 110.5 41t42.5 125v20h-6q-20 -37 -51.5 -52.5t-75.5 -15.5
q-41 0 -73.5 13.5t-56 38t-36 59.5t-12.5 79v183h-55v104h225zM234 761q18 24 36.5 34.5t42.5 10.5q23 0 40 -10.5t37 -34.5l124 -150l-60 -61l-142 112l-132 -112l-60 61z" />
    <glyph glyph-name="Ydieresis" unicode="&#x178;" horiz-adv-x="783" 
d="M350 674v-115h-69l-2 -5l22 -24l97 -142h5l99 142l23 24l-2 5h-69v115h309v-115h-50l-230 -309v-135h80v-115h-348v115h80v135l-225 309h-50v115h330zM285 928q36 0 58.5 -23.5t22.5 -64.5t-23 -63.5t-58 -22.5q-36 0 -58 22.5t-22 63.5t21.5 64.5t58.5 23.5zM516 928
q36 0 58.5 -23.5t22.5 -64.5t-22.5 -63.5t-58.5 -22.5t-58 22.5t-22 63.5t22 64.5t58 23.5z" />
    <glyph glyph-name="Zacute" unicode="&#x179;" horiz-adv-x="653" 
d="M616 674v-115l-320 -399l-44 -40l3 -5h212v120h150v-235h-585v115l319 399l44 40l-3 5h-185v-110h-150v225h559zM397 954q16 30 33.5 42t38.5 12q29 0 48.5 -18.5t19.5 -47.5q0 -16 -7.5 -32t-27.5 -36l-119 -123l-67 52z" />
    <glyph glyph-name="zacute" unicode="&#x17a;" horiz-adv-x="552" 
d="M512 477v-99l-227 -239l-45 -35l2 -5h132v81h138v-180h-472v104l223 234l45 35l-2 5h-123v-71h-138v170h467zM308 754q16 30 33.5 42t38.5 12q29 0 48.5 -18.5t19.5 -47.5q0 -16 -7.5 -32t-27.5 -36l-119 -123l-67 52z" />
    <glyph glyph-name="Zdotaccent" unicode="&#x17b;" horiz-adv-x="653" 
d="M616 674v-115l-320 -399l-44 -40l3 -5h212v120h150v-235h-585v115l319 399l44 40l-3 5h-185v-110h-150v225h559zM348 928q46 0 73.5 -24.5t27.5 -62.5t-27.5 -62.5t-73.5 -24.5q-45 0 -72 24.5t-27 62.5t27 62.5t72 24.5z" />
    <glyph glyph-name="zdotaccent" unicode="&#x17c;" horiz-adv-x="552" 
d="M512 477v-99l-227 -239l-45 -35l2 -5h132v81h138v-180h-472v104l223 234l45 35l-2 5h-123v-71h-138v170h467zM275 728q46 0 73.5 -24.5t27.5 -62.5t-27.5 -62.5t-73.5 -24.5q-45 0 -72 24.5t-27 62.5t27 62.5t72 24.5z" />
    <glyph glyph-name="Zcaron" unicode="&#x17d;" horiz-adv-x="653" 
d="M616 674v-115l-320 -399l-44 -40l3 -5h212v120h150v-235h-585v115l319 399l44 40l-3 5h-185v-110h-150v225h559zM207 1006l132 -112l142 112l60 -61l-124 -150q-20 -24 -37 -34.5t-40 -10.5q-24 0 -42.5 10.5t-36.5 34.5l-114 150z" />
    <glyph glyph-name="zcaron" unicode="&#x17e;" horiz-adv-x="552" 
d="M512 477v-99l-227 -239l-45 -35l2 -5h132v81h138v-180h-472v104l223 234l45 35l-2 5h-123v-71h-138v170h467zM144 806l132 -112l142 112l60 -61l-124 -150q-20 -24 -37 -34.5t-40 -10.5q-24 0 -42.5 10.5t-36.5 34.5l-114 150z" />
    <glyph glyph-name="longs" unicode="&#x17f;" horiz-adv-x="400" 
d="M416 607q-12 4 -29.5 6t-31.5 2q-42 0 -60.5 -23.5t-18.5 -68.5v-419h75v-104h-320v104h75v269h-80v104h85v56q0 54 17 91t44 60t61.5 33.5t70.5 10.5q28 0 58.5 -5.5t53.5 -18.5v-97z" />
    <glyph glyph-name="florin" unicode="&#x192;" horiz-adv-x="505" 
d="M160 405l10 97q4 42 18.5 76t39 58.5t59 38t78.5 13.5q26 0 48 -5t42 -19v-107q-21 8 -46 8q-33 0 -52.5 -19.5t-23.5 -53.5l-9 -87h105v-106h-116l-37 -351q-9 -87 -59.5 -136.5t-135.5 -49.5q-23 0 -46.5 5t-43.5 20v106q10 -5 21.5 -6.5t22.5 -1.5q34 0 54 19.5
t24 53.5l36 341h-65v106h76z" />
    <glyph glyph-name="uni0218" unicode="&#x218;" horiz-adv-x="658" 
d="M573 477h-149v83q-24 8 -45 10.5t-43 2.5q-37 0 -62.5 -9.5t-25.5 -38.5q0 -17 9.5 -30.5t29.5 -26.5t50 -27t71 -33q36 -17 73 -36.5t67.5 -46.5t50 -63.5t19.5 -86.5q0 -52 -21.5 -88t-60 -58.5t-91 -32.5t-113.5 -10q-33 0 -69.5 3t-72.5 9t-70.5 15t-64.5 21v182h149
v-93q51 -21 120 -21q17 0 33.5 2t30 7t22 15t8.5 27q0 18 -11 33.5t-31 29t-47 26.5t-58 28q-42 19 -82 40t-71.5 48t-50.5 62.5t-19 84.5q0 51 21 86t58.5 56.5t88 31t109.5 9.5q67 0 130 -10.5t118 -28.5v-172zM270 -205q17 10 23 20.5t6 21.5q0 10 -4 17t-9.5 13.5
t-9.5 14t-4 19.5q0 21 14.5 39t43.5 18t45.5 -19t16.5 -51q0 -24 -9.5 -45t-24 -37.5t-32.5 -28t-35 -16.5z" />
    <glyph glyph-name="uni0219" unicode="&#x219;" horiz-adv-x="535" 
d="M470 326h-140v54q-14 5 -28 6.5t-28 1.5q-26 0 -42.5 -6t-16.5 -21q0 -14 16 -23.5t41 -18.5l80 -29q28 -10 54 -23t46.5 -31t32.5 -42.5t12 -57.5q0 -39 -18 -67.5t-50.5 -47t-77.5 -27t-98 -8.5q-62 0 -115.5 10t-85.5 24v140h140v-62q15 -5 32 -6.5t28 -1.5
q29 0 49.5 6.5t20.5 27.5q0 14 -14.5 22.5t-51.5 22.5l-80 29q-27 10 -50.5 22.5t-41 30.5t-28 41t-10.5 54q0 37 16 64.5t45 45.5t69.5 26.5t90.5 8.5q60 0 112 -10.5t91 -24.5v-130zM220 -205q17 10 23 20.5t6 21.5q0 10 -4 17t-9.5 13.5t-9.5 14t-4 19.5q0 21 14.5 39
t43.5 18t45.5 -19t16.5 -51q0 -24 -9.5 -45t-24 -37.5t-32.5 -28t-35 -16.5z" />
    <glyph glyph-name="uni021A" unicode="&#x21a;" horiz-adv-x="774" 
d="M734 674v-235h-150v120h-103v-444h80v-115h-348v115h80v444h-103v-120h-150v235h694zM331 -205q17 10 23 20.5t6 21.5q0 10 -4 17t-9.5 13.5t-9.5 14t-4 19.5q0 21 14.5 39t43.5 18t45.5 -19t16.5 -51q0 -24 -9.5 -45t-24 -37.5t-32.5 -28t-35 -16.5z" />
    <glyph glyph-name="uni021B" unicode="&#x21b;" horiz-adv-x="428" 
d="M259 627v-150h140v-104h-140v-167q0 -55 28.5 -78.5t82.5 -23.5h19v-104q-17 -3 -43 -5t-46 -2q-43 0 -81.5 11t-67 35t-45.5 62.5t-17 94.5v177h-70v104h70v150h170zM165 -205q17 10 23 20.5t6 21.5q0 10 -4 17t-9.5 13.5t-9.5 14t-4 19.5q0 21 14.5 39t43.5 18
t45.5 -19t16.5 -51q0 -24 -9.5 -45t-24 -37.5t-32.5 -28t-35 -16.5z" />
    <glyph glyph-name="dotlessj" unicode="&#x237;" horiz-adv-x="325" 
d="M273 477v-432q0 -56 -15.5 -103.5t-47 -83.5t-80 -57.5t-114.5 -24.5v105q44 15 65.5 50t21.5 104v338h-65v104h235z" />
    <glyph glyph-name="uni02BC" unicode="&#x2bc;" horiz-adv-x="234" 
d="M40 561q23 4 30 14.5t7 21.5q0 12 -5 20t-10.5 15.5t-10.5 16t-5 23.5q0 28 19 42t48 14q41 0 61 -23.5t20 -60.5q0 -35 -16 -59t-39.5 -40t-50 -24t-48.5 -10v50z" />
    <glyph glyph-name="circumflex" unicode="&#x2c6;" horiz-adv-x="474" 
d="M159 761q18 24 36.5 34.5t42.5 10.5q23 0 40 -10.5t37 -34.5l124 -150l-60 -61l-142 112l-132 -112l-60 61z" />
    <glyph glyph-name="caron" unicode="&#x2c7;" horiz-adv-x="474" 
d="M105 806l132 -112l142 112l60 -61l-124 -150q-20 -24 -37 -34.5t-40 -10.5q-24 0 -42.5 10.5t-36.5 34.5l-114 150z" />
    <glyph glyph-name="breve" unicode="&#x2d8;" horiz-adv-x="454" 
d="M145 768q4 -40 25.5 -62t56.5 -22t56.5 22t25.5 62l105 -20q-4 -81 -55.5 -127.5t-132.5 -46.5t-131.5 46.5t-54.5 127.5z" />
    <glyph glyph-name="dotaccent" unicode="&#x2d9;" horiz-adv-x="280" 
d="M139 728q46 0 73.5 -24.5t27.5 -62.5t-27.5 -62.5t-73.5 -24.5q-45 0 -72 24.5t-27 62.5t27 62.5t72 24.5z" />
    <glyph glyph-name="ring" unicode="&#x2da;" horiz-adv-x="274" 
d="M137 760q22 0 42 -8.5t34.5 -22.5t23 -33t8.5 -41t-8.5 -41t-23 -33.5t-34.5 -22.5t-42 -8q-23 0 -42.5 8t-34 22.5t-23 33.5t-8.5 41t8.5 41t23 33t34 22.5t42.5 8.5zM137 690q-15 0 -24 -9.5t-9 -25.5q0 -17 9 -26.5t24 -9.5q14 0 23.5 9.5t9.5 26.5q0 16 -9.5 25.5
t-23.5 9.5z" />
    <glyph glyph-name="ogonek" unicode="&#x2db;" horiz-adv-x="341" 
d="M242 10v-10q-17 -9 -27 -24t-10 -35q0 -21 12 -34.5t35 -13.5q13 0 24 4v-85q-18 -8 -37.5 -11.5t-38.5 -3.5q-27 0 -51.5 6.5t-43 19.5t-29.5 32.5t-11 46.5q0 29 12.5 53.5t36.5 39.5l-2 5v10h130z" />
    <glyph glyph-name="tilde" unicode="&#x2dc;" horiz-adv-x="435" 
d="M98 574l-49 40q7 44 34.5 72t67.5 28q25 0 57 -13l77 -31l52 44l49 -40q-6 -43 -33.5 -72t-66.5 -29q-26 0 -59 14l-76 31z" />
    <glyph glyph-name="hungarumlaut" unicode="&#x2dd;" horiz-adv-x="502" 
d="M121 762q10 20 27.5 32t40.5 12q29 0 46.5 -18t17.5 -46q0 -31 -25 -59l-118 -133l-70 49zM329 765q11 19 27 30t39 11q29 0 48 -16.5t19 -48.5q0 -15 -5.5 -29.5t-19.5 -28.5l-133 -133l-68 49z" />
    <glyph glyph-name="Omega" unicode="&#x2126;" horiz-adv-x="796" 
d="M149 115q-55 45 -82 110.5t-27 139.5q0 73 25.5 133t72.5 102t113 65t146 23t146 -23t113 -65t72.5 -102t25.5 -133q0 -74 -27 -139.5t-82 -110.5h99v-115h-311v110q33 16 56 42t37 59t20.5 70.5t6.5 75.5q0 46 -9.5 85t-29 67t-48.5 43.5t-69 15.5q-41 0 -70.5 -15.5
t-48.5 -43.5t-28 -67t-9 -85q0 -38 6.5 -75.5t20.5 -70.5t37 -59t56 -42v-110h-311v115h99z" />
    <glyph glyph-name="Omega" unicode="&#x3a9;" horiz-adv-x="796" 
d="M149 115q-55 45 -82 110.5t-27 139.5q0 73 25.5 133t72.5 102t113 65t146 23t146 -23t113 -65t72.5 -102t25.5 -133q0 -74 -27 -139.5t-82 -110.5h99v-115h-311v110q33 16 56 42t37 59t20.5 70.5t6.5 75.5q0 46 -9.5 85t-29 67t-48.5 43.5t-69 15.5q-41 0 -70.5 -15.5
t-48.5 -43.5t-28 -67t-9 -85q0 -38 6.5 -75.5t20.5 -70.5t37 -59t56 -42v-110h-311v115h99z" />
    <glyph glyph-name="pi" unicode="&#x3c0;" horiz-adv-x="648" 
d="M614 477v-104h-55v-269h60v-104h-230v371h-131v-267h60v-104h-285v104h55v269h-55v104h581z" />
    <glyph glyph-name="uni0400" unicode="&#x400;" horiz-adv-x="647" 
d="M598 674v-215h-150v100h-164v-152h164v-120h-164v-172h169v110h150v-225h-567v115h60v444h-60v115h562zM352 803l-67 -52l-119 123q-20 20 -26.5 36t-6.5 31q0 30 19.5 48.5t48.5 18.5q23 0 39 -12.5t30 -38.5z" />
    <glyph glyph-name="uni0401" unicode="&#x401;" horiz-adv-x="647" 
d="M598 674v-215h-150v100h-164v-152h164v-120h-164v-172h169v110h150v-225h-567v115h60v444h-60v115h562zM207 928q36 0 58.5 -23.5t22.5 -64.5t-23 -63.5t-58 -22.5q-36 0 -58 22.5t-22 63.5t21.5 64.5t58.5 23.5zM438 928q36 0 58.5 -23.5t22.5 -64.5t-22.5 -63.5
t-58.5 -22.5t-58 22.5t-22 63.5t22 64.5t58 23.5z" />
    <glyph glyph-name="uni0402" unicode="&#x402;" horiz-adv-x="841" 
d="M734 674v-183h-150v68h-103v-140l-29 -103h8q10 22 25.5 44.5t37.5 40t51.5 28.5t67.5 11q36 0 65.5 -11t51.5 -33t34 -56t12 -80v-214q0 -52 -14 -99.5t-45 -84t-79.5 -59.5t-118.5 -27v124q13 3 25.5 9.5t22 18.5t15.5 31t6 47v224q0 31 -13 48.5t-38 17.5
q-16 0 -31.5 -7t-27.5 -20t-19 -32t-7 -43v-79h67v-115h-335v115h80v444h-103v-68h-150v183h694z" />
    <glyph glyph-name="uni0403" unicode="&#x403;" horiz-adv-x="629" 
d="M593 674v-225h-150v110h-159v-444h90v-115h-338v115h60v444h-60v115h557zM306 954q16 30 33.5 42t38.5 12q29 0 48.5 -18.5t19.5 -47.5q0 -16 -7.5 -32t-27.5 -36l-119 -123l-67 52z" />
    <glyph glyph-name="uni0404" unicode="&#x404;" horiz-adv-x="679" 
d="M489 398v-120h-241q3 -31 18.5 -61.5t44 -55t70 -40t95.5 -15.5q23 0 67.5 5.5t95.5 25.5v-113q-32 -13 -80.5 -25.5t-123.5 -12.5q-89 0 -161.5 22.5t-124.5 67.5t-80.5 111.5t-28.5 155.5q0 86 27 151t76.5 108t118.5 64.5t152 21.5q59 0 119 -10.5t106 -32.5v-190
h-150v108q-17 6 -35.5 8t-36.5 2q-35 0 -65 -14t-53 -37.5t-36.5 -55.5t-15.5 -68h242z" />
    <glyph glyph-name="uni0405" unicode="&#x405;" horiz-adv-x="658" 
d="M573 477h-149v83q-24 8 -45 10.5t-43 2.5q-37 0 -62.5 -9.5t-25.5 -38.5q0 -17 9.5 -30.5t29.5 -26.5t50 -27t71 -33q36 -17 73 -36.5t67.5 -46.5t50 -63.5t19.5 -86.5q0 -52 -21.5 -88t-60 -58.5t-91 -32.5t-113.5 -10q-33 0 -69.5 3t-72.5 9t-70.5 15t-64.5 21v182h149
v-93q51 -21 120 -21q17 0 33.5 2t30 7t22 15t8.5 27q0 18 -11 33.5t-31 29t-47 26.5t-58 28q-42 19 -82 40t-71.5 48t-50.5 62.5t-19 84.5q0 51 21 86t58.5 56.5t88 31t109.5 9.5q67 0 130 -10.5t118 -28.5v-172z" />
    <glyph glyph-name="uni0406" unicode="&#x406;" horiz-adv-x="380" 
d="M344 674v-115h-60v-444h60v-115h-308v115h60v444h-60v115h308z" />
    <glyph glyph-name="uni0407" unicode="&#x407;" horiz-adv-x="380" 
d="M344 674v-115h-60v-444h60v-115h-308v115h60v444h-60v115h308zM74 928q36 0 58.5 -23.5t22.5 -64.5t-23 -63.5t-58 -22.5q-36 0 -58 22.5t-22 63.5t21.5 64.5t58.5 23.5zM305 928q36 0 58.5 -23.5t22.5 -64.5t-22.5 -63.5t-58.5 -22.5t-58 22.5t-22 63.5t22 64.5t58 23.5
z" />
    <glyph glyph-name="uni0408" unicode="&#x408;" horiz-adv-x="398" 
d="M362 674v-115h-60v-449q0 -153 -72.5 -227t-205.5 -81v115q28 11 45.5 26.5t27.5 37t13.5 51t3.5 68.5v459h-80v115h328z" />
    <glyph glyph-name="uni0409" unicode="&#x409;" horiz-adv-x="1122" 
d="M783 674v-115h-60v-145h58q70 0 125.5 -12.5t94.5 -37.5t60 -64t21 -91q0 -53 -21 -92t-60 -65t-94.5 -39t-125.5 -13h-316v115h70v421h-8l-241 -421h75v-115h-341v115h65l260 444h-85v115h523zM723 115h48q60 0 88 27t28 65t-28 65t-88 27h-48v-184z" />
    <glyph glyph-name="uni040A" unicode="&#x40a;" horiz-adv-x="1087" 
d="M344 674v-115h-60v-154h216v154h-60v115h308v-115h-60v-154h68q140 0 215.5 -53t75.5 -151q0 -51 -21 -89t-60 -62.5t-94.5 -37t-125.5 -12.5h-306v115h60v175h-216v-175h60v-115h-308v115h60v444h-60v115h308zM688 115h58q60 0 83 24t23 58q0 17 -5.5 33.5t-17.5 30
t-32.5 21.5t-50.5 8h-58v-175z" />
    <glyph glyph-name="uni040B" unicode="&#x40b;" horiz-adv-x="904" 
d="M734 674v-183h-150v68h-103v-140l-29 -103h8q10 22 25.5 44.5t37.5 40t51.5 28.5t67.5 11q36 0 65.5 -11t51.5 -33t34 -56t12 -80v-145h70v-115h-258v230q0 31 -13 48.5t-38 17.5q-16 0 -31.5 -7t-27.5 -20t-19 -32t-7 -43v-79h70v-115h-338v115h80v444h-103v-68h-150
v183h694z" />
    <glyph glyph-name="uni040C" unicode="&#x40c;" horiz-adv-x="774" 
d="M744 674v-115h-65l-149 -200l95 -159q23 -39 55 -62t64 -23h10v-115q-15 -4 -35 -5.5t-41 -1.5q-38 0 -71.5 5t-63.5 19t-56 39t-49 65l-124 216l134 190l29 27l-2 5h-60v115h329zM339 674v-115h-55v-444h65v-115h-313v115h60v444h-60v115h303zM387 954q16 30 33.5 42
t38.5 12q29 0 48.5 -18.5t19.5 -47.5q0 -16 -7.5 -32t-27.5 -36l-119 -123l-67 52z" />
    <glyph glyph-name="uni040D" unicode="&#x40d;" horiz-adv-x="796" 
d="M340 674v-115h-65v-312h6l19 50l206 377h254v-115h-60v-444h60v-115h-314v115h70v320h-6l-19 -50l-211 -385h-188v559h-60v115h308zM478 803l-67 -52l-119 123q-20 20 -26.5 36t-6.5 31q0 30 19.5 48.5t48.5 18.5q23 0 39 -12.5t30 -38.5z" />
    <glyph glyph-name="uni040E" unicode="&#x40e;" horiz-adv-x="753" 
d="M335 674v-115h-70l-2 -4l17 -25l100 -187h10l98 187l17 25l-2 4h-70v115h300v-115h-50l-223 -424q-17 -32 -38.5 -59t-50 -47t-64.5 -31.5t-81 -11.5q-28 0 -52.5 4t-47.5 10v115h73q33 0 59 11.5t37 36.5l-225 396h-50v115h315zM303 968q4 -40 25.5 -62t56.5 -22
t56.5 22t25.5 62l105 -20q-4 -81 -55.5 -127.5t-132.5 -46.5t-131.5 46.5t-54.5 127.5z" />
    <glyph glyph-name="uni040F" unicode="&#x40f;" horiz-adv-x="776" 
d="M339 674v-115h-55v-444h208v444h-55v115h303v-115h-60v-444h60v-115h-277v-126h-150v126h-277v115h60v444h-60v115h303z" />
    <glyph glyph-name="uni0410" unicode="&#x410;" horiz-adv-x="806" 
d="M510 674l226 -559h50v-115h-333v115h80l-26 68h-236l-25 -68h80v-115h-306v115h50l170 444h-80v115h350zM371 460l-61 -169h155l-64 169l-12 45h-6z" />
    <glyph glyph-name="uni0411" unicode="&#x411;" horiz-adv-x="699" 
d="M616 674v-213h-150v98h-182v-145h74q70 0 125.5 -12.5t94.5 -37.5t60 -64t21 -91q0 -53 -21 -92t-60 -65t-94.5 -39t-125.5 -13h-322v115h60v444h-60v115h580zM284 115h64q60 0 88 27t28 65t-28 65t-88 27h-64v-184z" />
    <glyph glyph-name="uni0412" unicode="&#x412;" horiz-adv-x="705" 
d="M371 674q119 0 187.5 -43t68.5 -128q0 -47 -21.5 -82.5t-61.5 -52.5v-6q21 -7 42.5 -21t39 -35t28.5 -49.5t11 -64.5q0 -45 -18 -80.5t-52 -60t-82.5 -38t-108.5 -13.5h-368v115h60v444h-60v115h335zM284 115h77q61 0 86.5 24t25.5 65t-26 66t-86 25h-77v-180zM284 399
h49q60 0 88 22t28 61q0 77 -116 77h-49v-160z" />
    <glyph glyph-name="uni0413" unicode="&#x413;" horiz-adv-x="629" 
d="M593 674v-225h-150v110h-159v-444h90v-115h-338v115h60v444h-60v115h557z" />
    <glyph glyph-name="uni0414" unicode="&#x414;" horiz-adv-x="835" 
d="M529 674l211 -559h75v-241h-150v126h-495v-126h-150v241h75l167 444h-80v115h347zM390 449l-120 -334h268l-122 334l-10 45h-6z" />
    <glyph glyph-name="uni0415" unicode="&#x415;" horiz-adv-x="647" 
d="M598 674v-215h-150v100h-164v-152h164v-120h-164v-172h169v110h150v-225h-567v115h60v444h-60v115h562z" />
    <glyph glyph-name="uni0416" unicode="&#x416;" horiz-adv-x="1136" 
d="M1111 674v-115h-70l-144 -208l105 -165q20 -32 42.5 -51.5t61.5 -19.5h10v-115q-16 -4 -34.5 -5.5t-36.5 -1.5q-71 0 -125.5 26t-93.5 93l-134 228l117 186l28 28l-2 5h-58v115h334zM717 674v-115h-55v-444h65v-115h-318v115h65v444h-55v115h298zM359 674v-115h-58l-2 -5
l28 -28l117 -186l-134 -228q-39 -67 -93.5 -93t-125.5 -26q-18 0 -36.5 1.5t-34.5 5.5v115h10q39 0 61.5 19.5t42.5 51.5l105 165l-144 208h-70v115h334z" />
    <glyph glyph-name="uni0417" unicode="&#x417;" horiz-adv-x="618" 
d="M190 462h-150v183q46 19 112.5 31t132.5 12q63 0 113.5 -11t86 -33.5t54.5 -55.5t19 -76q0 -52 -25 -88t-65 -56v-6q51 -19 80.5 -60.5t29.5 -101.5q0 -48 -20.5 -87t-60 -67.5t-98.5 -44t-135 -15.5q-27 0 -57.5 2t-60 6.5t-57 10.5t-48.5 15v121q19 -7 46.5 -13
t56.5 -11t58 -8t53 -3q66 0 102 24t36 72q0 50 -38.5 70.5t-98.5 20.5h-40v110h60q30 0 50.5 7.5t33.5 19.5t18.5 28t5.5 34q0 40 -28 60.5t-88 20.5q-20 0 -39.5 -2.5t-38.5 -7.5v-101z" />
    <glyph glyph-name="uni0418" unicode="&#x418;" horiz-adv-x="796" 
d="M340 674v-115h-65v-312h6l19 50l206 377h254v-115h-60v-444h60v-115h-314v115h70v320h-6l-19 -50l-211 -385h-188v559h-60v115h308z" />
    <glyph glyph-name="uni0419" unicode="&#x419;" horiz-adv-x="796" 
d="M340 674v-115h-65v-312h6l19 50l206 377h254v-115h-60v-444h60v-115h-314v115h70v320h-6l-19 -50l-211 -385h-188v559h-60v115h308zM321 968q4 -40 25.5 -62t56.5 -22t56.5 22t25.5 62l105 -20q-4 -81 -55.5 -127.5t-132.5 -46.5t-131.5 46.5t-54.5 127.5z" />
    <glyph glyph-name="uni041A" unicode="&#x41a;" horiz-adv-x="774" 
d="M744 674v-115h-65l-149 -200l95 -159q23 -39 55 -62t64 -23h10v-115q-15 -4 -35 -5.5t-41 -1.5q-38 0 -71.5 5t-63.5 19t-56 39t-49 65l-124 216l134 190l29 27l-2 5h-60v115h329zM339 674v-115h-55v-444h65v-115h-313v115h60v444h-60v115h303z" />
    <glyph glyph-name="uni041B" unicode="&#x41b;" horiz-adv-x="786" 
d="M495 674l221 -559h50v-115h-333v115h80l-124 334l-10 45h-6l-10 -45l-117 -334h80v-115h-306v115h50l166 444h-80v115h339z" />
    <glyph glyph-name="uni041C" unicode="&#x41c;" horiz-adv-x="1079" 
d="M415 674l107 -395l11 -68h7l11 68l103 395h389v-115h-60v-444h60v-115h-308v115h60v303l7 109h-7l-145 -527h-234l-145 527h-7l7 -109v-303h60v-115h-295v115h60v444h-60v115h379z" />
    <glyph glyph-name="uni041D" unicode="&#x41d;" horiz-adv-x="804" 
d="M354 674v-115h-70v-152h236v152h-70v115h318v-115h-60v-444h60v-115h-318v115h70v172h-236v-172h70v-115h-318v115h60v444h-60v115h318z" />
    <glyph glyph-name="uni041E" unicode="&#x41e;" horiz-adv-x="816" 
d="M408 573q-46 0 -77.5 -17t-50.5 -48t-27 -74.5t-8 -96.5t8 -96.5t27 -74.5t50 -48t78 -17q46 0 77.5 17t50.5 48t27 74.5t8 96.5t-8 96.5t-27 74.5t-50.5 48t-77.5 17zM408 688q86 0 154.5 -23t116 -67.5t72.5 -110t25 -150.5t-25 -150.5t-72.5 -110t-115.5 -67.5
t-155 -23t-155 23t-115.5 67.5t-72.5 110t-25 150.5t25 150.5t72.5 110t116 67.5t154.5 23z" />
    <glyph glyph-name="uni041F" unicode="&#x41f;" horiz-adv-x="775" 
d="M739 674v-115h-60v-444h60v-115h-303v115h55v444h-207v-444h55v-115h-303v115h60v444h-60v115h703z" />
    <glyph glyph-name="uni0420" unicode="&#x420;" horiz-adv-x="683" 
d="M348 674q67 0 121.5 -13t93 -39.5t59.5 -67.5t21 -96q0 -56 -21 -98t-59.5 -70t-93 -42.5t-121.5 -14.5h-64v-118h90v-115h-338v115h60v444h-60v115h312zM284 348h48q62 0 90 32.5t28 77.5t-27.5 73t-90.5 28h-48v-211z" />
    <glyph glyph-name="uni0421" unicode="&#x421;" horiz-adv-x="679" 
d="M639 415h-150v148q-30 10 -63 10q-40 0 -73.5 -15t-57.5 -43.5t-37 -70t-13 -93.5q0 -119 64.5 -182t175.5 -63q81 0 154 31v-113q-30 -14 -79.5 -26t-123.5 -12q-91 0 -164.5 22.5t-125 67.5t-79 111.5t-27.5 154.5q0 85 26 149.5t74.5 108t118 66t156.5 22.5
q56 0 116.5 -10t107.5 -33v-230z" />
    <glyph glyph-name="uni0422" unicode="&#x422;" horiz-adv-x="774" 
d="M734 674v-235h-150v120h-103v-444h80v-115h-348v115h80v444h-103v-120h-150v235h694z" />
    <glyph glyph-name="uni0423" unicode="&#x423;" horiz-adv-x="753" 
d="M335 674v-115h-70l-2 -4l17 -25l100 -187h10l98 187l17 25l-2 4h-70v115h300v-115h-50l-223 -424q-17 -32 -38.5 -59t-50 -47t-64.5 -31.5t-81 -11.5q-28 0 -52.5 4t-47.5 10v115h73q33 0 59 11.5t37 36.5l-225 396h-50v115h315z" />
    <glyph glyph-name="uni0424" unicode="&#x424;" horiz-adv-x="987" 
d="M380 521q-69 0 -108.5 -46t-39.5 -134t39.5 -135.5t108.5 -47.5h25v363h-25zM652 791v-110h-70v-50h40q67 0 126.5 -19t103.5 -56t69.5 -91.5t25.5 -124.5q0 -71 -25.5 -125t-69.5 -91.5t-103.5 -56.5t-126.5 -19h-40v-55h70v-110h-317v110h70v55h-40q-67 0 -126 19
t-103.5 56t-70 91.5t-25.5 125.5q0 72 25.5 126t70 91t103.5 55.5t126 18.5h40v50h-70v110h317zM582 158h25q68 0 108 47t40 135t-40 134.5t-108 46.5h-25v-363z" />
    <glyph glyph-name="uni0425" unicode="&#x425;" horiz-adv-x="766" 
d="M365 674v-115h-61l-2 -5l27 -24l69 -81l69 81l27 24l-2 5h-60v115h299v-115h-50l-186 -216l196 -228h55v-115h-340v115h67l2 5l-25 22l-82 96l-83 -96l-25 -22l2 -5h67v-115h-309v115h55l195 228l-185 216h-50v115h330z" />
    <glyph glyph-name="uni0426" unicode="&#x426;" horiz-adv-x="805" 
d="M339 674v-115h-55v-444h207v444h-55v115h303v-115h-60v-444h105v-241h-150v126h-598v115h60v444h-60v115h303z" />
    <glyph glyph-name="uni0427" unicode="&#x427;" horiz-adv-x="776" 
d="M338 674v-115h-70v-95q0 -74 31.5 -104t87.5 -30q30 0 59 6.5t46 17.5v205h-70v115h318v-115h-60v-444h60v-115h-338v115h90v119q-29 -13 -74 -20.5t-85 -7.5q-56 0 -102.5 16t-80 47t-52 76.5t-18.5 103.5v110h-60v115h318z" />
    <glyph glyph-name="uni0428" unicode="&#x428;" horiz-adv-x="1085" 
d="M335 674v-115h-51v-444h165v444h-50v115h288v-115h-50v-444h164v444h-50v115h298v-115h-60v-444h60v-115h-1013v115h60v444h-60v115h299z" />
    <glyph glyph-name="uni0429" unicode="&#x429;" horiz-adv-x="1115" 
d="M335 674v-115h-51v-444h165v444h-50v115h288v-115h-50v-444h164v444h-50v115h298v-115h-60v-444h105v-241h-150v126h-908v115h60v444h-60v115h299z" />
    <glyph glyph-name="uni042A" unicode="&#x42a;" horiz-adv-x="831" 
d="M502 674v-115h-70v-145h58q70 0 125.5 -12.5t94.5 -37.5t60 -64t21 -91q0 -53 -21 -92t-60 -65t-94.5 -39t-125.5 -13h-306v115h60v444h-79v-110h-150v225h487zM432 115h48q60 0 88 27t28 65t-28 65t-88 27h-48v-184z" />
    <glyph glyph-name="uni042B" unicode="&#x42b;" horiz-adv-x="1020" 
d="M984 674v-115h-60v-444h60v-115h-308v115h60v444h-60v115h308zM284 115h35q60 0 85 27t25 65t-25 65t-85 27h-35v-184zM374 674v-115h-90v-145h43q70 0 125 -12.5t93 -37.5t58.5 -64t20.5 -91q0 -53 -20.5 -92t-58.5 -65t-93 -39t-125 -13h-291v115h60v444h-60v115h338z
" />
    <glyph glyph-name="uni042C" unicode="&#x42c;" horiz-adv-x="683" 
d="M284 115h48q60 0 88 27t28 65t-28 65t-88 27h-48v-184zM374 674v-115h-90v-145h58q70 0 125.5 -12.5t94.5 -37.5t60 -64t21 -91q0 -53 -21 -92t-60 -65t-94.5 -39t-125.5 -13h-306v115h60v444h-60v115h338z" />
    <glyph glyph-name="uni042D" unicode="&#x42d;" horiz-adv-x="679" 
d="M190 455h-150v190q23 10 51 18.5t59 13.5t62.5 8t61.5 3q90 0 158.5 -24t114 -69t69 -108.5t23.5 -142.5q0 -88 -27.5 -155t-79 -112t-124.5 -68t-164 -23q-75 0 -123.5 12.5t-80.5 25.5v113q51 -20 95.5 -25.5t69.5 -5.5q59 0 101.5 16t69.5 40.5t41 55t16 60.5h-243
v120h244q-2 36 -14.5 68t-34.5 55.5t-53 37.5t-69 14q-17 0 -38 -2.5t-35 -7.5v-108z" />
    <glyph glyph-name="uni042E" unicode="&#x42e;" horiz-adv-x="1110" 
d="M349 674v-115h-65v-161h112q17 145 101.5 217.5t229.5 72.5q166 0 254.5 -92t88.5 -258q0 -83 -22.5 -148.5t-66 -110.5t-107 -69t-146.5 -24q-146 0 -230.5 73t-101.5 218h-112v-162h65v-115h-313v115h60v444h-60v115h313zM729 573q-39 0 -65.5 -17t-42.5 -48.5t-23 -75
t-7 -95.5q0 -53 7 -96.5t23.5 -74.5t43 -48t65.5 -17q41 0 68 18.5t42.5 50.5t21.5 75t6 91q0 49 -6.5 92t-22 75.5t-42.5 51t-68 18.5z" />
    <glyph glyph-name="uni042F" unicode="&#x42f;" horiz-adv-x="713" 
d="M677 674v-115h-60v-444h60v-115h-303v115h55v128h-51l-84 -149q-30 -53 -73 -77t-116 -24q-19 0 -41.5 1.5t-38.5 5.5v115h15q36 0 61 15t42 45l62 109v6q-27 7 -51 22.5t-42.5 38.5t-29.5 53.5t-11 68.5q0 46 17.5 83t52.5 63t89 40.5t126 14.5h321zM370 559
q-31 0 -51.5 -7t-32.5 -20t-17 -30t-5 -36q0 -22 6 -41.5t20 -34.5t35.5 -23.5t53.5 -8.5h50v201h-59z" />
    <glyph glyph-name="uni0430" unicode="&#x430;" horiz-adv-x="602" 
d="M282 197q-27 0 -45 -12t-18 -35q0 -19 13.5 -31.5t41.5 -12.5q39 0 61.5 25t22.5 61v5h-76zM220 326h-143v126q48 20 108.5 29.5t110.5 9.5q52 0 93 -11t69.5 -34t44 -59t15.5 -86v-149q0 -26 14.5 -37t40.5 -11v-104q-11 -4 -26 -5.5t-29 -1.5q-52 0 -88 21.5t-44 65.5
h-6q-21 -43 -59.5 -68.5t-99.5 -25.5q-34 0 -65.5 9t-55.5 27t-38 45t-14 64q0 43 19.5 73.5t52.5 50t76.5 28.5t92.5 9h64v10q0 45 -22 62t-60 17q-9 0 -23.5 -1t-27.5 -5v-49z" />
    <glyph glyph-name="uni0431" unicode="&#x431;" horiz-adv-x="613" 
d="M523 724v-140l-179 -36q-122 -24 -122 -147v-22h6q17 34 57.5 53.5t91.5 19.5q42 0 78.5 -14.5t63 -41.5t41.5 -66t15 -88q0 -59 -22 -106.5t-62 -80.5t-97 -51t-127 -18q-26 0 -54 2.5t-55 7.5t-51.5 12.5t-42.5 17.5v375q0 66 20 113.5t54.5 81t81 54.5t100.5 32z
M234 108q8 -3 17.5 -5t24.5 -2q62 0 95.5 31.5t33.5 82.5q0 40 -20.5 68.5t-60.5 28.5q-42 0 -66 -32t-24 -78v-94z" />
    <glyph glyph-name="uni0432" unicode="&#x432;" horiz-adv-x="614" 
d="M467 399q45 -18 77 -62.5t32 -113.5q0 -59 -24 -103t-65.5 -74t-96 -45t-114.5 -15q-28 0 -57 3t-57 8.5t-53.5 12.5t-44.5 16v461q0 66 21.5 111.5t57.5 74.5t82.5 42t95.5 13q52 0 93 -13.5t69 -38t42.5 -58t14.5 -73.5q0 -30 -7.5 -52.5t-18.5 -39.5t-23.5 -29
t-23.5 -19v-6zM234 108q8 -3 21 -5t27 -2q51 0 87.5 31t36.5 88q0 27 -9 46t-23.5 31t-33 17.5t-37.5 5.5q-10 0 -25 -1.5t-27 -4.5l-17 -4v-202zM234 425l38 8q46 10 77 35.5t31 70.5q0 33 -19 53.5t-51 20.5t-54 -24.5t-22 -81.5v-82z" />
    <glyph glyph-name="uni0433" unicode="&#x433;" horiz-adv-x="551" 
d="M201 325h-138v120q42 20 98 33t125 13q109 0 166 -35.5t57 -108.5q0 -36 -12.5 -61t-33 -42t-46 -28t-51.5 -18l-102 -29q-20 -5 -29.5 -13t-9.5 -22q0 -22 21.5 -30t47.5 -8q17 0 37.5 2.5t36.5 7.5v55h138v-129q-39 -20 -96 -33t-129 -13q-51 0 -94 7.5t-73.5 25
t-48 45t-17.5 66.5q0 37 14.5 62.5t37 43t49.5 28t52 17.5l82 23q27 8 39 18t12 25q0 20 -17.5 27t-48.5 7q-21 0 -37 -2.5t-30 -7.5v-46z" />
    <glyph glyph-name="uni0434" unicode="&#x434;" horiz-adv-x="613" 
d="M549 90q0 -88 -21.5 -150t-60.5 -101.5t-93.5 -58t-121.5 -18.5q-50 0 -85.5 8.5t-61.5 19.5v120q28 -13 61 -20.5t64 -7.5q71 0 112.5 42.5t41.5 123.5v40h-6q-19 -36 -56.5 -57t-88.5 -21q-41 0 -77 14.5t-62 41.5t-41 66.5t-15 89.5q0 60 22 109.5t62 85t97 55
t128 19.5q25 0 53 -2.5t55 -7.5t51.5 -12.5t42.5 -17.5v-361zM379 364q-8 3 -17.5 5t-23.5 2q-31 0 -55.5 -10t-41 -27t-25 -40t-8.5 -50q0 -41 20.5 -70t58.5 -29q22 0 39 10t29 27.5t18 40t6 47.5v94z" />
    <glyph glyph-name="uni0435" unicode="&#x435;" horiz-adv-x="564" 
d="M216 191q12 -45 54 -66t99 -21q67 0 118 28v-118q-23 -11 -59 -19.5t-91 -8.5q-64 0 -118.5 14t-94.5 44.5t-63 79t-23 118.5q0 117 64.5 183t186.5 66q51 0 94 -12.5t75 -37.5t50 -63.5t18 -90.5q0 -26 -4 -50t-11 -46h-295zM367 280q0 45 -19 73t-61 28t-61 -28
t-19 -73h160z" />
    <glyph glyph-name="uni0436" unicode="&#x436;" horiz-adv-x="968" 
d="M569 714v-610h45v-104h-260v104h45v506h-70v104h240zM325 477v-104h-60l-2 -5l33 -25l83 -96l-98 -168q-24 -42 -69 -64t-110 -22q-31 0 -72 7v104h11q23 0 46 12t41 41l64 102l-102 114h-55v104h290zM933 477v-104h-55l-103 -114l65 -102q19 -29 41.5 -41t45.5 -12h11
v-104q-41 -7 -72 -7q-65 0 -110 22t-69 64l-98 168l83 96l33 25l-2 5h-60v104h290z" />
    <glyph glyph-name="uni0437" unicode="&#x437;" horiz-adv-x="541" 
d="M176 282h-138v170q40 17 94.5 28t112.5 11q54 0 98 -11t75 -33t48 -54t17 -75q0 -30 -8 -54t-20 -42.5t-26.5 -32t-27.5 -22.5v-6q16 -11 32.5 -26t30 -36t21.5 -48.5t8 -61.5q0 -55 -21.5 -97.5t-60 -71t-92 -43.5t-116.5 -15q-53 0 -97.5 9t-67.5 22v120q13 -6 31 -12
t38.5 -10t41 -6.5t39.5 -2.5q68 0 102.5 30t34.5 80q0 45 -26 65.5t-72 20.5q-25 0 -49.5 -5t-47.5 -13v115l89 19q45 10 72 35t27 64q0 35 -23.5 59t-67.5 24q-12 0 -26 -2t-25 -5v-87z" />
    <glyph glyph-name="uni0438" unicode="&#x438;" horiz-adv-x="644" 
d="M254 477v-280q0 -38 16.5 -57t43.5 -19q36 0 56 30t20 81v141h-60v104h230v-325q0 -26 14.5 -37t40.5 -11v-104q-11 -4 -26 -5.5t-29 -1.5q-52 0 -88.5 21.5t-44.5 65.5h-6q-22 -43 -63 -68.5t-98 -25.5q-39 0 -71.5 13.5t-56 38t-36 59.5t-12.5 79v197h-55v104h225z" />
    <glyph glyph-name="uni0439" unicode="&#x439;" horiz-adv-x="644" 
d="M254 477v-280q0 -38 16.5 -57t43.5 -19q36 0 56 30t20 81v141h-60v104h230v-325q0 -26 14.5 -37t40.5 -11v-104q-11 -4 -26 -5.5t-29 -1.5q-52 0 -88.5 21.5t-44.5 65.5h-6q-22 -43 -63 -68.5t-98 -25.5q-39 0 -71.5 13.5t-56 38t-36 59.5t-12.5 79v197h-55v104h225z
M215 768q4 -40 25.5 -62t56.5 -22t56.5 22t25.5 62l105 -20q-4 -81 -55.5 -127.5t-132.5 -46.5t-131.5 46.5t-54.5 127.5z" />
    <glyph glyph-name="uni043A" unicode="&#x43a;" horiz-adv-x="666" 
d="M265 714v-610h45v-104h-280v104h65v506h-70v104h240zM631 477v-104h-55l-98 -106l70 -110q17 -28 33.5 -40.5t44.5 -12.5h10v-104q-31 -7 -68 -7q-34 0 -60 4t-47.5 13.5t-39 26t-33.5 42.5l-103 163l87 101l33 24l-2 6h-57v104h285z" />
    <glyph glyph-name="uni043B" unicode="&#x43b;" horiz-adv-x="632" 
d="M419 477l142 -373h55v-104h-192l-106 278l-12 60h-6l-12 -60l-67 -174h70v-104h-275v104h55l104 269h-70v104h314z" />
    <glyph glyph-name="uni043C" unicode="&#x43c;" horiz-adv-x="916" 
d="M363 477l81 -242l9 -55h6l9 55l85 242h330v-104h-60v-269h55v-104h-220v272l6 64l-5 2l-120 -338h-176l-120 337l-5 -2l5 -63v-168h40v-104h-245v104h55v269h-60v104h330z" />
    <glyph glyph-name="uni043D" unicode="&#x43d;" horiz-adv-x="653" 
d="M263 477v-187h136v83h-60v104h230v-373h55v-104h-225v188h-136v-84h60v-104h-285v104h55v269h-60v104h230z" />
    <glyph glyph-name="uni043E" unicode="&#x43e;" horiz-adv-x="616" 
d="M308 491q60 0 109.5 -16.5t85.5 -48t55.5 -78t19.5 -106.5t-19.5 -107.5t-55.5 -80.5t-85.5 -50.5t-109.5 -17.5t-109.5 17.5t-85.5 50.5t-55.5 80.5t-19.5 107.5t19.5 106.5t55.5 78t85.5 48t109.5 16.5zM308 376q-53 0 -74 -38t-21 -98q0 -30 5 -55.5t16 -44t29.5 -29
t44.5 -10.5q52 0 73.5 39.5t21.5 99.5t-21 98t-74 38z" />
    <glyph glyph-name="uni043F" unicode="&#x43f;" horiz-adv-x="653" 
d="M254 477v-40l-20 -70h8q10 22 25.5 44.5t37.5 40t51.5 28.5t67.5 11q72 0 108.5 -43.5t36.5 -136.5v-207h55v-104h-225v290q0 31 -13 48.5t-38 17.5q-16 0 -31.5 -7.5t-27.5 -21.5t-19 -33.5t-7 -43.5v-146h60v-104h-285v104h55v269h-60v104h221z" />
    <glyph glyph-name="uni0440" unicode="&#x440;" horiz-adv-x="643" 
d="M254 477v-41l-16 -69h8q7 20 22 39.5t36.5 35.5t50 25.5t63.5 9.5q42 0 76.5 -15t59 -43.5t38 -68.5t13.5 -89q0 -62 -21 -112.5t-59 -86.5t-91.5 -56t-117.5 -20q-17 0 -29.5 1.5t-22.5 3.5v-111h80v-104h-315v104h65v493h-65v104h225zM264 108q9 -3 22 -5t25 -2
q27 0 50 11t39.5 30t25.5 45t9 55q0 18 -4 35t-12.5 30.5t-22.5 21.5t-34 8q-42 0 -70 -34.5t-28 -91.5v-103z" />
    <glyph glyph-name="uni0441" unicode="&#x441;" horiz-adv-x="534" 
d="M496 282h-138v87q-22 7 -44 7q-27 0 -46 -10t-31.5 -26.5t-18 -38t-5.5 -45.5q0 -41 14 -69.5t36.5 -47t52 -27t60.5 -8.5q29 0 63 7t57 21v-118q-26 -14 -65 -21t-86 -7q-72 0 -129 17.5t-96.5 50.5t-60.5 80.5t-21 107.5q0 61 21.5 108t59 78t89 47t111.5 16
q54 0 97.5 -11t79.5 -28v-170z" />
    <glyph glyph-name="uni0442" unicode="&#x442;" horiz-adv-x="934" 
d="M254 477v-40l-20 -70h8q9 21 22.5 43t33 40t46.5 29.5t62 11.5q54 0 89.5 -26t45.5 -62h6q19 38 57 63t97 25q74 0 111.5 -44t37.5 -136v-207h55v-104h-225v290q0 31 -13.5 48.5t-37.5 17.5q-29 0 -52 -24.5t-23 -66.5v-161h50v-104h-215v290q0 31 -13.5 48.5t-36.5 17.5
q-15 0 -29 -7.5t-24.5 -20t-16.5 -30t-6 -38.5v-156h50v-104h-275v104h55v269h-60v104h221z" />
    <glyph glyph-name="uni0443" unicode="&#x443;" horiz-adv-x="624" 
d="M254 477v-266q0 -38 16.5 -57t43.5 -19q36 0 56 30t20 81v127h-60v104h230v-399q0 -81 -21 -140.5t-59 -98.5t-92.5 -58t-121.5 -19q-49 0 -87 8.5t-64 19.5v120q26 -13 61 -20.5t66 -7.5q68 0 110.5 41t42.5 125v20h-6q-20 -37 -51.5 -52.5t-75.5 -15.5
q-41 0 -73.5 13.5t-56 38t-36 59.5t-12.5 79v183h-55v104h225z" />
    <glyph glyph-name="uni0444" unicode="&#x444;" horiz-adv-x="868" 
d="M519 714v-237l-29 -105h8q6 16 17 34t29.5 34t44 26.5t60.5 10.5q36 0 69 -13t58 -38.5t39.5 -64t14.5 -88.5q0 -59 -21 -109t-59 -86.5t-91.5 -57t-119.5 -20.5h-20v-120h70v-104h-310v104h70v120l29 105h-8q-6 -16 -17 -34.5t-29.5 -34t-44.5 -26t-60 -10.5
q-36 0 -69 13t-58 38.5t-39.5 64t-14.5 88.5q0 59 21 109t59 86.5t91.5 57t119.5 20.5h20v133h-70v104h240zM519 126q5 -2 14.5 -4t21.5 -2q49 0 79.5 35.5t30.5 94.5q0 45 -18 68.5t-50 23.5q-38 0 -58 -30t-20 -72v-114zM349 351q-5 2 -14.5 4t-21.5 2q-49 0 -79.5 -35.5
t-30.5 -94.5q0 -45 18 -68.5t50 -23.5q19 0 33.5 8.5t24.5 22.5t15 32.5t5 38.5v114z" />
    <glyph glyph-name="uni0445" unicode="&#x445;" horiz-adv-x="620" 
d="M208 477l125 -148l24 29l24 20l-2 5h-42v94h249v-104h-49l-113 -133l70 -83q21 -25 40 -39t51 -14h5v-104q-14 -5 -28.5 -7t-36.5 -2q-28 0 -51 4t-42.5 12.5t-37.5 22.5t-35 35l-73 87l-28 -33l-23 -20l2 -5h42v-94h-249v104h48l117 138l-112 131h-48v104h173z" />
    <glyph glyph-name="uni0446" unicode="&#x446;" horiz-adv-x="680" 
d="M254 477v-280q0 -38 16.5 -57t43.5 -19q36 0 56 30t20 81v141h-60v104h230v-315q0 -29 14 -43.5t36 -14.5h45v-226h-138v114q-15 2 -30.5 8.5t-28 17.5t-21.5 26.5t-10 35.5h-6q-22 -43 -62.5 -68.5t-97.5 -25.5q-40 0 -72.5 13.5t-56 38t-36 59.5t-12.5 79v197h-55v104
h225z" />
    <glyph glyph-name="uni0447" unicode="&#x447;" horiz-adv-x="636" 
d="M246 477v-143q0 -71 58 -71q14 0 28 4.5t25 14t18 23.5t7 34v34h-60v104h230v-373h55v-104h-290v104h65v45l24 68h-8q-10 -14 -24.5 -29.5t-34.5 -29t-47 -22t-62 -8.5q-75 0 -114.5 43.5t-39.5 126.5v75h-55v104h225z" />
    <glyph glyph-name="uni0448" unicode="&#x448;" horiz-adv-x="925" 
d="M254 477v-290q0 -32 13.5 -49t38.5 -17q28 0 51 24t23 77v151h-50v104h215v-290q0 -31 13 -48.5t39 -17.5q29 0 51.5 25t22.5 76v151h-50v104h220v-325q0 -26 14.5 -37t40.5 -11v-104q-11 -4 -26 -5.5t-29 -1.5q-52 0 -88.5 21.5t-44.5 65.5h-6q-8 -16 -21 -33
t-31.5 -30.5t-43 -22t-55.5 -8.5q-59 0 -93.5 29t-44.5 65h-6q-22 -41 -62.5 -67.5t-101.5 -26.5q-73 0 -116 43.5t-43 136.5v207h-55v104h225z" />
    <glyph glyph-name="uni0449" unicode="&#x449;" horiz-adv-x="960" 
d="M253 477v-290q0 -32 13.5 -49t38.5 -17q28 0 51 24t23 77v151h-50v104h215v-290q0 -31 13 -48.5t39 -17.5q29 0 51.5 25t22.5 76v151h-50v104h220v-315q0 -29 14 -43.5t36 -14.5h45v-226h-138v114q-32 5 -59 26t-31 62h-6q-8 -16 -21.5 -33t-33 -30.5t-45 -22t-56.5 -8.5
q-59 0 -93.5 29t-44.5 65h-6q-22 -41 -62.5 -67.5t-101.5 -26.5q-73 0 -113.5 43.5t-40.5 136.5v207h-55v104h225z" />
    <glyph glyph-name="uni044A" unicode="&#x44a;" horiz-adv-x="745" 
d="M378 477v-143l-29 -74h8q12 18 30.5 35t42.5 29.5t53 20.5t62 8q36 0 65.5 -10t51 -29t33.5 -48t12 -66q0 -50 -21.5 -90t-60.5 -67.5t-93 -42t-118 -14.5q-62 0 -111.5 11.5t-84.5 28.5v347h-65v-91h-138v195h363zM374 108q8 -3 23 -5t31 -2q50 0 81.5 20t31.5 53
q0 44 -60 44q-46 0 -76.5 -26.5t-30.5 -73.5v-10z" />
    <glyph glyph-name="uni044B" unicode="&#x44b;" horiz-adv-x="950" 
d="M263 477v-143l-29 -74h8q11 19 28.5 36t40 29.5t49.5 20t57 7.5q67 0 110 -39t43 -114q0 -50 -20.5 -90t-57 -67.5t-87.5 -42t-112 -14.5q-58 0 -111.5 11.5t-88.5 28.5v347h-60v104h230zM258 108q8 -3 24.5 -5t29.5 -2q40 0 66.5 19.5t26.5 51.5q0 22 -12 34t-39 12
q-41 0 -68.5 -26.5t-27.5 -73.5v-10zM860 477v-373h65v-104h-300v104h65v269h-65v104h235z" />
    <glyph glyph-name="uni044C" unicode="&#x44c;" horiz-adv-x="637" 
d="M263 477v-143l-29 -74h8q12 18 31 35t44 29.5t54.5 20.5t62.5 8q73 0 119 -39t46 -114q0 -50 -22 -90t-61 -67.5t-93.5 -42t-120.5 -14.5q-63 0 -118.5 11.5t-90.5 28.5v347h-60v104h230zM259 108q8 -3 24 -5t33 -2q52 0 84.5 19.5t32.5 52.5q0 45 -60 45q-26 0 -47 -8.5
t-36 -22t-23 -32t-8 -37.5v-10z" />
    <glyph glyph-name="uni044D" unicode="&#x44d;" horiz-adv-x="534" 
d="M171 312h-133v145q38 15 88.5 24.5t101.5 9.5q71 0 121.5 -19t83 -52.5t48 -79t15.5 -97.5q0 -71 -25 -119.5t-66.5 -79.5t-96.5 -44.5t-115 -13.5q-48 0 -88 7.5t-67 18.5v99q33 -11 62 -15.5t61 -4.5q76 0 117.5 23.5t50.5 68.5h-158v102h160q-2 45 -27 73t-79 28
q-12 0 -26.5 -1.5t-27.5 -5.5v-67z" />
    <glyph glyph-name="uni044E" unicode="&#x44e;" horiz-adv-x="911" 
d="M263 714v-424h92q7 51 28.5 89t54.5 63t76.5 37t94.5 12q60 0 108.5 -16.5t83 -48t53.5 -78t19 -106.5t-19 -107.5t-53.5 -80.5t-83 -50.5t-108.5 -17.5q-50 0 -93 12.5t-76 38t-55 63.5t-29 88h-93v-84h60v-104h-295v104h65v506h-70v104h240zM608 376q-49 0 -70 -38
t-21 -98t21 -99.5t70 -39.5t69.5 39.5t20.5 99.5t-20 98t-70 38z" />
    <glyph glyph-name="uni044F" unicode="&#x44f;" horiz-adv-x="613" 
d="M529 104h55v-104h-262v104h45v62h-39l-61 -87q-12 -18 -28 -33.5t-36.5 -27t-46.5 -18.5t-60 -7q-20 0 -33 2t-29 5v104h10q32 0 51.5 15.5t37.5 41.5l18 27v5q-41 17 -64 51t-23 82q0 45 20 76.5t54.5 51t80 28.5t96.5 9q67 0 122 -13t92 -31v-343zM367 268v109
q-24 9 -54 9q-35 0 -59 -14t-24 -46t24.5 -45t58.5 -13h54z" />
    <glyph glyph-name="uni0450" unicode="&#x450;" horiz-adv-x="564" 
d="M216 191q12 -45 54 -66t99 -21q67 0 118 28v-118q-23 -11 -59 -19.5t-91 -8.5q-64 0 -118.5 14t-94.5 44.5t-63 79t-23 118.5q0 117 64.5 183t186.5 66q51 0 94 -12.5t75 -37.5t50 -63.5t18 -90.5q0 -26 -4 -50t-11 -46h-295zM367 280q0 45 -19 73t-61 28t-61 -28
t-19 -73h160zM347 603l-67 -52l-119 123q-20 20 -26.5 36t-6.5 31q0 30 19.5 48.5t48.5 18.5q23 0 39 -12.5t30 -38.5z" />
    <glyph glyph-name="uni0451" unicode="&#x451;" horiz-adv-x="564" 
d="M216 191q12 -45 54 -66t99 -21q67 0 118 28v-118q-23 -11 -59 -19.5t-91 -8.5q-64 0 -118.5 14t-94.5 44.5t-63 79t-23 118.5q0 117 64.5 183t186.5 66q51 0 94 -12.5t75 -37.5t50 -63.5t18 -90.5q0 -26 -4 -50t-11 -46h-295zM367 280q0 45 -19 73t-61 28t-61 -28
t-19 -73h160zM166 728q36 0 58.5 -23.5t22.5 -64.5t-23 -63.5t-58 -22.5q-36 0 -58 22.5t-22 63.5t21.5 64.5t58.5 23.5zM397 728q36 0 58.5 -23.5t22.5 -64.5t-22.5 -63.5t-58.5 -22.5t-58 22.5t-22 63.5t22 64.5t58 23.5z" />
    <glyph glyph-name="uni0452" unicode="&#x452;" horiz-adv-x="636" 
d="M263 714v-72h90v-104h-90v-68l-29 -103h8q10 22 25.5 44.5t37.5 40t51.5 28.5t67.5 11q72 0 108.5 -43.5t36.5 -136.5v-265q0 -52 -14 -99.5t-45 -84t-79.5 -59.5t-118.5 -27v104q37 6 62 34.5t25 91.5v283q0 31 -13 48.5t-38 17.5q-16 0 -31.5 -7.5t-27.5 -21.5
t-19 -33.5t-7 -43.5v-145h60v-104h-285v104h55v434h-55v104h55v72h170z" />
    <glyph glyph-name="uni0453" unicode="&#x453;" horiz-adv-x="551" 
d="M201 325h-138v120q42 20 98 33t125 13q109 0 166 -35.5t57 -108.5q0 -36 -12.5 -61t-33 -42t-46 -28t-51.5 -18l-102 -29q-20 -5 -29.5 -13t-9.5 -22q0 -22 21.5 -30t47.5 -8q17 0 37.5 2.5t36.5 7.5v55h138v-129q-39 -20 -96 -33t-129 -13q-51 0 -94 7.5t-73.5 25
t-48 45t-17.5 66.5q0 37 14.5 62.5t37 43t49.5 28t52 17.5l82 23q27 8 39 18t12 25q0 20 -17.5 27t-48.5 7q-21 0 -37 -2.5t-30 -7.5v-46zM318 754q16 30 33.5 42t38.5 12q29 0 48.5 -18.5t19.5 -47.5q0 -16 -7.5 -32t-27.5 -36l-119 -123l-67 52z" />
    <glyph glyph-name="uni0454" unicode="&#x454;" horiz-adv-x="534" 
d="M363 285v-102h-158q4 -22 19.5 -39t38 -29t51 -18t60.5 -6q31 0 62 6.5t60 21.5v-107q-27 -11 -67 -18.5t-87 -7.5q-67 0 -122.5 16.5t-96 49t-63 80.5t-22.5 111q0 58 19.5 104.5t55 78t85.5 48.5t111 17q48 0 98.5 -9.5t88.5 -24.5v-145h-133v67q-20 7 -44 7
q-51 0 -82 -26.5t-34 -74.5h160z" />
    <glyph glyph-name="uni0455" unicode="&#x455;" horiz-adv-x="535" 
d="M470 326h-140v54q-14 5 -28 6.5t-28 1.5q-26 0 -42.5 -6t-16.5 -21q0 -14 16 -23.5t41 -18.5l80 -29q28 -10 54 -23t46.5 -31t32.5 -42.5t12 -57.5q0 -39 -18 -67.5t-50.5 -47t-77.5 -27t-98 -8.5q-62 0 -115.5 10t-85.5 24v140h140v-62q15 -5 32 -6.5t28 -1.5
q29 0 49.5 6.5t20.5 27.5q0 14 -14.5 22.5t-51.5 22.5l-80 29q-27 10 -50.5 22.5t-41 30.5t-28 41t-10.5 54q0 37 16 64.5t45 45.5t69.5 26.5t90.5 8.5q60 0 112 -10.5t91 -24.5v-130z" />
    <glyph glyph-name="uni0456" unicode="&#x456;" horiz-adv-x="363" 
d="M268 477v-373h70v-104h-305v104h65v269h-65v104h235zM177 728q46 0 73.5 -24.5t27.5 -62.5t-27.5 -62.5t-73.5 -24.5q-45 0 -72 24.5t-27 62.5t27 62.5t72 24.5z" />
    <glyph glyph-name="uni0457" unicode="&#x457;" horiz-adv-x="363" 
d="M268 477v-373h70v-104h-305v104h65v269h-65v104h235zM55 728q36 0 58.5 -23.5t22.5 -64.5t-23 -63.5t-58 -22.5q-36 0 -58 22.5t-22 63.5t21.5 64.5t58.5 23.5zM286 728q36 0 58.5 -23.5t22.5 -64.5t-22.5 -63.5t-58.5 -22.5t-58 22.5t-22 63.5t22 64.5t58 23.5z" />
    <glyph glyph-name="uni0458" unicode="&#x458;" horiz-adv-x="340" 
d="M273 477v-432q0 -56 -15.5 -103.5t-47 -83.5t-80 -57.5t-114.5 -24.5v105q44 15 65.5 50t21.5 104v338h-65v104h235zM182 728q46 0 73.5 -24.5t27.5 -62.5t-27.5 -62.5t-73.5 -24.5q-45 0 -72 24.5t-27 62.5t27 62.5t72 24.5z" />
    <glyph glyph-name="uni0459" unicode="&#x459;" horiz-adv-x="957" 
d="M593 477v-143l-29 -74h8q11 17 28.5 34t41 30t52.5 21t62 8q36 0 65.5 -10t51.5 -29.5t34 -48t12 -66.5q0 -50 -21 -87.5t-59 -62t-91 -37t-117 -12.5h-208v349h-10l-162 -245h86v-104h-321v104h55l183 269h-65v104h404zM589 104h59q49 0 79 16.5t30 51.5q0 46 -58 46
q-22 0 -42 -6.5t-35 -19.5t-24 -31.5t-9 -42.5v-14z" />
    <glyph glyph-name="uni045A" unicode="&#x45a;" horiz-adv-x="933" 
d="M263 477v-187h136v83h-60v104h230v-143l-29 -74h8q11 17 28.5 34t41 30t52.5 21t62 8q36 0 65.5 -10t51.5 -29.5t34 -48t12 -66.5q0 -50 -21 -87.5t-59 -62t-91 -37t-117 -12.5h-208v188h-136v-84h60v-104h-285v104h55v269h-60v104h230zM565 104h59q49 0 79 16.5t30 51.5
q0 46 -58 46q-22 0 -42 -6.5t-35 -19.5t-24 -31.5t-9 -42.5v-14z" />
    <glyph glyph-name="uni045B" unicode="&#x45b;" horiz-adv-x="663" 
d="M263 714v-72h90v-104h-90v-68l-29 -103h8q10 22 26.5 44.5t39.5 40t53 28.5t68 11q72 0 111 -43.5t39 -136.5v-207h55v-104h-225v290q0 31 -15.5 48.5t-40.5 17.5q-16 0 -32 -7.5t-29 -21.5t-21 -33.5t-8 -43.5v-146h60v-104h-285v104h55v434h-55v104h55v72h170z" />
    <glyph glyph-name="uni045C" unicode="&#x45c;" horiz-adv-x="666" 
d="M265 714v-610h45v-104h-280v104h65v506h-70v104h240zM631 477v-104h-55l-98 -106l70 -110q17 -28 33.5 -40.5t44.5 -12.5h10v-104q-31 -7 -68 -7q-34 0 -60 4t-47.5 13.5t-39 26t-33.5 42.5l-103 163l87 101l33 24l-2 6h-57v104h285zM409 754q16 30 33.5 42t38.5 12
q29 0 48.5 -18.5t19.5 -47.5q0 -16 -7.5 -32t-27.5 -36l-119 -123l-67 52z" />
    <glyph glyph-name="uni045D" unicode="&#x45d;" horiz-adv-x="644" 
d="M254 477v-280q0 -38 16.5 -57t43.5 -19q36 0 56 30t20 81v141h-60v104h230v-325q0 -26 14.5 -37t40.5 -11v-104q-11 -4 -26 -5.5t-29 -1.5q-52 0 -88.5 21.5t-44.5 65.5h-6q-22 -43 -63 -68.5t-98 -25.5q-39 0 -71.5 13.5t-56 38t-36 59.5t-12.5 79v197h-55v104h225z
M354 603l-67 -52l-119 123q-20 20 -26.5 36t-6.5 31q0 30 19.5 48.5t48.5 18.5q23 0 39 -12.5t30 -38.5z" />
    <glyph glyph-name="uni045E" unicode="&#x45e;" horiz-adv-x="624" 
d="M254 477v-266q0 -38 16.5 -57t43.5 -19q36 0 56 30t20 81v127h-60v104h230v-399q0 -81 -21 -140.5t-59 -98.5t-92.5 -58t-121.5 -19q-49 0 -87 8.5t-64 19.5v120q26 -13 61 -20.5t66 -7.5q68 0 110.5 41t42.5 125v20h-6q-20 -37 -51.5 -52.5t-75.5 -15.5
q-41 0 -73.5 13.5t-56 38t-36 59.5t-12.5 79v183h-55v104h225zM220 768q4 -40 25.5 -62t56.5 -22t56.5 22t25.5 62l105 -20q-4 -81 -55.5 -127.5t-132.5 -46.5t-131.5 46.5t-54.5 127.5z" />
    <glyph glyph-name="uni045F" unicode="&#x45f;" horiz-adv-x="644" 
d="M254 477v-280q0 -38 16.5 -57t43.5 -19q36 0 56 30t20 81v141h-60v104h230v-325q0 -26 14.5 -37t40.5 -11v-104q-11 -4 -26 -5.5t-31 -1.5q-50 0 -78.5 15t-48.5 43h-8l-73 -92q32 -5 55 -28.5t23 -62.5q0 -51 -39 -78.5t-99 -27.5q-34 0 -59 9v65h15q32 0 47.5 8
t15.5 29q0 22 -15 30.5t-41 8.5v32l37 49h-35q-79 0 -125 47.5t-46 135.5v197h-55v104h225z" />
    <glyph glyph-name="uni0490" unicode="&#x490;" horiz-adv-x="630" 
d="M444 674v95h150v-210h-310v-444h90v-115h-338v115h60v444h-60v115h408z" />
    <glyph glyph-name="uni0491" unicode="&#x491;" horiz-adv-x="521" 
d="M350 477v96h138v-200h-225v-269h60v-104h-285v104h55v269h-60v104h317z" />
    <glyph glyph-name="endash" unicode="&#x2013;" horiz-adv-x="500" 
d="M470 300v-118h-440v118h440z" />
    <glyph glyph-name="emdash" unicode="&#x2014;" horiz-adv-x="1000" 
d="M970 300v-118h-940v118h940z" />
    <glyph glyph-name="quoteleft" unicode="&#x2018;" horiz-adv-x="241" 
d="M191.003 689.031q-16.999 -11.999 -28.498 -26.998t-11.499 -35.998q0 -13.999 5.49902 -24.498q5.5 -10.5 15.499 -22.499q8 -10.999 12.999 -20.999q5 -9.99902 5 -23.998q0 -15.999 -5.99902 -26.998q-6 -11 -15.5 -17.999q-9.49902 -7 -20.498 -9.5
q-11 -2.49902 -20.999 -2.49902q-34.998 0 -56.4961 27.998q-21.499 27.998 -21.499 67.9961q0 50.9961 32.998 91.4941q32.998 40.4971 78.9951 63.4961z" />
    <glyph glyph-name="quoteright" unicode="&#x2019;" horiz-adv-x="241" 
d="M49 516q17 12 28.5 27t11.5 36q0 14 -5.5 24.5t-15.5 22.5q-8 11 -13 21t-5 24q0 16 6 27t15.5 18t20.5 9.5t21 2.5q35 0 56.5 -28t21.5 -68q0 -51 -33 -91.5t-79 -63.5z" />
    <glyph glyph-name="quotesinglbase" unicode="&#x201a;" horiz-adv-x="241" 
d="M49 -108q17 12 28.5 27t11.5 36q0 14 -5.5 24.5t-15.5 22.5q-8 11 -13 21t-5 24q0 16 6 27t15.5 18t20.5 9.5t21 2.5q35 0 56.5 -28t21.5 -68q0 -51 -33 -91.5t-79 -63.5z" />
    <glyph glyph-name="quotedblleft" unicode="&#x201c;" horiz-adv-x="424" 
d="M192.003 689.031q-16.999 -11.999 -28.498 -26.998t-11.499 -35.998q0 -13.999 5.49902 -24.498q5.5 -10.5 15.499 -22.499q8 -10.999 12.999 -20.999q5 -9.99902 5 -23.998q0 -15.999 -5.99902 -26.998q-6 -11 -15.5 -17.999q-9.49902 -7 -20.498 -9.5
q-11 -2.49902 -20.999 -2.49902q-34.998 0 -56.4961 27.998q-21.499 27.998 -21.499 67.9961q0 50.9961 32.998 91.4941q32.998 40.4971 78.9951 63.4961zM374.003 689.031q-16.999 -11.999 -28.498 -26.998t-11.499 -35.998q0 -13.999 5.49902 -24.498
q5.5 -10.5 15.499 -22.499q8 -10.999 12.999 -20.999q5 -9.99902 5 -23.998q0 -15.999 -5.99902 -26.998q-6 -11 -15.5 -17.999q-9.49902 -7 -20.498 -9.5q-11 -2.49902 -20.999 -2.49902q-34.998 0 -56.4961 27.998q-21.499 27.998 -21.499 67.9961
q0 50.9961 32.998 91.4941q32.998 40.4971 78.9951 63.4961z" />
    <glyph glyph-name="quotedblright" unicode="&#x201d;" horiz-adv-x="424" 
d="M50 516q17 12 28.5 27t11.5 36q0 14 -5.5 24.5t-15.5 22.5q-8 11 -13 21t-5 24q0 16 6 27t15.5 18t20.5 9.5t21 2.5q35 0 56.5 -28t21.5 -68q0 -51 -33 -91.5t-79 -63.5zM232 516q17 12 28.5 27t11.5 36q0 14 -5.5 24.5t-15.5 22.5q-8 11 -13 21t-5 24q0 16 6 27t15.5 18
t20.5 9.5t21 2.5q35 0 56.5 -28t21.5 -68q0 -51 -33 -91.5t-79 -63.5z" />
    <glyph glyph-name="quotedblbase" unicode="&#x201e;" horiz-adv-x="424" 
d="M50 -108q17 12 28.5 27t11.5 36q0 14 -5.5 24.5t-15.5 22.5q-8 11 -13 21t-5 24q0 16 6 27t15.5 18t20.5 9.5t21 2.5q35 0 56.5 -28t21.5 -68q0 -51 -33 -91.5t-79 -63.5zM232 -108q17 12 28.5 27t11.5 36q0 14 -5.5 24.5t-15.5 22.5q-8 11 -13 21t-5 24q0 16 6 27
t15.5 18t20.5 9.5t21 2.5q35 0 56.5 -28t21.5 -68q0 -51 -33 -91.5t-79 -63.5z" />
    <glyph glyph-name="dagger" unicode="&#x2020;" horiz-adv-x="420" 
d="M280 634v-157h110v-104h-110v-373h-140v373h-110v104h110v157h140z" />
    <glyph glyph-name="daggerdbl" unicode="&#x2021;" horiz-adv-x="420" 
d="M280 634v-157h110v-104h-110v-112h110v-104h-110v-157h-140v157h-110v104h110v112h-110v104h110v157h140z" />
    <glyph glyph-name="bullet" unicode="&#x2022;" horiz-adv-x="500" 
d="M250 373q49 0 79 -30t30 -77t-30 -77t-79 -30t-79 30t-30 77t30 77t79 30z" />
    <glyph glyph-name="ellipsis" unicode="&#x2026;" horiz-adv-x="800" 
d="M133 146q37 0 59.5 -22.5t22.5 -57.5t-22.5 -57.5t-59.5 -22.5t-59.5 22.5t-22.5 57.5t22.5 57.5t59.5 22.5zM400 146q37 0 59.5 -22.5t22.5 -57.5t-22.5 -57.5t-59.5 -22.5t-59.5 22.5t-22.5 57.5t22.5 57.5t59.5 22.5zM667 146q37 0 59.5 -22.5t22.5 -57.5t-22.5 -57.5
t-59.5 -22.5t-59.5 22.5t-22.5 57.5t22.5 57.5t59.5 22.5z" />
    <glyph glyph-name="perthousand" unicode="&#x2030;" horiz-adv-x="1279" 
d="M678 345q78 0 121.5 -48.5t43.5 -129.5q0 -40 -11 -73.5t-32 -57.5t-52 -37t-70 -13t-70 13t-52 37t-32 57.5t-11 73.5q0 81 43.5 129.5t121.5 48.5zM678 263q-24 0 -33 -26.5t-9 -70.5t9 -71t33 -27q25 0 33.5 27t8.5 71t-8.5 70.5t-33.5 26.5zM209 688
q78 0 121.5 -48.5t43.5 -129.5q0 -40 -11 -73.5t-32 -57.5t-52 -37t-70 -13t-70 13t-52 37t-32 57.5t-11 73.5q0 81 43.5 129.5t121.5 48.5zM209 606q-24 0 -33 -26.5t-9 -70.5t9 -71t33 -27q25 0 33.5 27t8.5 71t-8.5 70.5t-33.5 26.5zM700 674l-429 -725l-82 51l429 725z
M1059 345q78 0 121.5 -48.5t43.5 -129.5q0 -40 -11 -73.5t-32 -57.5t-52 -37t-70 -13t-70 13t-52 37t-32 57.5t-11 73.5q0 81 43.5 129.5t121.5 48.5zM1059 263q-24 0 -33 -26.5t-9 -70.5t9 -71t33 -27q25 0 33.5 27t8.5 71t-8.5 70.5t-33.5 26.5z" />
    <glyph glyph-name="guilsinglleft" unicode="&#x2039;" horiz-adv-x="344" 
d="M294 376l-123 -135l122 -134l-83 -75l-160 175v70l161 174z" />
    <glyph glyph-name="guilsinglright" unicode="&#x203a;" horiz-adv-x="344" 
d="M133 451l161 -174v-70l-160 -175l-83 75l122 134l-123 135z" />
    <glyph glyph-name="fraction" unicode="&#x2044;" horiz-adv-x="194" 
d="M284 674l-304 -706l-70 32l304 707z" />
    <glyph glyph-name="uni2070" unicode="&#x2070;" horiz-adv-x="361" 
d="M148 549q0 -61 8 -88t25 -27q32 0 32 115v49q0 65 -8 90.5t-24 25.5q-17 0 -25 -26t-8 -90v-49zM181 788q42 0 69.5 -16t43.5 -44.5t22.5 -68t6.5 -85.5q0 -47 -6.5 -86t-22.5 -67.5t-43.5 -44.5t-69.5 -16t-70 16t-44 44.5t-22.5 67.5t-6.5 86q0 46 6.5 85.5t22.5 68
t44 44.5t70 16z" />
    <glyph glyph-name="uni2074" unicode="&#x2074;" horiz-adv-x="360" 
d="M193 778q-3 -27 -7.5 -61.5t-10.5 -70t-12.5 -69t-13.5 -60.5l3 -4l27 4h28v111h99v-111h34v-71h-34v-76h-99v76h-167v71q7 27 13.5 61t12 69t10 69.5t7.5 61.5h110z" />
    <glyph glyph-name="uni2075" unicode="&#x2075;" horiz-adv-x="360" 
d="M287 778v-84h-130v-68h14q30 0 56 -7.5t45.5 -22.5t30.5 -38.5t11 -55.5q0 -67 -45.5 -104.5t-119.5 -37.5q-23 0 -51 4.5t-52 16.5v74q22 -10 46.5 -15.5t44.5 -5.5q31 0 49 15.5t18 43.5q0 33 -23.5 46t-59.5 13h-64v226h230z" />
    <glyph glyph-name="uni2076" unicode="&#x2076;" horiz-adv-x="360" 
d="M287 702q-27 12 -53 12q-39 0 -61.5 -28.5t-22.5 -76.5l6 -2q11 7 25.5 14t39.5 7q53 0 78.5 -35.5t25.5 -88.5q0 -39 -12.5 -66t-33 -44.5t-47 -25.5t-54.5 -8q-68 0 -105.5 44.5t-37.5 136.5q0 39 8.5 82.5t29 80t55.5 60.5t89 24q20 0 36.5 -3.5t33.5 -8.5v-74z
M145 507q0 -28 8 -50.5t27 -22.5q16 0 25.5 18t9.5 50q0 29 -8.5 40.5t-24.5 11.5q-22 0 -37 -20v-27z" />
    <glyph glyph-name="uni2077" unicode="&#x2077;" horiz-adv-x="360" 
d="M327 778v-73q-14 -28 -29 -69.5t-28 -88t-23 -93.5t-14 -84h-102q3 36 13 82t23.5 92.5t28.5 88t27 66.5l-3 4l-27 -4h-74v-44h-86v123h294z" />
    <glyph glyph-name="uni2078" unicode="&#x2078;" horiz-adv-x="360" 
d="M85 595q-23 17 -32 38t-9 46q0 28 10.5 49t29 34t44 19.5t54.5 6.5q60 0 97.5 -26t37.5 -79q0 -31 -13 -53t-35 -43v-5q29 -20 43.5 -43.5t14.5 -58.5q0 -60 -41.5 -90t-105.5 -30t-105.5 30.5t-41.5 90.5q0 32 13 61t39 48v5zM159 548q-11 -15 -16 -28.5t-5 -30.5
q0 -25 10 -40t31 -15q19 0 28.5 12t9.5 32q0 27 -15.5 43t-42.5 27zM197 621q9 14 12 25t3 23q0 45 -32 45q-31 0 -31 -35q0 -22 13 -35.5t35 -22.5z" />
    <glyph glyph-name="uni2079" unicode="&#x2079;" horiz-adv-x="360" 
d="M204 541q-11 -7 -25.5 -14t-39.5 -7q-53 0 -78.5 35.5t-25.5 88.5q0 39 12.5 66t33 44.5t47 25.5t54.5 8q68 0 105.5 -44.5t37.5 -136.5q0 -39 -8.5 -82.5t-29 -80t-55.5 -60.5t-89 -24q-20 0 -36.5 3.5t-33.5 8.5v74q27 -12 53 -12q39 0 61.5 28.5t22.5 76.5zM215 641
q0 28 -8 50.5t-27 22.5q-16 0 -25.5 -18t-9.5 -50q0 -29 8.5 -40.5t24.5 -11.5q22 0 37 20v27z" />
    <glyph glyph-name="uni207A" unicode="&#x207a;" horiz-adv-x="398" 
d="M236 725v-106h102v-74h-102v-106h-74v106h-102v74h102v106h74z" />
    <glyph glyph-name="uni207B" unicode="&#x207b;" horiz-adv-x="398" 
d="M338 619v-74h-278v74h278z" />
    <glyph glyph-name="uni207C" unicode="&#x207c;" horiz-adv-x="398" 
d="M338 693v-74h-278v74h278zM338 545v-74h-278v74h278z" />
    <glyph glyph-name="uni207D" unicode="&#x207d;" horiz-adv-x="282" 
d="M236 825q-28 -56 -41 -121t-13 -127q0 -29 3 -61t9.5 -64.5t16.5 -64t25 -58.5l-73 -36q-22 29 -37.5 64t-25 72.5t-14 75t-4.5 72.5t4.5 73t14 75t25 72t37.5 64z" />
    <glyph glyph-name="uni207E" unicode="&#x207e;" horiz-adv-x="282" 
d="M119 861q22 -29 37 -64t25 -72t14.5 -75t4.5 -73t-4.5 -72.5t-14.5 -75t-25 -72.5t-37 -64l-73 36q15 27 25 58.5t16.5 64t9.5 64.5t3 61q0 62 -13 127t-41 121z" />
    <glyph glyph-name="uni2080" unicode="&#x2080;" horiz-adv-x="361" 
d="M148 32q0 -61 8 -88t25 -27q32 0 32 115v49q0 65 -8 90.5t-24 25.5q-17 0 -25 -26t-8 -90v-49zM181 271q42 0 69.5 -16t43.5 -44.5t22.5 -68t6.5 -85.5q0 -47 -6.5 -86t-22.5 -67.5t-43.5 -44.5t-69.5 -16t-70 16t-44 44.5t-22.5 67.5t-6.5 86q0 46 6.5 85.5t22.5 68
t44 44.5t70 16z" />
    <glyph glyph-name="uni2081" unicode="&#x2081;" horiz-adv-x="361" 
d="M168 261h95v-336h55v-72h-226v72h65v228l-67 -49l-47 68z" />
    <glyph glyph-name="uni2082" unicode="&#x2082;" horiz-adv-x="362" 
d="M137 137h-86v112q25 9 55 15.5t59 6.5q63 0 104 -31t41 -90q0 -34 -13.5 -67t-34 -62.5t-45.5 -54.5t-48 -44l2 -6l42 11h109v-74h-282v69q24 19 52 45t52 55.5t40 60.5t16 60q0 26 -12.5 40t-35.5 14h-15v-60z" />
    <glyph glyph-name="uni2083" unicode="&#x2083;" horiz-adv-x="360" 
d="M134 147h-86v103q61 21 117 21q61 0 100 -24.5t39 -78.5q0 -29 -12.5 -50.5t-34.5 -35.5v-6q29 -11 43.5 -39.5t14.5 -63.5q0 -33 -12 -57t-33.5 -40.5t-51 -24.5t-64.5 -8q-30 0 -56.5 6t-52.5 17v72q26 -8 50.5 -14.5t44.5 -6.5q29 0 47 14t18 40t-17 40t-44 14h-34v72
h34q26 0 40.5 15.5t14.5 40.5q0 44 -50 44h-15v-50z" />
    <glyph glyph-name="uni2084" unicode="&#x2084;" horiz-adv-x="360" 
d="M193 261q-3 -27 -7.5 -61.5t-10.5 -70t-12.5 -69t-13.5 -60.5l3 -4l27 4h28v111h99v-111h34v-71h-34v-76h-99v76h-167v71q7 27 13.5 61t12 69t10 69.5t7.5 61.5h110z" />
    <glyph glyph-name="uni2085" unicode="&#x2085;" horiz-adv-x="360" 
d="M287 261v-84h-130v-68h14q30 0 56 -7.5t45.5 -22.5t30.5 -38.5t11 -55.5q0 -67 -45.5 -104.5t-119.5 -37.5q-23 0 -51 4.5t-52 16.5v74q22 -10 46.5 -15.5t44.5 -5.5q31 0 49 15.5t18 43.5q0 33 -23.5 46t-59.5 13h-64v226h230z" />
    <glyph glyph-name="uni2086" unicode="&#x2086;" horiz-adv-x="360" 
d="M287 185q-27 12 -53 12q-39 0 -61.5 -28.5t-22.5 -76.5l6 -2q11 7 25.5 14t39.5 7q53 0 78.5 -35.5t25.5 -88.5q0 -39 -12.5 -66t-33 -44.5t-47 -25.5t-54.5 -8q-68 0 -105.5 44.5t-37.5 136.5q0 39 8.5 82.5t29 80t55.5 60.5t89 24q20 0 36.5 -3.5t33.5 -8.5v-74z
M145 -10q0 -28 8 -50.5t27 -22.5q16 0 25.5 18t9.5 50q0 29 -8.5 40.5t-24.5 11.5q-22 0 -37 -20v-27z" />
    <glyph glyph-name="uni2087" unicode="&#x2087;" horiz-adv-x="360" 
d="M327 261v-73q-14 -28 -29 -69.5t-28 -88t-23 -93.5t-14 -84h-102q3 36 13 82t23.5 92.5t28.5 88t27 66.5l-3 4l-27 -4h-74v-44h-86v123h294z" />
    <glyph glyph-name="uni2088" unicode="&#x2088;" horiz-adv-x="360" 
d="M85 78q-23 17 -32 38t-9 46q0 28 10.5 49t29 34t44 19.5t54.5 6.5q60 0 97.5 -26t37.5 -79q0 -31 -13 -53t-35 -43v-5q29 -20 43.5 -43.5t14.5 -58.5q0 -60 -41.5 -90t-105.5 -30t-105.5 30.5t-41.5 90.5q0 32 13 61t39 48v5zM159 31q-11 -15 -16 -28.5t-5 -30.5
q0 -25 10 -40t31 -15q19 0 28.5 12t9.5 32q0 27 -15.5 43t-42.5 27zM197 104q9 14 12 25t3 23q0 45 -32 45q-31 0 -31 -35q0 -22 13 -35.5t35 -22.5z" />
    <glyph glyph-name="uni2089" unicode="&#x2089;" horiz-adv-x="360" 
d="M204 24q-11 -7 -25.5 -14t-39.5 -7q-53 0 -78.5 35.5t-25.5 88.5q0 39 12.5 66t33 44.5t47 25.5t54.5 8q68 0 105.5 -44.5t37.5 -136.5q0 -39 -8.5 -82.5t-29 -80t-55.5 -60.5t-89 -24q-20 0 -36.5 3.5t-33.5 8.5v74q27 -12 53 -12q39 0 61.5 28.5t22.5 76.5zM215 124
q0 28 -8 50.5t-27 22.5q-16 0 -25.5 -18t-9.5 -50q0 -29 8.5 -40.5t24.5 -11.5q22 0 37 20v27z" />
    <glyph glyph-name="uni208A" unicode="&#x208a;" horiz-adv-x="398" 
d="M236 208v-106h102v-74h-102v-106h-74v106h-102v74h102v106h74z" />
    <glyph glyph-name="uni208B" unicode="&#x208b;" horiz-adv-x="398" 
d="M338 102v-74h-278v74h278z" />
    <glyph glyph-name="uni208C" unicode="&#x208c;" horiz-adv-x="398" 
d="M338 176v-74h-278v74h278zM338 28v-74h-278v74h278z" />
    <glyph glyph-name="uni208D" unicode="&#x208d;" horiz-adv-x="282" 
d="M236 308q-28 -56 -41 -121t-13 -127q0 -29 3 -61t9.5 -64.5t16.5 -64t25 -58.5l-73 -36q-22 29 -37.5 64t-25 72.5t-14 75t-4.5 72.5t4.5 73t14 75t25 72t37.5 64z" />
    <glyph glyph-name="uni208E" unicode="&#x208e;" horiz-adv-x="282" 
d="M119 344q22 -29 37 -64t25 -72t14.5 -75t4.5 -73t-4.5 -72.5t-14.5 -75t-25 -72.5t-37 -64l-73 36q15 27 25 58.5t16.5 64t9.5 64.5t3 61q0 62 -13 127t-41 121z" />
    <glyph glyph-name="Euro" unicode="&#x20ac;" horiz-adv-x="679" 
d="M115 437q29 119 122.5 185t236.5 66q91 0 166 -31v-180h-139v98h-20q-69 0 -112 -37t-62 -101h322l-27 -100h-309v-22.5t2 -22.5h295l-28 -100h-235q26 -44 72.5 -68.5t112.5 -24.5q38 0 68.5 8.5t59.5 23.5v-107q-42 -24 -83.5 -31t-79.5 -7q-138 0 -227 54t-124 152
h-89l28 100h39q-1 11 -1 22.5v22.5h-66l27 100h51z" />
    <glyph glyph-name="uni2116" unicode="&#x2116;" horiz-adv-x="1098" 
d="M902 511q74 0 116.5 -47.5t42.5 -123.5q0 -38 -11 -70t-32 -55t-50.5 -35.5t-66.5 -12.5t-66.5 13t-50 36t-31.5 54.5t-11 69.5q0 76 43 123.5t117 47.5zM901 421q-12 0 -20.5 -7t-14 -18.5t-7.5 -26.5t-2 -30t2 -29.5t7 -26.5t13.5 -19t21.5 -7t21.5 7t13.5 19t7.5 26.5
t2.5 29.5t-2.5 30t-7.5 26.5t-14 18.5t-21 7zM1062 115v-115h-320v115h320zM273 674l230 -400l5 2l-10 78v205h-63v115h281v-115h-58v-559h-186l-223 389l-5 -2l10 -78v-194h62v-115h-280v115h58v444h-58v115h237z" />
    <glyph glyph-name="trademark" unicode="&#x2122;" horiz-adv-x="942" 
d="M601 674l47 -171l7 -50h6l7 50l48 171h202v-69h-39v-198h39v-66h-160v61h28v118l8 75h-6l-68 -254h-128l-69 252h-6l8 -75v-116h28v-61h-160v66h40v198h-40v69h208zM357 674v-115h-75v46h-43v-198h45v-66h-186v66h44v198h-43v-46h-75v115h333z" />
    <glyph glyph-name="estimated" unicode="&#x212e;" horiz-adv-x="885" 
d="M188 127q16 -24 44.5 -42t63.5 -30t73.5 -18.5t73.5 -6.5q34 0 70.5 6t70.5 18t64 29.5t51 40.5h56q-57 -64 -134 -98.5t-179 -34.5q-86 0 -159.5 27t-127.5 75t-84.5 114.5t-30.5 145.5t31.5 146t86.5 116.5t128 77.5t156 28q79 0 152 -26.5t128.5 -75t89 -116.5
t33.5 -150v-8h-657v-218zM188 385h509v195q-42 46 -104 74t-150 28t-152.5 -26.5t-102.5 -74.5v-196z" />
    <glyph glyph-name="arrowleft" unicode="&#x2190;" horiz-adv-x="788" 
d="M374 511l-105 -106h469v-115h-469l105 -107l-81 -81l-243 246l243 244z" />
    <glyph glyph-name="arrowup" unicode="&#x2191;" horiz-adv-x="550" 
d="M274 688l246 -243l-81 -81l-107 105v-469h-115v469l-106 -105l-81 81z" />
    <glyph glyph-name="arrowright" unicode="&#x2192;" horiz-adv-x="788" 
d="M519 405l-105 106l81 81l243 -244l-243 -246l-81 81l105 107h-469v115h469z" />
    <glyph glyph-name="arrowdown" unicode="&#x2193;" horiz-adv-x="550" 
d="M332 674v-469l107 105l81 -81l-246 -243l-244 243l81 81l106 -105v469h115z" />
    <glyph glyph-name="arrowboth" unicode="&#x2194;" horiz-adv-x="1000" 
d="M374 511l-105 -106h462l-105 106l81 81l243 -244l-243 -246l-81 81l105 107h-462l105 -107l-81 -81l-243 246l243 244z" />
    <glyph glyph-name="arrowupdn" unicode="&#x2195;" horiz-adv-x="550" 
d="M276 688l244 -243l-81 -81l-106 105v-462l106 105l81 -81l-244 -243l-246 243l81 81l107 -105v462l-107 -105l-81 81z" />
    <glyph glyph-name="arrowupleft" unicode="&#x2196;" horiz-adv-x="675" 
d="M390 623v-114h-143l378 -378l-82 -81l-378 377v-149h-115v345h340z" />
    <glyph glyph-name="uni2197" unicode="&#x2197;" horiz-adv-x="675" 
d="M625 623v-345h-115v149l-378 -377l-82 81l378 378h-143v114h340z" />
    <glyph glyph-name="arrowdownright" unicode="&#x2198;" horiz-adv-x="675" 
d="M510 246v149h115v-345h-340v114h143l-378 378l82 81z" />
    <glyph glyph-name="uni2199" unicode="&#x2199;" horiz-adv-x="675" 
d="M165 395v-149l378 377l82 -81l-378 -378h143v-114h-340v345h115z" />
    <glyph glyph-name="arrowhookleft" unicode="&#x21a9;" horiz-adv-x="848" 
d="M374 511l-105 -106h346q26 0 44.5 14.5t18.5 39.5v46q0 25 -18.5 39.5t-44.5 14.5h-107v115h117q37 0 68.5 -11.5t54.5 -32.5t36.5 -50t13.5 -65v-66q0 -36 -13.5 -65t-36.5 -50t-54.5 -32.5t-68.5 -11.5h-356l105 -107l-81 -81l-243 246l243 244z" />
    <glyph glyph-name="arrowhookright" unicode="&#x21aa;" horiz-adv-x="848" 
d="M340 674v-115h-107q-26 0 -44.5 -14.5t-18.5 -39.5v-46q0 -25 18.5 -39.5t44.5 -14.5h346l-105 106l81 81l243 -244l-243 -246l-81 81l105 107h-356q-37 0 -68.5 11.5t-55 32.5t-36.5 50t-13 65v66q0 36 13 65t36.5 50t55 32.5t68.5 11.5h117z" />
    <glyph glyph-name="carriagereturnright" unicode="&#x21b3;" horiz-adv-x="788" 
d="M170 674v-269h349l-105 106l81 81l243 -244l-243 -246l-81 81l105 107h-469v384h120z" />
    <glyph glyph-name="carriagereturn" unicode="&#x21b5;" horiz-adv-x="788" 
d="M374 511l-105 -106h349v269h120v-384h-469l105 -107l-81 -81l-243 246l243 244z" />
    <glyph glyph-name="pageup" unicode="&#x21de;" horiz-adv-x="550" 
d="M275 688l235 -232l-81 -81l-96 94v-129h96v-95h-96v-53h96v-95h-96v-97h-115v97h-96v95h96v53h-96v95h96v129l-97 -96l-81 81z" />
    <glyph glyph-name="pagedown" unicode="&#x21df;" horiz-adv-x="550" 
d="M333 688v-97h96v-95h-96v-53h96v-95h-96v-129l96 94l81 -81l-235 -232l-235 234l81 81l97 -96v129h-96v95h96v53h-96v95h96v97h115z" />
    <glyph glyph-name="arrowdashleft" unicode="&#x21e0;" horiz-adv-x="788" 
d="M374 511l-105 -106h106v-115h-106l105 -107l-81 -81l-243 246l243 244zM496 405v-115h-75v115h75zM617 405v-115h-75v115h75zM738 405v-115h-75v115h75z" />
    <glyph glyph-name="arrowdashup" unicode="&#x21e1;" horiz-adv-x="550" 
d="M274 688l246 -243l-81 -81l-107 105v-106h-115v106l-106 -105l-81 81zM332 317v-75h-115v75h115zM332 196v-75h-115v75h115zM332 75v-75h-115v75h115z" />
    <glyph glyph-name="arrowdashright" unicode="&#x21e2;" horiz-adv-x="788" 
d="M738 348l-243 -246l-81 81l105 107h-106v115h106l-105 106l81 81zM367 405v-115h-75v115h75zM246 405v-115h-75v115h75zM125 405v-115h-75v115h75z" />
    <glyph glyph-name="arrowdashdown" unicode="&#x21e3;" horiz-adv-x="550" 
d="M217 205v106h115v-106l107 105l81 -81l-246 -243l-244 243l81 81zM332 432v-75h-115v75h115zM332 553v-75h-115v75h115zM332 674v-75h-115v75h115z" />
    <glyph glyph-name="arrowtableft" unicode="&#x21e4;" horiz-adv-x="839" 
d="M533 511l-105 -106h361v-115h-361l105 -107l-81 -81l-243 246l243 244zM165 559v-444h-115v444h115z" />
    <glyph glyph-name="arrowtabright" unicode="&#x21e5;" horiz-adv-x="839" 
d="M411 405l-105 106l81 81l243 -244l-243 -246l-81 81l105 107h-361v115h361zM789 559v-444h-115v444h115z" />
    <glyph glyph-name="shift" unicode="&#x21e7;" horiz-adv-x="790" 
d="M207 367h83v-279h211v279h82l-188 195zM740 334v-50h-151v-284h-388v284h-151v50l345 354z" />
    <glyph glyph-name="capslock" unicode="&#x21ea;" horiz-adv-x="790" 
d="M207 367h82v-222h212v222h82l-188 195zM740 334v-50h-151v-224h-388v224h-151v50l345 354zM289 -151h212v74h-212v-74zM589 0v-224h-388v224h388z" />
    <glyph glyph-name="partialdiff" unicode="&#x2202;" horiz-adv-x="586" 
d="M137 674q106 -15 183.5 -52.5t127.5 -92.5t74 -124t24 -146q0 -74 -20.5 -126t-56 -84.5t-84 -47.5t-105.5 -15q-112 0 -176 53t-64 154q0 49 15.5 86.5t42 63.5t62.5 39.5t78 13.5q20 0 40 -3.5t38 -11.5v-95h-42q-21 0 -35 -8.5t-22.5 -22t-12.5 -30t-4 -31.5
q0 -18 5 -34.5t15.5 -29.5t27 -21t39.5 -8q51 0 75 42.5t24 110.5q0 58 -15.5 108.5t-49.5 90.5t-87 67t-129 39z" />
    <glyph glyph-name="Delta" unicode="&#x2206;" horiz-adv-x="795" 
d="M509 674l211 -559h55v-115h-755v115h55l167 444h-55v115h322zM370 449l-120 -334h268l-122 334l-10 45h-6z" />
    <glyph glyph-name="product" unicode="&#x220f;" horiz-adv-x="710" 
d="M670 674v-115h-54v-668h54v-115h-286v115h44v668h-146v-668h44v-115h-286v115h54v668h-54v115h630z" />
    <glyph glyph-name="summation" unicode="&#x2211;" horiz-adv-x="704" 
d="M659 674v-255h-150v140h-230l155 -317l-164 -351h244v139h150v-254h-624v115h50l162 346l-158 322h-50v115h615z" />
    <glyph glyph-name="minus" unicode="&#x2212;" horiz-adv-x="709" 
d="M604 306v-119h-499v119h499z" />
    <glyph glyph-name="radical" unicode="&#x221a;" horiz-adv-x="480" 
d="M570 843v-115h-100l-132 -728h-207l-115 477h143l55 -227l11 -77h5l9 77l108 593h223z" />
    <glyph glyph-name="infinity" unicode="&#x221e;" horiz-adv-x="788" 
d="M395 313q18 19 38 35.5t42 29.5t48 20.5t56 7.5q73 0 119 -42.5t46 -115.5q0 -38 -12.5 -68t-35 -52t-53.5 -33.5t-68 -11.5q-23 0 -44.5 5t-43 16.5t-44 30t-48.5 44.5q-21 -20 -41.5 -37.5t-42.5 -30.5t-46.5 -20.5t-54.5 -7.5q-36 0 -66.5 11.5t-52.5 32.5t-34.5 50.5
t-12.5 66.5t12.5 67t34 51t52 32.5t66.5 11.5q29 0 54.5 -7.5t48 -20.5t43 -29.5t40.5 -35.5zM338 243q-32 36 -59 58.5t-60 22.5q-35 0 -54.5 -23t-19.5 -58t19 -56.5t52 -21.5q35 0 64 24t58 54zM451 246q38 -38 65 -59.5t59 -21.5t50.5 22t18.5 57t-18.5 57.5t-50.5 22.5
t-63 -23t-61 -55z" />
    <glyph glyph-name="integral" unicode="&#x222b;" horiz-adv-x="362" 
d="M352 611q-48 0 -74.5 -18.5t-37.5 -49t-10 -70t8 -82.5l50 -298q26 -158 -47 -244.5t-231 -86.5v117q48 0 74.5 18.5t37.5 49t10 70t-8 82.5l-50 298q-26 158 47 244.5t231 86.5v-117z" />
    <glyph glyph-name="approxequal" unicode="&#x2248;" horiz-adv-x="709" 
d="M146 292l-48 52q8 23 19.5 43t28 34.5t38.5 23t52 8.5q38 0 69 -11.5t65 -24.5l105 -41l87 64l49 -53q-16 -48 -48 -79t-90 -31q-38 0 -69.5 12t-65.5 25l-105 40zM146 55l-48 52q8 23 19.5 43t28 34.5t38.5 23t52 8.5q38 0 69 -11.5t65 -24.5l105 -41l87 64l49 -53
q-16 -48 -48 -79t-90 -31q-38 0 -69.5 12t-65.5 25l-105 40z" />
    <glyph glyph-name="notequal" unicode="&#x2260;" horiz-adv-x="709" 
d="M356 425l42 120l111 -39l-30 -81h125v-119h-167l-43 -119h210v-119h-253l-43 -119l-107 37l29 82h-125v119h167l42 119h-209v119h251z" />
    <glyph glyph-name="lessequal" unicode="&#x2264;" horiz-adv-x="709" 
d="M568 477l37 -117l-300 -96v-9l300 -97l-37 -120l-464 150v142zM605 -14v-119h-499v119h499z" />
    <glyph glyph-name="greaterequal" unicode="&#x2265;" horiz-adv-x="709" 
d="M605 330v-142l-464 -150l-37 120l300 97v9l-300 96l37 117zM603 -14v-119h-499v119h499z" />
    <glyph glyph-name="lozenge" unicode="&#x25ca;" horiz-adv-x="538" 
d="M354 728l148 -388l-155 -394h-161l-150 391l154 391h164zM161 371l113 -295h10l91 232l-112 293h-10z" />
    <glyph glyph-name="f_f" unicode="&#xfb00;" horiz-adv-x="745" 
d="M401 601q-11 4 -25.5 5.5t-26.5 1.5q-48 0 -65.5 -23.5t-17.5 -68.5v-39h185v56q0 54 17.5 91t47 60t67 33.5t78.5 10.5q28 0 53.5 -5t46.5 -18v-104q-10 4 -22 5.5t-24 1.5q-49 0 -71.5 -22.5t-22.5 -69.5v-39h120v-104h-120v-269h75v-104h-305v104h60v269h-185v-269h60
v-104h-295v104h65v269h-70v104h70v56q0 54 16.5 91t44.5 60t64.5 33.5t75.5 10.5q29 0 56 -5.5t48 -17.5v-104z" />
    <glyph glyph-name="f_i" unicode="&#xfb01;" horiz-adv-x="716" 
d="M396 601q-12 5 -24 6t-20 1q-86 0 -86 -92v-39h355v-373h70v-104h-300v104h60v269h-185v-269h60v-104h-295v104h65v269h-70v104h70v56q0 54 18 91t47 60t65.5 33.5t72.5 10.5q55 0 97 -23v-104zM544 728q43 0 67.5 -24.5t24.5 -62.5t-24.5 -62.5t-67.5 -24.5
q-44 0 -71 24.5t-27 62.5t27 62.5t71 24.5z" />
    <glyph glyph-name="f_l" unicode="&#xfb02;" horiz-adv-x="716" 
d="M97 477v36q0 111 72.5 163t199.5 52q75 0 140.5 -14.5t111.5 -32.5v-577h70v-104h-300v104h60v496q-16 5 -35 7.5t-36 2.5q-25 0 -46 -5.5t-36 -18t-23.5 -33t-8.5 -50.5v-26h110v-104h-110v-269h60v-104h-295v104h65v269h-70v104h71z" />
    <glyph glyph-name="f_f_i" unicode="&#xfb03;" horiz-adv-x="1071" 
d="M407 601q-12 4 -26.5 5.5t-26.5 1.5q-47 0 -67.5 -23t-20.5 -69v-39h185v56q0 54 18 91t47 60t65.5 33.5t72.5 10.5q55 0 97 -23v-104q-12 5 -24 6t-20 1q-86 0 -86 -92v-39h355v-373h70v-104h-300v104h60v269h-185v-269h60v-104h-290v104h60v269h-185v-269h60v-104h-295
v104h65v269h-70v104h70v56q0 54 17.5 91t47 60t67 33.5t77.5 10.5q27 0 53 -5t49 -18v-104zM895 728q44 0 70 -24.5t26 -62.5t-26 -62.5t-70 -24.5q-43 0 -68.5 24.5t-25.5 62.5t25.5 62.5t68.5 24.5z" />
    <glyph glyph-name="f_f_l" unicode="&#xfb04;" horiz-adv-x="1071" 
d="M407 601q-12 4 -26.5 5.5t-26.5 1.5q-47 0 -67.5 -23t-20.5 -69v-39h185v36q0 111 73 163t200 52q75 0 140.5 -14.5t111.5 -32.5v-577h70v-104h-300v104h60v496q-16 5 -35 7.5t-36 2.5q-25 0 -46 -5.5t-36 -18t-23.5 -33t-8.5 -50.5v-26h110v-104h-110v-269h60v-104h-295
v104h65v269h-185v-269h60v-104h-295v104h65v269h-70v104h70v56q0 54 17.5 91t47 60t67 33.5t77.5 10.5q27 0 53 -5t49 -18v-104z" />
    <glyph glyph-name="uF0000" unicode="&#xf0000;" horiz-adv-x="760" 
d="M300 143l192 65l-96 161l-96 -48v-178zM541 143l-32 49l-33 -16zM203 337l81 -49v178zM509 386h32v47h-32v-47zM115 208q-12 25 -18.5 58.5t-6.5 70.5q0 60 22.5 113t62 92.5t92.5 62t113 22.5t113 -22.5t92.5 -62t62 -92.5t22.5 -113t-22.5 -113t-62 -92.5t-92.5 -62
t-113 -22.5q-42 0 -81 11.5t-72 31t-59.5 46t-44.5 56.5l80 129h-17zM300 337l225 129h-194v64h-31v-193z" />
    <glyph glyph-name="f_j" horiz-adv-x="688" 
d="M396 601q-11 4 -22.5 5.5t-22.5 1.5q-42 0 -63.5 -19.5t-21.5 -65.5v-46h355v-432q0 -56 -15.5 -103.5t-47 -83.5t-80 -57.5t-114.5 -24.5v105q44 15 65.5 50t21.5 104v338h-185v-269h75v-104h-310v104h65v269h-70v104h70v56q0 54 18 91t47 60t65.5 33.5t72.5 10.5
q55 0 97 -23v-104zM544 728q43 0 67.5 -24.5t24.5 -62.5t-24.5 -62.5t-67.5 -24.5q-44 0 -71 24.5t-27 62.5t27 62.5t71 24.5z" />
    <glyph glyph-name="f_f_j" horiz-adv-x="1043" 
d="M407 601q-12 4 -26.5 5.5t-27.5 1.5q-46 0 -66.5 -19.5t-20.5 -65.5v-46h185v56q0 54 18 91t47 60t65.5 33.5t72.5 10.5q55 0 97 -23v-104q-12 5 -24.5 6t-20.5 1q-44 0 -64.5 -20t-20.5 -65v-46h355v-432q0 -56 -15.5 -103.5t-47 -83.5t-80 -57.5t-114.5 -24.5v105
q44 15 65.5 50t21.5 104v338h-185v-269h75v-104h-305v104h60v269h-185v-269h60v-104h-295v104h65v269h-70v104h70v56q0 54 17.5 91t47 60t67 33.5t77.5 10.5q27 0 53 -5t49 -18v-104zM890 728q44 0 70 -24.5t26 -62.5t-26 -62.5t-70 -24.5q-43 0 -68.5 24.5t-25.5 62.5
t25.5 62.5t68.5 24.5z" />
    <glyph glyph-name="caroncomma" horiz-adv-x="202" 
d="M40 575q17 10 23 20.5t6 21.5q0 10 -4 17t-9.5 13.5t-9.5 14t-4 19.5q0 22 15.5 34.5t38.5 12.5q28 0 47 -19t19 -52q0 -23 -9.5 -42t-24 -34t-32.5 -25t-35 -15z" />
    <glyph glyph-name="commaaccent" horiz-adv-x="193" 
d="M40 -205q17 10 23 20.5t6 21.5q0 10 -4 17t-9.5 13.5t-9.5 14t-4 19.5q0 21 14.5 39t43.5 18t45.5 -19t16.5 -51q0 -24 -9.5 -45t-24 -37.5t-32.5 -28t-35 -16.5z" />
    <glyph glyph-name="f_k" horiz-adv-x="1022" 
d="M97 477v36q0 111 72.5 163t199.5 52q75 0 140.5 -14.5t111.5 -32.5v-577h45v-104h-275v104h60v496q-16 5 -35 7.5t-36 2.5q-25 0 -46 -5.5t-36 -18t-23.5 -33t-8.5 -50.5v-26h110v-104h-110v-269h60v-104h-295v104h65v269h-70v104h71zM987 477v-104h-55l-98 -106l70 -110
q17 -28 33.5 -40.5t44.5 -12.5h10v-104q-31 -7 -68 -7q-34 0 -60 4t-47.5 13.5t-39 26t-33.5 42.5l-103 163l87 101l33 24l-2 6h-57v104h285z" />
    <glyph glyph-name="f_f_k" horiz-adv-x="1377" 
d="M407 601q-12 4 -26.5 5.5t-26.5 1.5q-47 0 -67.5 -23t-20.5 -69v-39h185v36q0 111 73 163t200 52q75 0 140.5 -14.5t111.5 -32.5v-577h45v-104h-275v104h60v496q-16 5 -35 7.5t-36 2.5q-25 0 -46 -5.5t-36 -18t-23.5 -33t-8.5 -50.5v-26h110v-104h-110v-269h60v-104h-295
v104h65v269h-185v-269h60v-104h-295v104h65v269h-70v104h70v56q0 54 17.5 91t47 60t67 33.5t77.5 10.5q27 0 53 -5t49 -18v-104zM1342 477v-104h-55l-98 -106l70 -110q17 -28 33.5 -40.5t44.5 -12.5h10v-104q-31 -7 -68 -7q-34 0 -60 4t-47.5 13.5t-39 26t-33.5 42.5
l-103 163l87 101l33 24l-2 6h-57v104h285z" />
    <glyph glyph-name="f_b" horiz-adv-x="1000" 
d="M621 108q8 -3 17.5 -5t23.5 -2q31 0 55.5 11t41 29.5t25 43t8.5 51.5q0 42 -20 71.5t-59 29.5q-22 0 -39 -10.5t-29 -27.5t-18 -39.5t-6 -47.5v-104zM97 477v36q0 111 72.5 163t199.5 52q75 0 140.5 -14.5t111.5 -32.5v-221l-30 -93h8q8 19 22 38.5t34.5 35.5t48 26
t62.5 10q41 0 76.5 -14.5t62 -42.5t42 -68t15.5 -91q0 -60 -22 -110.5t-62.5 -87t-98 -57t-128.5 -20.5q-25 0 -52.5 2.5t-54 7.5t-51 12.5t-42.5 17.5v574q-16 5 -35 7.5t-36 2.5q-25 0 -46 -5.5t-36 -18t-23.5 -33t-8.5 -50.5v-26h110v-104h-110v-269h75v-104h-310v104h65
v269h-70v104h71z" />
    <glyph glyph-name="f_f_b" horiz-adv-x="1355" 
d="M407 601q-12 4 -26.5 5.5t-26.5 1.5q-47 0 -67.5 -23t-20.5 -69v-39h185v36q0 111 73 163t200 52q75 0 140.5 -14.5t111.5 -32.5v-221l-30 -93h8q8 19 22 38.5t34.5 35.5t48 26t62.5 10q41 0 76.5 -14.5t62 -42.5t42 -68t15.5 -91q0 -60 -22 -110.5t-62.5 -87t-98 -57
t-128.5 -20.5q-25 0 -52.5 2.5t-54 7.5t-51 12.5t-42.5 17.5v574q-16 5 -35 7.5t-36 2.5q-25 0 -46 -5.5t-36 -18t-23.5 -33t-8.5 -50.5v-26h110v-104h-110v-269h77v-104h-312v104h65v269h-185v-269h60v-104h-295v104h65v269h-70v104h70v56q0 54 17.5 91t47 60t67 33.5
t77.5 10.5q27 0 53 -5t49 -18v-104zM976 108q8 -3 17.5 -5t23.5 -2q31 0 55.5 11t41 29.5t25 43t8.5 51.5q0 42 -20 71.5t-59 29.5q-22 0 -39 -10.5t-29 -27.5t-18 -39.5t-6 -47.5v-104z" />
    <glyph glyph-name="f_h" horiz-adv-x="1011" 
d="M97 477v36q0 111 72.5 163t199.5 52q75 0 140.5 -14.5t111.5 -32.5v-211l-29 -103h8q10 22 25 44.5t37 40t50.5 28.5t65.5 11q70 0 109.5 -43.5t39.5 -136.5v-207h55v-104h-225v290q0 31 -16 48.5t-39 17.5q-15 0 -29.5 -7.5t-26 -21.5t-18.5 -33.5t-7 -43.5v-146h60
v-104h-285v104h55v496q-16 5 -35 7.5t-36 2.5q-25 0 -46 -5.5t-36 -18t-23.5 -33t-8.5 -50.5v-26h110v-104h-110v-269h60v-104h-295v104h65v269h-70v104h71z" />
    <glyph glyph-name="f_f_h" horiz-adv-x="1367" 
d="M407 601q-12 4 -26.5 5.5t-26.5 1.5q-47 0 -67.5 -23t-20.5 -69v-39h185v36q0 111 73 163t200 52q75 0 140.5 -14.5t111.5 -32.5l1 -211l-29 -103h8q10 22 25 44.5t37 40t50.5 28.5t65.5 11q70 0 109.5 -43.5t39.5 -136.5v-207h55v-104h-225v290q0 31 -16 48.5t-39 17.5
q-15 0 -29.5 -7.5t-26 -21.5t-18.5 -33.5t-7 -43.5v-146h60v-104h-285v104h55l-1 496q-16 5 -35 7.5t-36 2.5q-25 0 -46 -5.5t-36 -18t-23.5 -33t-8.5 -50.5v-26h110v-104h-110v-269h60v-104h-295v104h65v269h-185v-269h60v-104h-295v104h65v269h-70v104h70v56q0 54 17.5 91
t47 60t67 33.5t77.5 10.5q27 0 53 -5t49 -18v-104z" />
    <glyph glyph-name="f_iacute" horiz-adv-x="716" 
d="M396 601q-12 5 -24 6t-20 1q-86 0 -86 -92v-39h355v-373h70v-104h-300v104h60v269h-185v-269h60v-104h-295v104h65v269h-70v104h70v56q0 54 18 91t47 60t65.5 33.5t72.5 10.5q55 0 97 -23v-104zM561 754q16 30 33.5 42t38.5 12q29 0 48.5 -18.5t19.5 -47.5
q0 -16 -7.5 -32t-27.5 -36l-119 -123l-67 52z" />
    <glyph glyph-name="f_idieresis" horiz-adv-x="716" 
d="M356 610h-30q-29 0 -44.5 -18.5t-15.5 -63.5v-51h355v-373h70v-104h-300v104h60v269h-185v-269h60v-104h-295v104h65v269h-70v104h70v66q0 52 17 87t43.5 57t59.5 31.5t65 9.5q23 0 43 -4t32 -10v-104zM468 728q32 0 52.5 -21t20.5 -58t-20.5 -57t-52.5 -20t-52 20
t-20 57t19.5 58t52.5 21zM653 728q32 0 52.5 -21t20.5 -58t-20.5 -57t-52.5 -20t-52 20t-20 57t20 58t52 21z" />
    <glyph glyph-name="f_imacron" horiz-adv-x="716" 
d="M384 608h-26q-92 0 -92 -92v-39h355v-373h70v-104h-300v104h60v269h-185v-269h60v-104h-295v104h65v269h-70v104h70v56q0 54 17 91t44.5 60t63 33.5t73.5 10.5q26 0 48 -4t42 -10v-106zM692 679v-105h-258v105h258z" />
    <glyph glyph-name="i_idieresis" horiz-adv-x="726" 
d="M643 728q36 0 58.5 -23.5t22.5 -64.5t-22.5 -63.5t-58.5 -22.5t-58 22.5t-22 63.5t22 64.5t58 23.5zM402 728q36 0 58.5 -23.5t22.5 -64.5t-23 -63.5t-58 -22.5q-36 0 -58 22.5t-22 63.5t21.5 64.5t58.5 23.5zM161 728q36 0 58.5 -23.5t22.5 -64.5t-23 -63.5t-58 -22.5
q-36 0 -58 22.5t-22 63.5t21.5 64.5t58.5 23.5zM631 477v-373h70v-104h-305v104h65v269h-65v104h235zM268 477v-373h70v-104h-305v104h65v269h-65v104h235z" />
    <glyph glyph-name="uni02BC_uni0457" horiz-adv-x="363" 
d="M282 728q43 0 66 -20t23 -51q0 -30 -22.5 -49.5t-66.5 -19.5q-42 0 -67 18.5t-25 50.5t25 51.5t67 19.5zM-43 573q29 5 40.5 15t11.5 22q0 9 -5.5 15.5t-12 13.5t-12 15t-5.5 21q0 26 23 39.5t54 13.5q42 0 63.5 -21t21.5 -55q0 -29 -15 -52.5t-40 -39.5t-57.5 -24.5
t-66.5 -8.5v46zM268 477v-373h70v-104h-305v104h65v269h-65v104h235z" />
    <glyph glyph-name="idieresis_j" horiz-adv-x="698" 
d="M633 728q36 0 58.5 -23.5t22.5 -64.5t-22.5 -63.5t-58.5 -22.5t-58 22.5t-22 63.5t22 64.5t58 23.5zM392 728q36 0 58.5 -23.5t22.5 -64.5t-23 -63.5t-58 -22.5q-36 0 -58 22.5t-22 63.5t21.5 64.5t58.5 23.5zM151 728q36 0 58.5 -23.5t22.5 -64.5t-23 -63.5t-58 -22.5
q-36 0 -58 22.5t-22 63.5t21.5 64.5t58.5 23.5zM268 477v-373h70v-104h-305v104h65v269h-65v104h235zM631 477v-432q0 -56 -15.5 -103.5t-47 -83.5t-80 -57.5t-114.5 -24.5v105q44 15 65.5 50t21.5 104v338h-65v104h235z" />
    <glyph glyph-name="zero.tnum" 
d="M230 297q0 -103 15 -149.5t45 -46.5q31 0 45.5 48t14.5 148v80q0 108 -15.5 152t-44.5 44t-44.5 -45t-15.5 -151v-80zM290 688q69 0 116 -26t75.5 -72.5t41 -111t12.5 -141.5t-12.5 -141.5t-41 -111t-75.5 -72.5t-116 -26t-116 26t-75.5 72.5t-41 111t-12.5 141.5
t12.5 141.5t41 111t75.5 72.5t116 26z" />
    <glyph glyph-name="one.tnum" 
d="M267 674h158v-559h90v-115h-375v115h110v383l-113 -80l-77 109z" />
    <glyph glyph-name="two.tnum" 
d="M224 469h-150v185q45 19 98 26.5t95 7.5q115 0 177.5 -50t62.5 -144q0 -57 -22 -110.5t-55.5 -102t-74.5 -89.5t-79 -72l2 -5l93 15h160v-130h-482v115q19 16 47 39.5t58.5 52t60.5 61.5t53.5 68.5t38.5 73t15 75.5q0 50 -24.5 69t-57.5 19h-16v-104z" />
    <glyph glyph-name="three.tnum" 
d="M221 479h-148v175q55 17 101.5 25.5t94.5 8.5q50 0 91.5 -9.5t71 -30t45.5 -52t16 -76.5q0 -48 -19 -86.5t-60 -57.5v-6q53 -19 75.5 -66t22.5 -104q0 -55 -18.5 -95t-53 -66.5t-82.5 -39.5t-108 -13q-51 0 -95 9t-87 27v123q42 -14 83.5 -25t79.5 -11q106 0 106 89
q0 24 -7.5 40.5t-20.5 26.5t-30 14.5t-36 4.5h-68v121h68q36 0 58 25.5t22 67.5t-21.5 58.5t-57.5 16.5h-23v-94z" />
    <glyph glyph-name="four.tnum" 
d="M287 674q-4 -42 -11.5 -96.5t-17.5 -112t-21 -115t-21 -105.5l3 -5l42 5h69v200h160v-200h55v-125h-55v-120h-160v120h-290v115q12 49 24 107.5t22.5 118t18.5 115t12 98.5h170z" />
    <glyph glyph-name="five.tnum" 
d="M468 674v-130h-219l-4 -121h33q50 0 92 -13t72 -39t47 -65.5t17 -93.5q0 -109 -68 -167.5t-191 -58.5q-45 0 -89.5 8.5t-87.5 28.5v123q41 -16 81.5 -26.5t75.5 -10.5q52 0 78 26t26 71q0 28 -10 47t-28 30.5t-42.5 16t-54.5 4.5h-120l19 370h373z" />
    <glyph glyph-name="six.tnum" 
d="M464 553q-22 10 -44.5 15t-42.5 5q-57 0 -95.5 -46.5t-38.5 -142.5l3 -2q33 44 108 44q46 0 79.5 -16.5t55.5 -45t32.5 -66t10.5 -80.5q0 -62 -20.5 -106t-54.5 -72t-77.5 -41t-89.5 -13q-110 0 -171 73t-61 228q0 43 5.5 89t18.5 91t34.5 85t54 70t76.5 48t102 18
q33 0 60.5 -5.5t54.5 -14.5v-115zM247 218q0 -60 12.5 -86t38.5 -26t40.5 24t14.5 77q0 48 -13 76.5t-41 28.5q-18 0 -29.5 -11.5t-22.5 -28.5v-54z" />
    <glyph glyph-name="seven.tnum" 
d="M527 674v-119q-25 -50 -47.5 -118t-40.5 -143t-31.5 -151t-19.5 -143h-170q6 67 19.5 142t31.5 148t40 139.5t47 115.5l-2 5l-56 -5h-110v-71h-148v200h487z" />
    <glyph glyph-name="eight.tnum" 
d="M131 370q-70 52 -70 142q0 46 17.5 79t48.5 54.5t73.5 32t92.5 10.5q48 0 89.5 -10t71.5 -30.5t47.5 -52.5t17.5 -76q0 -49 -21 -90t-57 -73v-6q50 -32 74.5 -72t24.5 -96q0 -50 -19 -87t-52.5 -61t-79.5 -36t-100 -12t-99.5 11.5t-78.5 35.5t-52 60t-19 85
q0 56 23.5 105t67.5 81v6zM251 296q-14 -24 -23 -51.5t-9 -55.5q0 -39 19 -61t52 -22q31 0 48 18.5t17 53.5q0 24 -8 41.5t-22 31t-33 24.5t-41 21zM325 412q11 20 18 42t7 46q0 33 -14.5 53t-43.5 20q-26 0 -41.5 -16t-15.5 -47q0 -40 25.5 -61.5t64.5 -36.5z" />
    <glyph glyph-name="nine.tnum" 
d="M334 292q-33 -44 -108 -44q-46 0 -79.5 16.5t-55.5 44.5t-32.5 66t-10.5 80q0 63 21 107.5t55 72t77 40.5t87 13q112 0 173 -77t61 -234q0 -64 -12.5 -133t-45.5 -126.5t-90 -94.5t-145 -37q-34 0 -64 5.5t-59 14.5v115q24 -10 49.5 -15t45.5 -5q59 0 97.5 47t38.5 142z
M333 456q0 60 -12.5 86t-38.5 26t-40.5 -24t-14.5 -77q0 -48 13 -76.5t41 -28.5q18 0 30.5 11.5t21.5 28.5v54z" />
    <glyph glyph-name="Euro.tnum" 
d="M98 444q0 52 20.5 97t59.5 77.5t94.5 51t124.5 18.5q34 0 75.5 -5t72.5 -16v-183h-148v84h-11q-51 0 -74.5 -32t-23.5 -92h248l-24 -100h-224v-40h214l-24 -100h-190q0 -44 36 -69.5t99 -25.5q29 0 57 6.5t55 22.5v-123q-44 -17 -81 -23t-72 -6q-66 0 -119 16t-89.5 44.5
t-56 68.5t-19.5 89h-62l24 100h38v40h-63l25 100h38z" />
    <glyph glyph-name="sterling.tnum" 
d="M95 414v20q0 61 21 108.5t59 79.5t91 49t117 17q75 0 147 -23v-191h-140v95h-15q-51 0 -76.5 -35t-25.5 -90v-30h142v-120h-142v-179h122v119h140v-234h-490v115h50v179h-50v120h50z" />
    <glyph glyph-name="dollar.tnum" 
d="M362 768v-110q34 -2 70.5 -6.5t69.5 -12.5v-170h-150v72h-47q-33 0 -50 -7t-17 -28q0 -12 6.5 -22.5t21.5 -21.5t39 -25t59 -35t65 -41t52.5 -44t35.5 -54t13 -72q0 -81 -46 -124.5t-121 -51.5v-109h-151v105q-38 2 -77 8t-75 18v180h150v-82h63q69 0 69 41
q0 14 -7.5 24.5t-22 21t-36 22t-48.5 27.5q-36 20 -67.5 41t-55 46.5t-37 57.5t-13.5 76q0 75 41 114.5t116 50.5v111h150z" />
    <glyph glyph-name="cent.tnum" 
d="M391 663v-110q32 -4 67.5 -12.5t64.5 -22.5v-178h-149v94q-8 3 -15.5 4t-13.5 1q-27 0 -48 -12t-35.5 -31.5t-21.5 -45t-7 -52.5q0 -36 11 -66t31.5 -51.5t49.5 -34t65 -12.5q55 0 111 28v-118q-52 -22 -110 -27v-110h-150v110q-85 29 -134.5 100t-49.5 171
q0 49 12.5 92.5t36.5 78.5t58 59t77 35v110h150z" />
    <glyph glyph-name="currency.tnum" 
d="M193 523q21 10 45.5 14.5t50.5 4.5q28 0 51 -5t44 -14l65 73l83 -83l-54 -61q14 -24 23.5 -54.5t9.5 -69.5q0 -35 -8.5 -66.5t-23.5 -56.5l56 -63l-83 -84l-65 74q-43 -20 -97 -20t-96 20l-66 -74l-83 84l56 63q-14 26 -22.5 57.5t-8.5 67.5q0 38 8.5 69t22.5 55l-54 61
l81 81zM289 438q-18 0 -30.5 -8.5t-20 -23.5t-11 -35t-3.5 -42q0 -23 3.5 -43t11 -36t20.5 -25t31 -9t30.5 9t20.5 25t11.5 36t3.5 43q0 46 -15.5 77.5t-51.5 31.5z" />
    <glyph glyph-name="yen.tnum" 
d="M195 674l78 -226l12 -63h4l13 63l85 226h183l-143 -309h65v-110h-113v-45h113v-110h-115v-100h-175v100h-115v110h115v45h-115v110h59l-136 309h185z" />
    <glyph glyph-name="quotedbl.tnum" 
d="M174 477h-100l-15 180q0 32 17 51.5t48 19.5t48 -19.5t17 -51.5zM366 477h-100l-15 180q0 32 17 51.5t48 19.5t48 -19.5t17 -51.5z" />
    <glyph glyph-name="numbersign.tnum" 
d="M282 674l-16 -147h90l16 147h125l-16 -147h64v-117h-77l-16 -146h93v-117h-106l-16 -147h-125l16 147h-90l-16 -147h-125l16 147h-64v117h77l16 146h-93v117h106l16 147h125zM237 264h90l16 146h-90z" />
    <glyph glyph-name="percent.tnum" 
d="M442 343q33 0 55 -14t35 -38t18 -57t5 -70q0 -36 -5 -68.5t-18 -57t-34.5 -38.5t-55.5 -14t-56 14t-35 38.5t-18 57t-5 68.5q0 37 5 70t18 57t35 38t56 14zM423 119q0 -29 4.5 -42t14.5 -13t14 13t4 42v90q0 32 -3.5 44t-13.5 12q-11 0 -15.5 -13t-4.5 -43v-90zM138 688
q33 0 55 -14t34.5 -38t17.5 -56.5t5 -69.5t-5 -69.5t-17.5 -57t-34 -38.5t-55.5 -14t-56 14.5t-34.5 39t-17.5 57t-5 68.5q0 37 5 69.5t18 56.5t35 38t55 14zM120 474q0 -35 4 -50t14 -15q11 0 14.5 15t3.5 50v70q0 35 -3 50.5t-14 15.5t-15 -15.5t-4 -50.5v-70zM468 674
l-278 -674h-76l274 674h80z" />
    <glyph glyph-name="quotesingle.tnum" 
d="M174 477h-100l-15 180q0 32 17 51.5t48 19.5t48 -19.5t17 -51.5z" />
    <glyph glyph-name="plus.tnum" 
d="M349 553v-165h181v-119h-181v-167h-119v167h-180v119h180v165h119z" />
    <glyph glyph-name="less.tnum" 
d="M530 581v-141l-286 -104v-9l286 -106v-148l-480 178v152z" />
    <glyph glyph-name="equal.tnum" 
d="M530 268v-119h-480v119h480zM530 506v-119h-480v119h480z" />
    <glyph glyph-name="greater.tnum" 
d="M530 403v-152l-480 -178v148l286 106v9l-286 104v141z" />
    <glyph glyph-name="asciitilde.tnum" 
d="M97 253l-47 53q7 23 17.5 43t26 35t36.5 23.5t49 8.5q35 0 64.5 -11.5t60.5 -24.5l97 -41l82 63l47 -53q-14 -48 -44 -79.5t-85 -31.5q-35 0 -65 12t-61 25l-96 41z" />
    <glyph glyph-name="section.tnum" 
d="M134 459q-31 18 -50 45t-19 63q0 37 20.5 60.5t55 37t79 18.5t93.5 5q53 0 96 -5.5t92 -17.5v-131h-137v56h-53q-29 0 -48 -5t-19 -25q0 -17 14.5 -27t34.5 -19l143 -63q20 -9 38 -20t31.5 -25t21.5 -31.5t8 -40.5q0 -42 -24.5 -71.5t-60.5 -44.5v-5q31 -12 49 -39.5
t18 -61.5q0 -35 -19.5 -59t-53.5 -39t-79.5 -21.5t-97.5 -6.5q-45 0 -91 5t-95 18v129h135v-57h54q30 0 49.5 7t19.5 27q0 13 -9 21.5t-28 16.5l-151 68q-43 20 -74.5 48.5t-31.5 73.5q0 39 25 68.5t64 43.5v4zM352 270q38 6 38 38q0 14 -6.5 21.5t-17.5 12.5l-136 62
q-14 -5 -25 -14.5t-11 -25.5q0 -23 33 -38z" />
    <glyph glyph-name="logicalnot.tnum" 
d="M540 480v-306h-119v187h-380v119h499z" />
    <glyph glyph-name="degree.tnum" 
d="M70 567q0 27 9 49t25.5 38t39.5 25t50 9t49.5 -9t39 -25t26 -38t9.5 -49t-9.5 -49t-26 -38t-39 -25t-49.5 -9t-50 9t-39.5 25t-25.5 38t-9 49zM194 614q-19 0 -30.5 -13.5t-11.5 -33.5t11 -34t31 -14t31 14t11 34t-11.5 33.5t-30.5 13.5z" />
    <glyph glyph-name="plusminus.tnum" 
d="M530 119v-119h-480v119h480zM349 582v-140h181v-119h-181v-140h-119v140h-180v119h180v140h119z" />
    <glyph glyph-name="mu.tnum" 
d="M236 477v-286q0 -37 13 -53.5t34 -16.5q30 0 45.5 30t15.5 81v141h-49v104h213v-325q0 -26 13 -37t34 -11v-104q-11 -4 -26 -5.5t-29 -1.5q-48 0 -80.5 21.5t-39.5 65.5h-6q-8 -23 -21 -38.5t-29.5 -25.5t-35 -14t-37.5 -4q-8 0 -20 0.5t-16 1.5l-2 -5l23 -33v-82h57
v-104h-268v104h47v493h-47v104h211z" />
    <glyph glyph-name="multiply.tnum" 
d="M290 405l134 134l78 -78l-134 -134l134 -134l-78 -78l-134 134l-134 -134l-78 78l134 134l-134 134l78 78z" />
    <glyph glyph-name="divide.tnum" 
d="M290 205q33 0 53.5 -18.5t20.5 -46.5t-20.5 -46.5t-53.5 -18.5t-53.5 18.5t-20.5 46.5t20.5 46.5t53.5 18.5zM290 580q33 0 53.5 -18.5t20.5 -46.5t-20.5 -46.5t-53.5 -18.5t-53.5 18.5t-20.5 46.5t20.5 46.5t53.5 18.5zM540 395v-119h-499v119h499z" />
    <glyph glyph-name="dagger.tnum" 
d="M360 634v-157h110v-104h-110v-373h-140v373h-110v104h110v157h140z" />
    <glyph glyph-name="daggerdbl.tnum" 
d="M360 634v-157h110v-104h-110v-112h110v-104h-110v-157h-140v157h-110v104h110v112h-110v104h110v157h140z" />
    <glyph glyph-name="perthousand.tnum" horiz-adv-x="860" 
d="M443 343q33 0 55 -14t35 -38t18 -57t5 -70q0 -36 -5 -68.5t-18 -57t-34.5 -38.5t-55.5 -14t-56 14t-35 38.5t-18 57t-5 68.5q0 37 5 70t18 57t35 38t56 14zM424 119q0 -29 4.5 -42t14.5 -13t14 13t4 42v90q0 32 -3.5 44t-13.5 12q-11 0 -15.5 -13t-4.5 -43v-90zM139 688
q33 0 55 -14t34.5 -38t17.5 -56.5t5 -69.5t-5 -69.5t-17.5 -57t-34 -38.5t-55.5 -14t-56 14.5t-34.5 39t-17.5 57t-5 68.5q0 37 5 69.5t18 56.5t35 38t55 14zM121 474q0 -35 4 -50t14 -15q11 0 14.5 15t3.5 50v70q0 35 -3 50.5t-14 15.5t-15 -15.5t-4 -50.5v-70zM469 674
l-278 -674h-76l274 674h80zM720 343q33 0 55 -14t35 -38t18 -57t5 -70q0 -36 -5 -68.5t-18 -57t-34.5 -38.5t-55.5 -14t-56 14t-35 38.5t-18 57t-5 68.5q0 37 5 70t18 57t35 38t56 14zM701 119q0 -29 4.5 -42t14.5 -13t14 13t4 42v90q0 32 -3.5 44t-13.5 12q-11 0 -15.5 -13
t-4.5 -43v-90z" />
    <glyph glyph-name="partialdiff.tnum" 
d="M134 674q106 -15 183.5 -52.5t127.5 -92.5t74 -124t24 -146q0 -74 -20.5 -126t-56 -84.5t-84 -47.5t-105.5 -15q-112 0 -176 53t-64 154q0 49 15.5 86.5t42 63.5t62.5 39.5t78 13.5q20 0 40 -3.5t38 -11.5v-95h-42q-21 0 -35 -8.5t-22.5 -22t-12.5 -30t-4 -31.5
q0 -18 5 -34.5t15.5 -29.5t27 -21t39.5 -8q51 0 75 42.5t24 110.5q0 58 -15.5 108.5t-49.5 90.5t-87 67t-129 39z" />
    <glyph glyph-name="product.tnum" 
d="M560 674v-115h-34v-668h34v-115h-241v115h31v668h-120v-668h31v-115h-241v115h34v668h-34v115h540z" />
    <glyph glyph-name="summation.tnum" 
d="M546 674v-214h-148v99h-156l111 -314l-120 -354h169v109h148v-224h-520v115h34l117 346l-112 322h-34v115h511z" />
    <glyph glyph-name="minus.tnum" 
d="M530 387v-119h-480v119h480z" />
    <glyph glyph-name="radical.tnum" 
d="M607 843v-115h-100l-132 -728h-207l-115 477h143l55 -227l11 -77h5l9 77l108 593h223z" />
    <glyph glyph-name="infinity.tnum" 
d="M291 403q25 34 55.5 54t78.5 20q66 0 98 -38.5t32 -98.5q0 -63 -33.5 -103t-99.5 -40q-48 0 -77 22t-54 55q-28 -34 -58 -55.5t-78 -21.5q-65 0 -97.5 39t-32.5 100q0 29 7.5 55t23.5 45t40.5 30t57.5 11q47 0 78.5 -20.5t58.5 -53.5zM240 336q-33 59 -74 59
q-26 0 -36.5 -18t-10.5 -42q0 -23 9.5 -39.5t33.5 -16.5q23 0 43 17t35 40zM339 338q17 -26 37 -42.5t43 -16.5q24 0 33.5 17.5t9.5 41.5q0 22 -9 39.5t-32 17.5t-43 -16t-39 -41z" />
    <glyph glyph-name="integral.tnum" 
d="M461 611q-48 0 -74.5 -18.5t-37.5 -49t-10 -70t8 -82.5l50 -298q26 -158 -47 -244.5t-231 -86.5v117q48 0 74.5 18.5t37.5 49t10 70t-8 82.5l-50 298q-26 158 47 244.5t231 86.5v-117z" />
    <glyph glyph-name="approxequal.tnum" 
d="M97 371l-47 53q7 23 17.5 43t26 35t36.5 23.5t49 8.5q35 0 64.5 -11.5t60.5 -24.5l97 -41l82 63l47 -53q-14 -48 -44 -79.5t-85 -31.5q-35 0 -65 12t-61 25l-96 41zM97 136l-47 53q7 23 17.5 43t26 35t36.5 23.5t49 8.5q35 0 64.5 -11.5t60.5 -24.5l97 -41l82 63l47 -53
q-14 -48 -44 -79.5t-85 -31.5q-35 0 -65 12t-61 25l-96 41z" />
    <glyph glyph-name="notequal.tnum" 
d="M292 506l48 135l110 -35l-36 -100h116v-119h-158l-43 -119h201v-119h-243l-48 -135l-110 35l35 100h-114v119h157l42 119h-199v119h242z" />
    <glyph glyph-name="lessequal.tnum" 
d="M530 110v-110h-480v110h480zM530 592v-125l-286 -92v-8l286 -94v-132l-480 158v135z" />
    <glyph glyph-name="greaterequal.tnum" 
d="M530 110v-110h-480v110h480zM530 434v-135l-480 -158v132l286 94v8l-286 92v125z" />
    <glyph glyph-name="lozenge.tnum" 
d="M385 674l140 -334l-147 -340h-179l-144 336l145 338h185zM198 374l90 -236h12l79 167l-91 236h-11z" />
    <glyph glyph-name="endash.tnum" 
d="M540 386v-118h-500v118h500z" />
    <glyph glyph-name="emdash.tnum" horiz-adv-x="1160" 
d="M1100 386v-118h-1040v118h1040z" />
    <glyph glyph-name="asterisk.tnum" 
d="M206 598l8 6l-19 110h116l-18 -110l8 -6l99 52l34 -112l-108 -16l-4 -10l81 -77l-96 -67l-50 98h-10l-48 -101l-94 70l79 77l-4 10l-110 16l37 111z" />
    <glyph glyph-name="zero.onum" horiz-adv-x="649" 
d="M325 426q-28 0 -48.5 -13t-34 -35t-20 -51t-6.5 -62q0 -32 6.5 -62t20 -52.5t34 -36t48.5 -13.5t48.5 13.5t33.5 36t19.5 52.5t6.5 62q0 33 -6.5 62t-19.5 51t-33.5 35t-48.5 13zM324 541q64 0 116.5 -19t90 -54.5t58 -87t20.5 -116.5t-20.5 -116.5t-57.5 -87.5
t-89.5 -55t-116.5 -19q-65 0 -117.5 19t-89.5 55t-57.5 88t-20.5 117t20.5 116t57.5 86.5t89.5 54.5t116.5 19z" />
    <glyph glyph-name="one.onum" horiz-adv-x="527" 
d="M250 527h152v-423h90v-104h-359v104h100v249l-91 -68l-77 103z" />
    <glyph glyph-name="two.onum" horiz-adv-x="550" 
d="M197 339h-138v160q49 20 102 31t105 11q47 0 86.5 -9.5t68 -29.5t44.5 -51t16 -74q0 -47 -18.5 -88t-48 -75t-66.5 -61.5t-74 -47.5l2 -6l84 20h145v-119h-450v104q36 20 79.5 49.5t81.5 64t63.5 72.5t25.5 76q0 29 -17 44.5t-48 15.5q-9 0 -21 -1.5t-22 -6.5v-79z" />
    <glyph glyph-name="three.onum" horiz-adv-x="524" 
d="M183 339h-138v160q49 20 100.5 31t103.5 11q47 0 87.5 -10t70 -30t46.5 -50.5t17 -71.5q0 -45 -19.5 -82.5t-54.5 -61.5v-6q43 -17 63 -59.5t20 -92.5t-19 -88t-53.5 -63.5t-81.5 -38t-103 -12.5q-45 0 -90.5 8.5t-86.5 26.5v115q37 -14 76.5 -24.5t73.5 -10.5
q48 0 78 22.5t30 66.5q0 42 -27.5 61t-69.5 19h-57v115h55q43 0 69.5 22.5t26.5 62.5q0 67 -74 67q-20 0 -43 -8v-79z" />
    <glyph glyph-name="four.onum" horiz-adv-x="600" 
d="M310 527q-5 -47 -13 -100t-18.5 -107t-22.5 -106t-25 -95l4 -6l48 6h57v189h165v-189h60v-119h-60v-111h-165v111h-285v104q13 47 25.5 101t23 109t18.5 109.5t13 103.5h175z" />
    </font>
</defs>
</svg>
